<svg xmlns="http://www.w3.org/2000/svg" xmlns:xlink="http://www.w3.org/1999/xlink" viewBox="0 0 647.01 566.41"><defs><style>.cls-1,.cls-2,.cls-3,.cls-31,.cls-32,.cls-33,.cls-34,.cls-35,.cls-36,.cls-37,.cls-40,.cls-42,.cls-58,.cls-63{fill:none;}.cls-1,.cls-2,.cls-3,.cls-31,.cls-32,.cls-33,.cls-34,.cls-35,.cls-36,.cls-37{stroke:#231f20;}.cls-1,.cls-2,.cls-3,.cls-33,.cls-34,.cls-35,.cls-36,.cls-37{stroke-linecap:round;}.cls-1,.cls-2,.cls-3,.cls-31,.cls-32,.cls-33,.cls-34,.cls-35,.cls-36,.cls-37,.cls-40,.cls-41,.cls-42,.cls-59,.cls-63{stroke-miterlimit:10;}.cls-1,.cls-2,.cls-3{stroke-width:1.95px;}.cls-2{stroke-dasharray:6.58 6.58;}.cls-3{stroke-dasharray:6.91 6.91;}.cls-4{fill:#231f20;}.cls-5{font-size:30px;}.cls-10,.cls-5{font-family:Amaranth-BoldItalic, Amaranth;font-weight:700;font-style:italic;}.cls-6{letter-spacing:-0.03em;}.cls-7{letter-spacing:-0.04em;}.cls-8{letter-spacing:-0.03em;}.cls-9{letter-spacing:-0.01em;}.cls-10{font-size:18px;}.cls-11{letter-spacing:-0.01em;}.cls-12{letter-spacing:-0.02em;}.cls-13{letter-spacing:-0.08em;}.cls-14{font-size:12px;font-family:Amaranth-Regular, Amaranth;}.cls-15{letter-spacing:0em;}.cls-16{letter-spacing:0.01em;}.cls-17{letter-spacing:-0.01em;}.cls-18{letter-spacing:-0.02em;}.cls-19{letter-spacing:-0.02em;}.cls-20{letter-spacing:-0.03em;}.cls-21{letter-spacing:-0.01em;}.cls-22{letter-spacing:0em;}.cls-23{letter-spacing:-0.02em;}.cls-24{letter-spacing:-0.08em;}.cls-25{letter-spacing:-0.03em;}.cls-26{letter-spacing:-0.02em;}.cls-27{letter-spacing:-0.02em;}.cls-28{letter-spacing:0.01em;}.cls-29{letter-spacing:0em;}.cls-30{letter-spacing:-0.01em;}.cls-31,.cls-32,.cls-33,.cls-34,.cls-35,.cls-36,.cls-37{stroke-width:2px;}.cls-32{stroke-dasharray:7.58 7.58;}.cls-34{stroke-dasharray:8.55 8.55;}.cls-35{stroke-dasharray:6.84 6.84;}.cls-36{stroke-dasharray:6.9 6.9;}.cls-37{stroke-dasharray:7.04 7.04;}.cls-38{letter-spacing:-0.02em;}.cls-39{fill:#f1f1f1;}.cls-40,.cls-41{stroke:#3f3d56;}.cls-40,.cls-41,.cls-42{stroke-width:0.19px;}.cls-41,.cls-45{fill:#3f3d56;}.cls-42{stroke:#fff;}.cls-43,.cls-49,.cls-54,.cls-66{fill:#f9a826;}.cls-44,.cls-54{opacity:0.2;}.cls-44,.cls-48,.cls-49,.cls-52,.cls-54,.cls-55,.cls-59,.cls-66{isolation:isolate;}.cls-46{fill:#2f2e41;}.cls-47{fill:#ffb9b9;}.cls-48,.cls-49,.cls-55,.cls-59,.cls-60{opacity:0.1;}.cls-50{fill:url(#linear-gradient);}.cls-51,.cls-52{fill:#fff;}.cls-52{opacity:0.04;}.cls-53,.cls-55{fill:#5a5773;}.cls-56{fill:url(#linear-gradient-2);}.cls-57{fill:#c37098;}.cls-59{stroke:#f9a826;stroke-width:0.09px;}.cls-61{fill:#535461;}.cls-62{fill:#9d9cb5;}.cls-63{stroke:#535461;stroke-width:0.19px;}.cls-64{fill:#f2f2f2;}.cls-65{fill:#575a89;}.cls-66{opacity:0.3;}.cls-67{fill:#fbbebe;}.cls-68{fill:#e6e6e6;}.cls-69{fill:#9f616a;}.cls-70{fill:#d0cde1;}</style><linearGradient id="linear-gradient" x1="594.47" y1="469.81" x2="594.47" y2="520.84" gradientTransform="matrix(1, 0, 0, -1, 0, 589.05)" gradientUnits="userSpaceOnUse"><stop offset="0" stop-color="gray" stop-opacity="0.25"/><stop offset="0.54" stop-color="gray" stop-opacity="0.12"/><stop offset="1" stop-color="gray" stop-opacity="0.1"/></linearGradient><linearGradient id="linear-gradient-2" x1="652.34" y1="413.8" x2="652.34" y2="467.39" gradientTransform="matrix(1, 0, 0, -1, -26.97, 549.01)" xlink:href="#linear-gradient"/></defs><g id="Layer_2" data-name="Layer 2"><g id="Layer_1-2" data-name="Layer 1"><line class="cls-1" x1="193.39" y1="67.94" x2="193.39" y2="64.53"/><path class="cls-1" d="M193.39,56.45V53h3.41"/><path class="cls-2" d="M203.38,53H344.81"/><path class="cls-1" d="M348.1,53h3.41v3.42"/><path class="cls-3" d="M351.51,63.36v439"/><path class="cls-1" d="M351.51,505.82v3.42"/><polygon class="cls-4" points="200.41 62.25 199.16 61.08 193.39 67.28 187.62 61.08 186.36 62.25 193.39 69.81 200.41 62.25"/><polygon class="cls-4" points="343.53 502.77 344.96 501.44 351.51 508.49 358.07 501.44 359.5 502.77 351.51 511.35 343.53 502.77"/><text class="cls-5" transform="translate(197.56 25.04)"><tspan class="cls-6">U</tspan><tspan x="18.63" y="0">nravel </tspan><tspan class="cls-7" x="108.75" y="0">T</tspan><tspan x="121.59" y="0">h</tspan><tspan class="cls-8" x="137.85" y="0">r</tspan><tspan x="149.16" y="0">ough Sp</tspan><tspan class="cls-9" x="251.37" y="0">a</tspan><tspan x="267" y="0">nav</tspan></text><path d="M74.72,107.9h-2v7H71.29v-7H69.24v-1.08H74.9Z"/><path d="M80.35,110.52c0,1.16-1.33,2.14-3.44,2.16.08.75.38,1.36,1.33,1.36a5.7,5.7,0,0,0,1.7-.42l.36.85A5.41,5.41,0,0,1,78,115c-1.84,0-2.59-1.17-2.59-2.92,0-2.14,1.26-3.28,2.89-3.28C79.77,108.82,80.35,109.56,80.35,110.52Zm-1.37,0a.71.71,0,0,0-.74-.76c-1.06,0-1.35,1.08-1.37,2.06C78.39,111.76,79,111.09,79,110.52Z"/><path d="M85.22,113.27a1.91,1.91,0,0,1-2.09,1.79,5.38,5.38,0,0,1-2.13-.58l.44-1a3.91,3.91,0,0,0,1.57.58c.57,0,.83-.24.83-.61s-.3-.78-.89-1c-1.22-.45-1.72-1-1.72-1.94a1.86,1.86,0,0,1,2-1.68,4.64,4.64,0,0,1,1.86.47l-.41.93a4,4,0,0,0-1.41-.39c-.36,0-.67.18-.67.53s.31.8,1,1.06C84.62,111.81,85.22,112.25,85.22,113.27Z"/><path d="M86.85,109l.24-1.4,1.13-.25V109H89.7l-.17,1H88.22v3.55c0,.4.26.49.54.49a3.27,3.27,0,0,0,.94-.17l.22.9a4,4,0,0,1-1.53.28c-.89,0-1.54-.36-1.54-1.35v-3.7H85.77v-1Z"/><path d="M99.07,115a2.23,2.23,0,0,1-2.4,2.52,6,6,0,0,1-2.2-.5l.34-1.05a5.06,5.06,0,0,0,1.74.47c.89,0,1.27-.6,1.27-1.44a3.2,3.2,0,0,0-.24-1.19A2.23,2.23,0,0,1,95.52,115c-1.26,0-1.75-.79-1.75-2.06v-4h1.36v4c0,.66.22,1.08.79,1.08a1.72,1.72,0,0,0,1.44-1.78V109h1.41l-.06,3.55C98.7,113.47,99.07,114.06,99.07,115Z"/><path d="M102.55,115.06c-1.84,0-2.63-1.15-2.63-3s.9-3.19,2.74-3.19,2.62,1.15,2.62,3.06S104.38,115.06,102.55,115.06Zm.12-1c.92,0,1.14-.9,1.14-2s-.24-2.17-1.27-2.17-1.14.9-1.14,2.06S101.64,114.05,102.67,114.05Z"/><path d="M111.4,109v3.09a4.06,4.06,0,0,0,.58,2.55l-1.07.43a2.27,2.27,0,0,1-.6-1.33,2.23,2.23,0,0,1-2.13,1.31c-1.26,0-1.75-.79-1.75-2.06v-4h1.36v4c0,.66.22,1.08.79,1.08s1.46-.84,1.46-2.11V109Z"/><path d="M116.72,109l-.38,1.33a1.2,1.2,0,0,0-.59-.13,1.36,1.36,0,0,0-1.2,1.44v3.29h-1.37v-3a4,4,0,0,0-.59-2.56l1.08-.43a2.41,2.41,0,0,1,.58,1.26,1.73,1.73,0,0,1,1.73-1.31A2.48,2.48,0,0,1,116.72,109Z"/><path d="M126,114.6l-1.07.43a2.25,2.25,0,0,1-.61-1.47,1.75,1.75,0,0,1-1.87,1.45c-1.5,0-2.21-1.18-2.21-3a2.91,2.91,0,0,1,2.87-3.17,10.67,10.67,0,0,1,2.31.35v2.83A4.06,4.06,0,0,0,126,114.6ZM124,110a3.34,3.34,0,0,0-.8-.13c-1.2,0-1.54.87-1.54,2.09s.08,2.13,1,2.13,1.38-1.19,1.38-2.36Z"/><path d="M128.36,106.24v3.66a1.62,1.62,0,0,1,1.61-1c1.5,0,2.2,1.17,2.2,3a2.91,2.91,0,0,1-2.86,3.17,11.67,11.67,0,0,1-2.32-.35v-8.18Zm0,7.69a3.67,3.67,0,0,0,.79.12c1.2,0,1.55-.88,1.55-2.09s-.08-2.13-1-2.13-1.38,1.19-1.38,2.36Z"/><path d="M134,108a.76.76,0,0,1-.8-.81.78.78,0,0,1,.84-.85.75.75,0,0,1,.79.82A.78.78,0,0,1,134,108Zm-.67,1h1.37v4.55c0,.36.1.47.33.47a2.57,2.57,0,0,0,.31,0l.15.87a1.8,1.8,0,0,1-.85.17,1.25,1.25,0,0,1-1.31-1.36Z"/><path d="M136.39,106.48l1.37-.25v7.28c0,.36.14.49.42.49a2.58,2.58,0,0,0,.63-.09l.17.86a3.34,3.34,0,0,1-1.26.22,1.23,1.23,0,0,1-1.33-1.35Z"/><path d="M140.56,108a.76.76,0,0,1-.8-.81.78.78,0,0,1,.84-.85.75.75,0,0,1,.79.82A.78.78,0,0,1,140.56,108Zm-.67,1h1.37v4.55c0,.36.11.47.34.47a2.57,2.57,0,0,0,.31,0l.14.87a1.8,1.8,0,0,1-.85.17,1.25,1.25,0,0,1-1.31-1.36Z"/><path d="M143.38,109l.24-1.4,1.13-.25V109h1.48l-.17,1h-1.31v3.55c0,.4.27.49.54.49a3.27,3.27,0,0,0,.94-.17l.22.9a4,4,0,0,1-1.53.28c-.89,0-1.54-.36-1.54-1.35v-3.7h-1.07v-1Z"/><path d="M152.54,115a2.23,2.23,0,0,1-2.4,2.52,6,6,0,0,1-2.2-.5l.34-1.05a5.12,5.12,0,0,0,1.74.47c.89,0,1.27-.6,1.27-1.44a3.2,3.2,0,0,0-.24-1.19A2.23,2.23,0,0,1,149,115c-1.26,0-1.75-.79-1.75-2.06v-4h1.36v4c0,.66.22,1.08.8,1.08a1.72,1.72,0,0,0,1.43-1.78V109h1.41l-.06,3.55C152.17,113.47,152.54,114.06,152.54,115Z"/><path d="M158.18,106.24v3.66a1.62,1.62,0,0,1,1.61-1c1.5,0,2.2,1.17,2.2,3a2.91,2.91,0,0,1-2.86,3.17,11.67,11.67,0,0,1-2.32-.35v-8.18Zm0,7.69a3.67,3.67,0,0,0,.79.12c1.2,0,1.55-.88,1.55-2.09s-.09-2.13-1-2.13-1.38,1.19-1.38,2.36Z"/><path d="M168.44,115a2.23,2.23,0,0,1-2.4,2.52,6,6,0,0,1-2.2-.5l.34-1.05a5.12,5.12,0,0,0,1.74.47c.89,0,1.27-.6,1.27-1.44a3.2,3.2,0,0,0-.24-1.19,2.23,2.23,0,0,1-2.06,1.18c-1.26,0-1.75-.79-1.75-2.06v-4h1.36v4c0,.66.22,1.08.8,1.08a1.73,1.73,0,0,0,1.44-1.78V109h1.4l-.06,3.55C168.07,113.47,168.44,114.06,168.44,115Z"/><path d="M173.13,109l.24-1.4,1.13-.25V109H176l-.17,1H174.5v3.55c0,.4.26.49.54.49a3.27,3.27,0,0,0,.94-.17l.22.9a4,4,0,0,1-1.53.28c-.89,0-1.54-.36-1.54-1.35v-3.7h-1.08v-1Z"/><path d="M182.44,114.6l-1.07.43a2.25,2.25,0,0,1-.61-1.47,1.75,1.75,0,0,1-1.87,1.45c-1.5,0-2.2-1.18-2.2-3a2.91,2.91,0,0,1,2.86-3.17,10.92,10.92,0,0,1,2.32.35v2.83A4.11,4.11,0,0,0,182.44,114.6ZM180.5,110a3.33,3.33,0,0,0-.79-.13c-1.2,0-1.55.87-1.55,2.09s.08,2.13,1,2.13,1.38-1.19,1.38-2.36Z"/><path d="M184.84,109.66a2.27,2.27,0,0,1,1.85-.8,1.58,1.58,0,0,1,1.76,1.58,2,2,0,0,1-1.43,1.82l1.67,2.68h-1.54l-1.73-3v-.12c.26-.06,1.65-.43,1.65-1.29a.67.67,0,0,0-.74-.71,1.49,1.49,0,0,0-1.48,1.26v3.85h-1.36v-8.46l1.36-.24Z"/><path d="M190.34,108a.76.76,0,0,1-.8-.81.78.78,0,0,1,.84-.85.75.75,0,0,1,.79.82A.78.78,0,0,1,190.34,108Zm-.67,1H191v4.55c0,.36.1.47.33.47a2.57,2.57,0,0,0,.31,0l.15.87a1.8,1.8,0,0,1-.85.17,1.25,1.25,0,0,1-1.31-1.36Z"/><path d="M196.51,111.06c0-.67-.22-1.11-.79-1.11-.72,0-1.46.77-1.46,2v3H192.9v-3a4,4,0,0,0-.59-2.56l1.08-.43a2.45,2.45,0,0,1,.59,1.29,2.22,2.22,0,0,1,2.13-1.35c1.24,0,1.75.8,1.75,2.06v4h-1.35Z"/><path d="M202,116.46c.89,0,1.28-.6,1.28-1.44a3.32,3.32,0,0,0-.27-1.26,1.71,1.71,0,0,1-1.8,1.25c-1.5,0-2.2-1.18-2.2-3a2.91,2.91,0,0,1,2.86-3.17,10.81,10.81,0,0,1,2.35.35l-.06,3.29c0,1,.36,1.55.36,2.51a2.23,2.23,0,0,1-2.4,2.52,6,6,0,0,1-2.19-.5l.34-1.05A5.06,5.06,0,0,0,202,116.46Zm.82-6.5a3.33,3.33,0,0,0-.79-.13c-1.2,0-1.55.87-1.55,2.09s.09,2.13,1,2.13,1.38-1.12,1.38-2.27Z"/><path d="M209.23,109l.24-1.4,1.13-.25V109h1.47l-.17,1h-1.3v3.55c0,.4.26.49.54.49a3.25,3.25,0,0,0,.93-.17l.23.9a4.14,4.14,0,0,1-1.54.28c-.88,0-1.53-.36-1.53-1.35v-3.7h-1.08v-1Z"/><path d="M216.37,108.87c1.23,0,1.75.79,1.75,2.06v4h-1.37V111c0-.67-.22-1.09-.79-1.09a1.72,1.72,0,0,0-1.45,1.83v3.17h-1.37v-8.46l1.37-.24v3.49A2.24,2.24,0,0,1,216.37,108.87Z"/><path d="M224.15,110.52c0,1.16-1.33,2.14-3.44,2.16.09.75.39,1.36,1.33,1.36a5.71,5.71,0,0,0,1.71-.42l.36.85a5.47,5.47,0,0,1-2.26.55c-1.85,0-2.59-1.17-2.59-2.92,0-2.14,1.26-3.28,2.89-3.28C223.58,108.82,224.15,109.56,224.15,110.52Zm-1.36,0a.71.71,0,0,0-.75-.76c-1,0-1.34,1.08-1.36,2.06C222.2,111.76,222.79,111.09,222.79,110.52Z"/><path d="M230.83,106.79c1.94,0,2.85.94,2.85,2.45s-1,2.52-3,2.52h-.84v3.18h-1.42v-8.12Zm-.06,3.9a1.26,1.26,0,0,0,1.4-1.4,1.35,1.35,0,0,0-1.52-1.48c-.35,0-.61,0-.81,0v2.86Z"/><path d="M238,113.27a1.91,1.91,0,0,1-2.09,1.79,5.52,5.52,0,0,1-2.14-.58l.45-1a3.91,3.91,0,0,0,1.57.58c.56,0,.83-.24.83-.61s-.3-.78-.89-1c-1.22-.45-1.73-1-1.73-1.94a1.87,1.87,0,0,1,2-1.68,4.64,4.64,0,0,1,1.86.47l-.41.93a4,4,0,0,0-1.41-.39c-.36,0-.68.18-.68.53s.32.8,1,1.06C237.43,111.81,238,112.25,238,113.27Z"/><path d="M244.48,115a2.23,2.23,0,0,1-2.4,2.52,5.88,5.88,0,0,1-2.19-.5l.33-1.05a5.12,5.12,0,0,0,1.74.47c.89,0,1.27-.6,1.27-1.44a3.2,3.2,0,0,0-.24-1.19,2.22,2.22,0,0,1-2.06,1.18c-1.26,0-1.75-.79-1.75-2.06v-4h1.37v4c0,.66.21,1.08.79,1.08a1.73,1.73,0,0,0,1.44-1.78V109h1.4l-.06,3.55C244.11,113.47,244.48,114.06,244.48,115Z"/><path d="M248.07,109.88c-.49,0-1.26.16-1.26,2s.76,2.12,1.32,2.12a4.51,4.51,0,0,0,1.18-.24l.33.86A3.68,3.68,0,0,1,248,115c-1.85,0-2.61-1.17-2.61-2.92,0-2.12,1.2-3.28,2.74-3.28a1.86,1.86,0,0,1,1.62.82l-.77.73A1.08,1.08,0,0,0,248.07,109.88Z"/><path d="M253.84,108.87c1.24,0,1.75.79,1.75,2.06v4h-1.36V111c0-.67-.22-1.09-.8-1.09a1.73,1.73,0,0,0-1.45,1.83v3.17h-1.36v-8.46l1.36-.24v3.49A2.25,2.25,0,0,1,253.84,108.87Z"/><path d="M259.36,115.06c-1.83,0-2.62-1.15-2.62-3s.9-3.19,2.73-3.19,2.63,1.15,2.63,3.06S261.2,115.06,259.36,115.06Zm.12-1c.93,0,1.14-.9,1.14-2s-.24-2.17-1.27-2.17-1.14.9-1.14,2.06S258.45,114.05,259.48,114.05Z"/><path d="M270.15,111c0-.67-.18-1.09-.7-1.09a1.65,1.65,0,0,0-1.32,1.81v3.19h-1.35V111c0-.67-.18-1.09-.7-1.09s-1.3.76-1.3,2v3h-1.37v-3a4,4,0,0,0-.59-2.56l1.08-.43a2.55,2.55,0,0,1,.59,1.29,2.08,2.08,0,0,1,2-1.35A1.44,1.44,0,0,1,268,110a2.1,2.1,0,0,1,1.91-1.11c1.25,0,1.64.83,1.64,2.06v4h-1.35Z"/><path d="M277.54,110.52c0,1.16-1.33,2.14-3.44,2.16.08.75.38,1.36,1.33,1.36a5.61,5.61,0,0,0,1.7-.42l.36.85a5.39,5.39,0,0,1-2.25.55c-1.85,0-2.59-1.17-2.59-2.92,0-2.14,1.26-3.28,2.89-3.28C277,108.82,277.54,109.56,277.54,110.52Zm-1.37,0a.71.71,0,0,0-.74-.76c-1.05,0-1.34,1.08-1.37,2.06C275.59,111.76,276.17,111.09,276.17,110.52Z"/><path d="M279,109l.24-1.4,1.13-.25V109h1.48l-.17,1h-1.31v3.55c0,.4.26.49.54.49a3.27,3.27,0,0,0,.94-.17l.22.9a4,4,0,0,1-1.53.28c-.89,0-1.54-.36-1.54-1.35v-3.7H277.9v-1Z"/><path d="M286.54,109l-.38,1.33a1.16,1.16,0,0,0-.59-.13,1.36,1.36,0,0,0-1.2,1.44v3.29H283v-3a4,4,0,0,0-.58-2.56l1.08-.43a2.45,2.45,0,0,1,.57,1.26,1.74,1.74,0,0,1,1.73-1.31A2.48,2.48,0,0,1,286.54,109Z"/><path d="M288,108a.77.77,0,0,1-.81-.81.78.78,0,0,1,.84-.85.76.76,0,0,1,.8.82A.78.78,0,0,1,288,108Zm-.67,1h1.36v4.55c0,.36.11.47.34.47a2.57,2.57,0,0,0,.31,0l.14.87a1.75,1.75,0,0,1-.85.17,1.24,1.24,0,0,1-1.3-1.36Z"/><path d="M292.77,109.88c-.49,0-1.26.16-1.26,2s.76,2.12,1.32,2.12a4.51,4.51,0,0,0,1.18-.24l.33.86a3.68,3.68,0,0,1-1.69.36c-1.85,0-2.61-1.17-2.61-2.92,0-2.12,1.2-3.28,2.74-3.28a1.86,1.86,0,0,1,1.62.82l-.77.73A1.08,1.08,0,0,0,292.77,109.88Z"/><path d="M73.3,121.22l3.13,8.12H74.91l-.74-2.13H71.24l-.77,2.13H69.06l3.12-8.12Zm-.58,1.59c-.22.71-.6,2-1.09,3.35H73.8C73.29,124.73,72.91,123.47,72.72,122.81Z"/><path d="M80.89,127.67a1.91,1.91,0,0,1-2.09,1.79,5.38,5.38,0,0,1-2.13-.58l.44-1a3.91,3.91,0,0,0,1.57.58c.56,0,.83-.24.83-.61s-.3-.78-.89-1c-1.22-.45-1.73-1-1.73-1.94a1.87,1.87,0,0,1,2-1.68,4.64,4.64,0,0,1,1.86.47l-.41.93a4,4,0,0,0-1.41-.39c-.36,0-.68.18-.68.53s.32.8,1,1.06C80.29,126.21,80.89,126.65,80.89,127.67Z"/><path d="M85.83,127.67a1.91,1.91,0,0,1-2.09,1.79,5.38,5.38,0,0,1-2.13-.58l.44-1a4,4,0,0,0,1.57.58c.57,0,.83-.24.83-.61s-.3-.78-.89-1c-1.22-.45-1.72-1-1.72-1.94a1.86,1.86,0,0,1,2-1.68,4.64,4.64,0,0,1,1.86.47l-.4.93a4,4,0,0,0-1.42-.39c-.36,0-.67.18-.67.53s.31.8,1,1.06C85.23,126.21,85.83,126.65,85.83,127.67Z"/><path d="M91.58,124.92c0,1.16-1.33,2.14-3.44,2.16.08.75.38,1.36,1.33,1.36a5.7,5.7,0,0,0,1.7-.42l.36.85a5.39,5.39,0,0,1-2.25.55c-1.85,0-2.59-1.17-2.59-2.92,0-2.14,1.26-3.28,2.89-3.28C91,123.22,91.58,124,91.58,124.92Zm-1.37,0a.71.71,0,0,0-.74-.76c-1.06,0-1.35,1.08-1.37,2.06C89.62,126.16,90.21,125.49,90.21,124.92Z"/><path d="M96.45,127.67a1.91,1.91,0,0,1-2.09,1.79,5.38,5.38,0,0,1-2.13-.58l.44-1a4,4,0,0,0,1.57.58c.57,0,.83-.24.83-.61s-.3-.78-.89-1c-1.22-.45-1.72-1-1.72-1.94a1.86,1.86,0,0,1,2-1.68,4.64,4.64,0,0,1,1.86.47l-.4.93a4,4,0,0,0-1.42-.39c-.36,0-.67.18-.67.53s.31.8,1,1.06C95.85,126.21,96.45,126.65,96.45,127.67Z"/><path d="M101.4,127.67a1.91,1.91,0,0,1-2.09,1.79,5.46,5.46,0,0,1-2.14-.58l.45-1a3.91,3.91,0,0,0,1.57.58c.56,0,.83-.24.83-.61s-.3-.78-.89-1c-1.23-.45-1.73-1-1.73-1.94a1.86,1.86,0,0,1,2-1.68,4.64,4.64,0,0,1,1.86.47l-.41.93a4,4,0,0,0-1.42-.39c-.36,0-.67.18-.67.53s.31.8,1,1.06C100.8,126.21,101.4,126.65,101.4,127.67Z"/><path d="M109.46,125.43c0-.67-.18-1.09-.7-1.09a1.65,1.65,0,0,0-1.32,1.81v3.19h-1.35v-3.91c0-.67-.18-1.09-.7-1.09s-1.31.76-1.31,2v3h-1.36v-3a4,4,0,0,0-.59-2.56l1.08-.43a2.55,2.55,0,0,1,.59,1.29,2.09,2.09,0,0,1,2-1.35,1.45,1.45,0,0,1,1.46,1.11,2.09,2.09,0,0,1,1.91-1.11c1.25,0,1.64.83,1.64,2.06v4h-1.35Z"/><path d="M116.85,124.92c0,1.16-1.33,2.14-3.44,2.16.08.75.38,1.36,1.33,1.36a5.61,5.61,0,0,0,1.7-.42l.36.85a5.39,5.39,0,0,1-2.25.55c-1.85,0-2.59-1.17-2.59-2.92,0-2.14,1.26-3.28,2.89-3.28C116.27,123.22,116.85,124,116.85,124.92Zm-1.37,0a.71.71,0,0,0-.74-.76c-1.06,0-1.34,1.08-1.37,2.06C114.9,126.16,115.48,125.49,115.48,124.92Z"/><path d="M121.71,125.46c0-.67-.22-1.11-.79-1.11-.72,0-1.45.77-1.45,2v3H118.1v-3a4,4,0,0,0-.59-2.56l1.08-.43a2.37,2.37,0,0,1,.59,1.29,2.23,2.23,0,0,1,2.13-1.35c1.24,0,1.76.8,1.76,2.06v4h-1.36Z"/><path d="M125,123.37l.24-1.41,1.13-.25v1.66h1.47l-.17,1h-1.3v3.55c0,.4.26.49.54.49a3.25,3.25,0,0,0,.93-.17l.23.9a4.11,4.11,0,0,1-1.53.28c-.89,0-1.54-.36-1.54-1.35v-3.7h-1.08v-1Z"/><path d="M129.73,129.47a.84.84,0,0,1-.88-.89.86.86,0,0,1,.91-.92.82.82,0,0,1,.87.9A.85.85,0,0,1,129.73,129.47Z"/><path d="M139.82,128.56v-.17a2.19,2.19,0,0,1-2,1c-2,0-2.85-1.62-2.85-4s1.12-4.28,3.55-4.28a3,3,0,0,1,2.2.85l-.69.91a2.5,2.5,0,0,0-1.68-.66c-1.37,0-1.84,1.37-1.84,3.06s.45,3,1.59,3a1.73,1.73,0,0,0,1.6-1.82v-1.1h1.41V129a3,3,0,0,1-2.14,3l-.55-.95A2.34,2.34,0,0,0,139.82,128.56Z"/><path d="M147,124.92c0,1.16-1.33,2.14-3.44,2.16.09.75.39,1.36,1.33,1.36a5.71,5.71,0,0,0,1.71-.42l.36.85a5.47,5.47,0,0,1-2.26.55c-1.85,0-2.59-1.17-2.59-2.92,0-2.14,1.26-3.28,2.89-3.28C146.42,123.22,147,124,147,124.92Zm-1.36,0a.71.71,0,0,0-.75-.76c-1,0-1.34,1.08-1.36,2.06C145,126.16,145.63,125.49,145.63,124.92Z"/><path d="M148.44,123.37l.24-1.41,1.12-.25v1.66h1.48l-.17,1H149.8v3.55c0,.4.27.49.54.49a3.27,3.27,0,0,0,.94-.17l.23.9a4.14,4.14,0,0,1-1.54.28c-.89,0-1.53-.36-1.53-1.35v-3.7h-1.08v-1Z"/><path d="M160.81,129l-1.07.43a2.25,2.25,0,0,1-.61-1.47,1.77,1.77,0,0,1-1.87,1.45c-1.5,0-2.21-1.18-2.21-3a2.91,2.91,0,0,1,2.86-3.17,10.92,10.92,0,0,1,2.32.35v2.83A4.06,4.06,0,0,0,160.81,129Zm-1.95-4.64a3.25,3.25,0,0,0-.79-.13c-1.2,0-1.55.87-1.55,2.09s.09,2.13,1,2.13,1.38-1.19,1.38-2.36Z"/><path d="M168.62,128a1.76,1.76,0,0,1-1.87,1.45c-1.5,0-2.21-1.18-2.21-3a2.91,2.91,0,0,1,2.87-3.17,8,8,0,0,1,.94.08v-2.71l1.37.24v5.57a4,4,0,0,0,.58,2.55l-1.07.43A2.2,2.2,0,0,1,168.62,128Zm-.27-3.6a3.25,3.25,0,0,0-.79-.13c-1.2,0-1.54.87-1.54,2.09s.08,2.12,1,2.12,1.37-1.18,1.37-2.35Z"/><path d="M175.87,124.92c0,1.16-1.34,2.14-3.45,2.16.09.75.39,1.36,1.34,1.36a5.7,5.7,0,0,0,1.7-.42l.36.85a5.47,5.47,0,0,1-2.26.55c-1.84,0-2.59-1.17-2.59-2.92,0-2.14,1.26-3.28,2.89-3.28C175.29,123.22,175.87,124,175.87,124.92Zm-1.37,0a.71.71,0,0,0-.74-.76c-1.06,0-1.35,1.08-1.37,2.06C173.91,126.16,174.5,125.49,174.5,124.92Z"/><path d="M177.31,123.37l.24-1.41,1.13-.25v1.66h1.47l-.17,1h-1.3v3.55c0,.4.26.49.54.49a3.25,3.25,0,0,0,.93-.17l.23.9a4.14,4.14,0,0,1-1.54.28c-.88,0-1.53-.36-1.53-1.35v-3.7h-1.08v-1Z"/><path d="M186.62,129l-1.07.43a2.25,2.25,0,0,1-.61-1.47,1.76,1.76,0,0,1-1.87,1.45c-1.5,0-2.21-1.18-2.21-3a2.91,2.91,0,0,1,2.87-3.17,10.79,10.79,0,0,1,2.31.35v2.83A4.06,4.06,0,0,0,186.62,129Zm-2-4.64a3.25,3.25,0,0,0-.79-.13c-1.2,0-1.54.87-1.54,2.09s.08,2.13,1,2.13,1.37-1.19,1.37-2.36Z"/><path d="M188.28,122.36a.77.77,0,0,1-.81-.81.78.78,0,0,1,.84-.85.75.75,0,0,1,.79.82A.77.77,0,0,1,188.28,122.36Zm-.68,1H189v4.54c0,.36.11.47.34.47a2.57,2.57,0,0,0,.31,0l.14.87a1.75,1.75,0,0,1-.85.17A1.25,1.25,0,0,1,187.6,128Z"/><path d="M190.66,120.88l1.37-.25v7.28c0,.36.15.49.42.49a2.61,2.61,0,0,0,.64-.09l.17.86a3.4,3.4,0,0,1-1.26.22,1.24,1.24,0,0,1-1.34-1.35Z"/><path d="M198.75,124.92c0,1.16-1.33,2.14-3.44,2.16.08.75.38,1.36,1.33,1.36a5.7,5.7,0,0,0,1.7-.42l.36.85a5.39,5.39,0,0,1-2.25.55c-1.85,0-2.59-1.17-2.59-2.92,0-2.14,1.26-3.28,2.89-3.28C198.17,123.22,198.75,124,198.75,124.92Zm-1.37,0a.71.71,0,0,0-.74-.76c-1.06,0-1.34,1.08-1.37,2.06C196.79,126.16,197.38,125.49,197.38,124.92Z"/><path d="M203.61,128a1.75,1.75,0,0,1-1.87,1.45c-1.5,0-2.21-1.18-2.21-3a2.91,2.91,0,0,1,2.87-3.17,8.3,8.3,0,0,1,.95.08v-2.71l1.36.24v5.57a4,4,0,0,0,.58,2.55l-1.07.43A2.2,2.2,0,0,1,203.61,128Zm-.26-3.6a3.34,3.34,0,0,0-.8-.13c-1.19,0-1.54.87-1.54,2.09s.08,2.12,1,2.12,1.38-1.18,1.38-2.35Z"/><path d="M213,123.41l-.38,1.33a1.2,1.2,0,0,0-.59-.13,1.36,1.36,0,0,0-1.2,1.44v3.29h-1.37v-3a4,4,0,0,0-.59-2.56l1.08-.43a2.41,2.41,0,0,1,.58,1.26,1.74,1.74,0,0,1,1.73-1.31A2.48,2.48,0,0,1,213,123.41Z"/><path d="M218.35,124.92c0,1.16-1.34,2.14-3.45,2.16.09.75.39,1.36,1.33,1.36a5.71,5.71,0,0,0,1.71-.42l.36.85a5.47,5.47,0,0,1-2.26.55c-1.84,0-2.59-1.17-2.59-2.92,0-2.14,1.26-3.28,2.89-3.28C217.77,123.22,218.35,124,218.35,124.92Zm-1.37,0a.71.71,0,0,0-.75-.76c-1,0-1.34,1.08-1.36,2.06C216.39,126.16,217,125.49,217,124.92Z"/><path d="M219.6,126.32a4,4,0,0,0-.59-2.56l1.08-.43a2.51,2.51,0,0,1,.6,1.4,1.76,1.76,0,0,1,1.88-1.46c1.5,0,2.19,1.17,2.19,3a2.9,2.9,0,0,1-2.86,3.17c-.3,0-.63,0-.94-.07v2.41l-1.36.24Zm1.36,2a3.33,3.33,0,0,0,.78.13c1.21,0,1.56-.88,1.56-2.09s-.08-2.13-1-2.13-1.38,1.19-1.38,2.36Z"/><path d="M228.25,129.46c-1.84,0-2.63-1.15-2.63-3.05s.9-3.19,2.73-3.19,2.63,1.15,2.63,3.06S230.08,129.46,228.25,129.46Zm.12-1c.92,0,1.14-.9,1.14-2s-.24-2.17-1.28-2.17-1.14.9-1.14,2.06S227.33,128.45,228.37,128.45Z"/><path d="M235.83,123.41l-.38,1.33a1.2,1.2,0,0,0-.59-.13,1.36,1.36,0,0,0-1.2,1.44v3.29h-1.37v-3a4,4,0,0,0-.59-2.56l1.08-.43a2.41,2.41,0,0,1,.58,1.26,1.74,1.74,0,0,1,1.73-1.31A2.48,2.48,0,0,1,235.83,123.41Z"/><path d="M237.15,123.37l.24-1.41,1.13-.25v1.66H240l-.16,1h-1.31v3.55c0,.4.26.49.54.49a3.25,3.25,0,0,0,.93-.17l.23.9a4.05,4.05,0,0,1-1.53.28c-.89,0-1.54-.36-1.54-1.35v-3.7h-1.08v-1Z"/><path d="M246.39,129.46c-1.84,0-2.63-1.15-2.63-3.05s.9-3.19,2.74-3.19,2.62,1.15,2.62,3.06S248.22,129.46,246.39,129.46Zm.12-1c.92,0,1.14-.9,1.14-2s-.24-2.17-1.27-2.17-1.14.9-1.14,2.06S245.48,128.45,246.51,128.45Z"/><path d="M252.91,121.73a.86.86,0,0,0-.92,1,2.85,2.85,0,0,0,.1.68h1.49l-.17,1h-1.25V129a3,3,0,0,1-2.06,3l-.55-.91a1.94,1.94,0,0,0,1.24-1.93v-4.83h-1.07v-1h1a3.25,3.25,0,0,1-.09-.74,2,2,0,0,1,2.14-1.95,1.63,1.63,0,0,1,1.26.5l-.59.78A1.18,1.18,0,0,0,252.91,121.73Z"/><path d="M258,123.37l.24-1.41,1.13-.25v1.66h1.47l-.16,1H259.4v3.55c0,.4.26.49.54.49a3.25,3.25,0,0,0,.93-.17l.23.9a4.05,4.05,0,0,1-1.53.28c-.89,0-1.54-.36-1.54-1.35v-3.7H257v-1Z"/><path d="M265.17,123.27c1.23,0,1.75.79,1.75,2.06v4h-1.37v-3.91c0-.67-.21-1.09-.79-1.09a1.72,1.72,0,0,0-1.45,1.83v3.17h-1.37v-8.46l1.37-.24v3.49A2.25,2.25,0,0,1,265.17,123.27Z"/><path d="M273,124.92c0,1.16-1.33,2.14-3.45,2.16.09.75.39,1.36,1.34,1.36a5.7,5.7,0,0,0,1.7-.42l.36.85a5.47,5.47,0,0,1-2.26.55c-1.84,0-2.59-1.17-2.59-2.92,0-2.14,1.26-3.28,2.89-3.28C272.38,123.22,273,124,273,124.92Zm-1.37,0a.71.71,0,0,0-.74-.76c-1.06,0-1.35,1.08-1.37,2.06C271,126.16,271.59,125.49,271.59,124.92Z"/><path d="M280.56,121.22l3.14,8.12h-1.53l-.74-2.13H278.5l-.77,2.13h-1.41l3.12-8.12Zm-.58,1.59c-.22.71-.6,2-1.09,3.35h2.17C280.55,124.73,280.17,123.47,280,122.81Z"/><path d="M288.15,127.67a1.91,1.91,0,0,1-2.09,1.79,5.38,5.38,0,0,1-2.13-.58l.44-1a3.91,3.91,0,0,0,1.57.58c.57,0,.83-.24.83-.61s-.3-.78-.89-1c-1.22-.45-1.73-1-1.73-1.94a1.87,1.87,0,0,1,2-1.68,4.64,4.64,0,0,1,1.86.47l-.41.93a4,4,0,0,0-1.41-.39c-.36,0-.67.18-.67.53s.31.8,1,1.06C287.55,126.21,288.15,126.65,288.15,127.67Z"/><path d="M293.09,127.67a1.91,1.91,0,0,1-2.08,1.79,5.39,5.39,0,0,1-2.14-.58l.44-1a4,4,0,0,0,1.58.58c.56,0,.82-.24.82-.61s-.3-.78-.88-1c-1.23-.45-1.73-1-1.73-1.94a1.86,1.86,0,0,1,2-1.68,4.63,4.63,0,0,1,1.85.47l-.4.93a4,4,0,0,0-1.42-.39c-.36,0-.67.18-.67.53s.31.8,1,1.06C292.49,126.21,293.09,126.65,293.09,127.67Z"/><path d="M298.84,124.92c0,1.16-1.33,2.14-3.44,2.16.08.75.38,1.36,1.33,1.36a5.7,5.7,0,0,0,1.7-.42l.36.85a5.39,5.39,0,0,1-2.25.55c-1.85,0-2.59-1.17-2.59-2.92,0-2.14,1.26-3.28,2.89-3.28C298.26,123.22,298.84,124,298.84,124.92Zm-1.37,0a.71.71,0,0,0-.74-.76c-1.06,0-1.34,1.08-1.37,2.06C296.88,126.16,297.47,125.49,297.47,124.92Z"/><path d="M303.71,127.67a1.91,1.91,0,0,1-2.08,1.79,5.39,5.39,0,0,1-2.14-.58l.44-1a4,4,0,0,0,1.58.58c.56,0,.82-.24.82-.61s-.3-.78-.88-1c-1.23-.45-1.73-1-1.73-1.94a1.86,1.86,0,0,1,2-1.68,4.64,4.64,0,0,1,1.86.47l-.4.93a4,4,0,0,0-1.42-.39c-.36,0-.67.18-.67.53s.31.8,1,1.06C303.11,126.21,303.71,126.65,303.71,127.67Z"/><path d="M308.66,127.67a1.91,1.91,0,0,1-2.09,1.79,5.52,5.52,0,0,1-2.14-.58l.45-1a3.91,3.91,0,0,0,1.57.58c.56,0,.83-.24.83-.61s-.3-.78-.89-1c-1.22-.45-1.73-1-1.73-1.94a1.87,1.87,0,0,1,2-1.68,4.64,4.64,0,0,1,1.86.47l-.41.93a4,4,0,0,0-1.42-.39c-.36,0-.67.18-.67.53s.31.8,1,1.06C308.06,126.21,308.66,126.65,308.66,127.67Z"/><path d="M313.08,125v1h-3.39v-1Z"/><path d="M76.75,139.83c0-.67-.18-1.09-.7-1.09a1.65,1.65,0,0,0-1.32,1.81v3.19H73.38v-3.91c0-.67-.18-1.09-.7-1.09s-1.31.76-1.31,2v3H70v-3a4,4,0,0,0-.59-2.56l1.08-.43a2.55,2.55,0,0,1,.59,1.29,2.07,2.07,0,0,1,2-1.35,1.45,1.45,0,0,1,1.46,1.11,2.08,2.08,0,0,1,1.91-1.11c1.25,0,1.64.83,1.64,2.06v4H76.75Z"/><path d="M84.14,139.32c0,1.16-1.33,2.14-3.44,2.16.08.75.38,1.36,1.33,1.36a5.7,5.7,0,0,0,1.7-.42l.36.85a5.39,5.39,0,0,1-2.25.55c-1.85,0-2.59-1.17-2.59-2.92,0-2.14,1.26-3.28,2.89-3.28C83.56,137.62,84.14,138.36,84.14,139.32Zm-1.37,0a.71.71,0,0,0-.74-.76c-1.06,0-1.34,1.08-1.37,2.06C82.18,140.56,82.77,139.89,82.77,139.32Z"/><path d="M89,139.86c0-.67-.22-1.11-.79-1.11s-1.45.77-1.45,2v3H85.39v-3a4,4,0,0,0-.59-2.56l1.08-.43a2.37,2.37,0,0,1,.59,1.29,2.22,2.22,0,0,1,2.13-1.35c1.24,0,1.76.8,1.76,2.06v4H89Z"/><path d="M92.29,137.77l.24-1.41,1.13-.25v1.66h1.47l-.17,1h-1.3v3.55c0,.4.26.49.54.49a3.25,3.25,0,0,0,.93-.17l.23.9a4.14,4.14,0,0,1-1.54.28c-.88,0-1.53-.36-1.53-1.35v-3.7H91.21v-1Z"/><text class="cls-10" transform="translate(146.89 92.86)">T<tspan class="cls-11" x="8.42" y="0">e</tspan><tspan class="cls-12" x="16.69" y="0">s</tspan><tspan x="23.98" y="0">ting </tspan><tspan class="cls-13" x="59.67" y="0">P</tspan><tspan x="68.2" y="0">hase</tspan></text><text class="cls-14" transform="translate(377.85 183.51)">Schedule a call w<tspan class="cls-15" x="88.55" y="0">i</tspan><tspan x="91.57" y="0">th our expe</tspan><tspan class="cls-16" x="149.33" y="0">r</tspan><tspan x="153.87" y="0">t career </tspan><tspan class="cls-17" x="195.88" y="0">c</tspan><tspan x="200.68" y="0">ounsel</tspan><tspan class="cls-18" x="234.18" y="0">l</tspan><tspan x="237.49" y="0">or </tspan><tspan class="cls-19" x="0" y="14.4">a</tspan><tspan x="6.19" y="14.4">nd un</tspan><tspan class="cls-18" x="35.45" y="14.4">l</tspan><tspan x="38.76" y="14.4">ock your potential</tspan></text><text class="cls-10" transform="translate(444.56 158.52)"><tspan class="cls-20">U</tspan><tspan x="11.18" y="0">n</tspan><tspan class="cls-21" x="21.11" y="0">l</tspan><tspan class="cls-22" x="26.28" y="0">ocking </tspan><tspan class="cls-13" x="81.81" y="0">P</tspan><tspan x="90.34" y="0">hase</tspan></text><path d="M74.78,268.18v1.08h-3.4v2.26h2.8l-.18,1.1H71.38v2.6H75v1.08H70v-8.12Z"/><path d="M81,276.3H79.47l-.89-1.55-.46-.87-.47.88-.9,1.54H75.21l2-3.17-1.75-2.8h1.58l.75,1.23c.1.16.28.54.44.88.19-.29.38-.59.52-.86a6.83,6.83,0,0,0,.54-1.25h1.42a9.4,9.4,0,0,1-.65,1.47,7.58,7.58,0,0,1-1,1.34Z"/><path d="M81.92,273.28a4,4,0,0,0-.59-2.56l1.08-.43a2.51,2.51,0,0,1,.6,1.4,1.77,1.77,0,0,1,1.89-1.46c1.49,0,2.19,1.17,2.19,3a2.9,2.9,0,0,1-2.87,3.17c-.3,0-.62,0-.93-.07v2.41l-1.37.24Zm1.37,2a3.24,3.24,0,0,0,.78.13c1.21,0,1.56-.88,1.56-2.09s-.09-2.13-1-2.13-1.38,1.19-1.38,2.36Z"/><path d="M92.84,271.88c0,1.16-1.33,2.14-3.44,2.16.08.75.38,1.36,1.33,1.36a5.7,5.7,0,0,0,1.7-.42l.36.85a5.39,5.39,0,0,1-2.25.55c-1.85,0-2.59-1.17-2.59-2.92,0-2.14,1.25-3.28,2.89-3.28C92.26,270.18,92.84,270.93,92.84,271.88Zm-1.37,0a.71.71,0,0,0-.74-.76c-1.06,0-1.35,1.08-1.37,2.06C90.88,273.12,91.47,272.45,91.47,271.88Z"/><path d="M97.63,270.37l-.39,1.33a1.1,1.1,0,0,0-.58-.13,1.36,1.36,0,0,0-1.2,1.44v3.29H94.09v-3a4,4,0,0,0-.59-2.56l1.08-.43a2.51,2.51,0,0,1,.58,1.26,1.74,1.74,0,0,1,1.72-1.31A2.5,2.5,0,0,1,97.63,270.37Z"/><path d="M99,269.32a.76.76,0,0,1-.8-.81.78.78,0,0,1,.84-.85.75.75,0,0,1,.79.82A.78.78,0,0,1,99,269.32Zm-.67,1h1.37v4.54c0,.36.11.47.33.47a2.84,2.84,0,0,0,.32,0l.14.87a1.8,1.8,0,0,1-.85.17A1.25,1.25,0,0,1,98.36,275Z"/><path d="M106,271.88c0,1.16-1.33,2.14-3.44,2.16.09.75.39,1.36,1.33,1.36a5.71,5.71,0,0,0,1.71-.42l.36.85a5.47,5.47,0,0,1-2.26.55c-1.85,0-2.59-1.17-2.59-2.92,0-2.14,1.26-3.28,2.89-3.28C105.44,270.18,106,270.93,106,271.88Zm-1.36,0a.71.71,0,0,0-.75-.76c-1.05,0-1.34,1.08-1.36,2.06C104.06,273.12,104.65,272.45,104.65,271.88Z"/><path d="M110.87,272.42c0-.67-.21-1.11-.79-1.11s-1.45.77-1.45,2v3h-1.37v-3a4,4,0,0,0-.58-2.56l1.08-.43a2.4,2.4,0,0,1,.58,1.29,2.24,2.24,0,0,1,2.14-1.35c1.23,0,1.75.8,1.75,2.06v4h-1.36Z"/><path d="M116.12,271.24c-.49,0-1.26.16-1.26,2s.75,2.12,1.32,2.12a4.32,4.32,0,0,0,1.17-.24l.34.86a3.68,3.68,0,0,1-1.69.36c-1.85,0-2.62-1.17-2.62-2.92,0-2.11,1.2-3.28,2.75-3.28a1.87,1.87,0,0,1,1.62.82l-.77.73A1.08,1.08,0,0,0,116.12,271.24Z"/><path d="M123.2,271.88c0,1.16-1.33,2.14-3.44,2.16.08.75.38,1.36,1.33,1.36a5.7,5.7,0,0,0,1.7-.42l.36.85a5.41,5.41,0,0,1-2.26.55c-1.84,0-2.59-1.17-2.59-2.92,0-2.14,1.26-3.28,2.89-3.28C122.62,270.18,123.2,270.93,123.2,271.88Zm-1.37,0a.71.71,0,0,0-.74-.76c-1.06,0-1.35,1.08-1.37,2.06C121.24,273.12,121.83,272.45,121.83,271.88Z"/><path d="M132.8,276l-1.07.43a2.25,2.25,0,0,1-.61-1.47,1.76,1.76,0,0,1-1.87,1.45c-1.5,0-2.21-1.18-2.21-3a2.91,2.91,0,0,1,2.87-3.17,10.79,10.79,0,0,1,2.31.35v2.83A4.06,4.06,0,0,0,132.8,276Zm-2-4.64a3.25,3.25,0,0,0-.79-.13c-1.2,0-1.54.87-1.54,2.09s.08,2.13.95,2.13,1.38-1.19,1.38-2.36Z"/><path d="M137.31,272.42c0-.67-.22-1.11-.79-1.11-.72,0-1.45.77-1.45,2v3H133.7v-3a4,4,0,0,0-.59-2.56l1.08-.43a2.37,2.37,0,0,1,.59,1.29,2.23,2.23,0,0,1,2.13-1.35c1.24,0,1.76.8,1.76,2.06v4h-1.36Z"/><path d="M147.77,271.88c0,1.16-1.33,2.14-3.44,2.16.09.75.39,1.36,1.33,1.36a5.71,5.71,0,0,0,1.71-.42l.36.85a5.47,5.47,0,0,1-2.26.55c-1.85,0-2.59-1.17-2.59-2.92,0-2.14,1.26-3.28,2.89-3.28C147.2,270.18,147.77,270.93,147.77,271.88Zm-1.36,0a.71.71,0,0,0-.75-.76c-1,0-1.34,1.08-1.36,2.06C145.82,273.12,146.41,272.45,146.41,271.88Z"/><path d="M153.89,276.3h-1.56l-.88-1.55-.47-.87-.47.88-.9,1.54h-1.53l2-3.17-1.75-2.8h1.58l.76,1.23c.09.16.27.54.43.88.19-.29.38-.59.53-.86a7.83,7.83,0,0,0,.54-1.25h1.41a9.4,9.4,0,0,1-.65,1.47,7.12,7.12,0,0,1-1,1.34Z"/><path d="M154.78,273.28a4,4,0,0,0-.58-2.56l1.08-.43a2.51,2.51,0,0,1,.6,1.4,1.75,1.75,0,0,1,1.88-1.46c1.5,0,2.19,1.17,2.19,3a2.9,2.9,0,0,1-2.86,3.17c-.3,0-.63,0-.94-.07v2.41l-1.37.24Zm1.37,2a3.33,3.33,0,0,0,.78.13c1.21,0,1.56-.88,1.56-2.09s-.08-2.13-1-2.13-1.38,1.19-1.38,2.36Z"/><path d="M165.7,271.88c0,1.16-1.33,2.14-3.44,2.16.08.75.38,1.36,1.33,1.36a5.61,5.61,0,0,0,1.7-.42l.36.85a5.39,5.39,0,0,1-2.25.55c-1.85,0-2.59-1.17-2.59-2.92,0-2.14,1.26-3.28,2.89-3.28C165.13,270.18,165.7,270.93,165.7,271.88Zm-1.37,0a.71.71,0,0,0-.74-.76c-1.06,0-1.34,1.08-1.37,2.06C163.75,273.12,164.33,272.45,164.33,271.88Z"/><path d="M170.49,270.37l-.38,1.33a1.2,1.2,0,0,0-.59-.13,1.36,1.36,0,0,0-1.2,1.44v3.29H167v-3a4,4,0,0,0-.59-2.56l1.08-.43a2.51,2.51,0,0,1,.58,1.26,1.74,1.74,0,0,1,1.73-1.31A2.48,2.48,0,0,1,170.49,270.37Z"/><path d="M171.89,269.32a.76.76,0,0,1-.8-.81.78.78,0,0,1,.84-.85.75.75,0,0,1,.79.82A.78.78,0,0,1,171.89,269.32Zm-.67,1h1.37v4.54c0,.36.11.47.34.47a2.57,2.57,0,0,0,.31,0l.14.87a1.8,1.8,0,0,1-.85.17,1.25,1.25,0,0,1-1.31-1.36Z"/><path d="M181.19,272.39c0-.67-.18-1.09-.69-1.09a1.65,1.65,0,0,0-1.32,1.81v3.19h-1.36v-3.91c0-.67-.18-1.09-.69-1.09s-1.31.76-1.31,2v3h-1.37v-3a4,4,0,0,0-.59-2.56l1.08-.43a2.45,2.45,0,0,1,.59,1.29,2.1,2.1,0,0,1,2-1.35,1.46,1.46,0,0,1,1.47,1.12,2.07,2.07,0,0,1,1.9-1.12c1.25,0,1.65.83,1.65,2.06v4h-1.36Z"/><path d="M188.58,271.88c0,1.16-1.33,2.14-3.44,2.16.09.75.39,1.36,1.33,1.36a5.71,5.71,0,0,0,1.71-.42l.36.85a5.47,5.47,0,0,1-2.26.55c-1.85,0-2.59-1.17-2.59-2.92,0-2.14,1.26-3.28,2.89-3.28C188,270.18,188.58,270.93,188.58,271.88Zm-1.36,0a.71.71,0,0,0-.75-.76c-1.05,0-1.34,1.08-1.36,2.06C186.63,273.12,187.22,272.45,187.22,271.88Z"/><path d="M193.44,272.42c0-.67-.21-1.11-.79-1.11s-1.45.77-1.45,2v3h-1.37v-3a4,4,0,0,0-.58-2.56l1.08-.43a2.4,2.4,0,0,1,.58,1.29,2.25,2.25,0,0,1,2.14-1.35c1.23,0,1.75.8,1.75,2.06v4h-1.36Z"/><path d="M196.73,270.33l.24-1.41,1.13-.25v1.66h1.48l-.17,1H198.1v3.55c0,.4.27.49.54.49a3.27,3.27,0,0,0,.94-.17l.22.9a4,4,0,0,1-1.53.28c-.89,0-1.54-.36-1.54-1.35v-3.7h-1.08v-1Z"/><path d="M206,276l-1.06.43a2.23,2.23,0,0,1-.62-1.47,1.75,1.75,0,0,1-1.87,1.45c-1.5,0-2.2-1.18-2.2-3a2.91,2.91,0,0,1,2.86-3.17,10.92,10.92,0,0,1,2.32.35v2.83A4.11,4.11,0,0,0,206,276Zm-1.94-4.64a3.33,3.33,0,0,0-.79-.13c-1.2,0-1.55.87-1.55,2.09s.09,2.13,1,2.13,1.38-1.19,1.38-2.36Z"/><path d="M207,267.84l1.37-.25v7.28c0,.36.14.49.42.49a2.58,2.58,0,0,0,.63-.09l.17.86a3.34,3.34,0,0,1-1.26.22A1.23,1.23,0,0,1,207,275Z"/><path d="M219,276l-1.07.43a2.25,2.25,0,0,1-.61-1.47,1.76,1.76,0,0,1-1.87,1.45c-1.5,0-2.21-1.18-2.21-3a2.91,2.91,0,0,1,2.87-3.17,10.79,10.79,0,0,1,2.31.35v2.83A4.06,4.06,0,0,0,219,276Zm-1.95-4.64a3.25,3.25,0,0,0-.79-.13c-1.2,0-1.54.87-1.54,2.09s.08,2.13,1,2.13,1.37-1.19,1.37-2.36Z"/><path d="M223.54,272.42c0-.67-.22-1.11-.79-1.11-.72,0-1.45.77-1.45,2v3h-1.37v-3a4,4,0,0,0-.59-2.56l1.08-.43a2.37,2.37,0,0,1,.59,1.29,2.23,2.23,0,0,1,2.13-1.35c1.24,0,1.76.8,1.76,2.06v4h-1.36Z"/><path d="M230.13,274.92a1.76,1.76,0,0,1-1.87,1.45c-1.5,0-2.21-1.18-2.21-3a2.91,2.91,0,0,1,2.87-3.17,8.13,8.13,0,0,1,.94.08V267.6l1.37.24v5.57a4,4,0,0,0,.58,2.55l-1.07.43A2.2,2.2,0,0,1,230.13,274.92Zm-.27-3.6a3.25,3.25,0,0,0-.79-.13c-1.2,0-1.54.87-1.54,2.09s.08,2.12,1,2.12,1.37-1.18,1.37-2.35Z"/><path d="M238.48,268.69a.86.86,0,0,0-.91,1,2.41,2.41,0,0,0,.1.68h1.48l-.17,1h-1.24V276a3,3,0,0,1-2.07,3l-.55-.91a2,2,0,0,0,1.25-1.93V271.3h-1.08v-1h1a3.22,3.22,0,0,1-.08-.74,2,2,0,0,1,2.13-1.95,1.61,1.61,0,0,1,1.26.5l-.58.78A1.18,1.18,0,0,0,238.48,268.69Z"/><path d="M244.68,270.33v3.08a4.06,4.06,0,0,0,.58,2.55l-1.07.43a2.27,2.27,0,0,1-.6-1.33,2.23,2.23,0,0,1-2.13,1.31c-1.26,0-1.75-.79-1.75-2.06v-4h1.36v3.95c0,.66.22,1.08.8,1.08s1.45-.84,1.45-2.11v-2.92Z"/><path d="M250.07,272.42c0-.67-.21-1.11-.79-1.11s-1.45.77-1.45,2v3h-1.37v-3a4,4,0,0,0-.59-2.56l1.08-.43a2.37,2.37,0,0,1,.59,1.29,2.24,2.24,0,0,1,2.14-1.35c1.23,0,1.75.8,1.75,2.06v4h-1.36Z"/><path d="M263.93,271.55c0,3.55-.73,4.83-2.94,4.83a1.55,1.55,0,0,1-1.59-1c-.29.66-.72,1-1.71,1-1.24,0-1.75-.77-1.75-2v-4h1.37v3.9c0,.68.22,1.17.79,1.17.74,0,1.15-.66,1.15-2.33v-2.74h1.36s0,3.14,0,3.9.24,1.17.82,1.17c1.11,0,1.15-1.88,1.15-3.71a7.84,7.84,0,0,0-.13-1.36h1.39A6.8,6.8,0,0,1,263.93,271.55Z"/><path d="M270.65,276l-1.07.43a2.25,2.25,0,0,1-.61-1.47,1.75,1.75,0,0,1-1.87,1.45c-1.5,0-2.21-1.18-2.21-3a2.91,2.91,0,0,1,2.87-3.17,10.92,10.92,0,0,1,2.32.35v2.83A4.11,4.11,0,0,0,270.65,276Zm-1.94-4.64a3.33,3.33,0,0,0-.79-.13c-1.2,0-1.55.87-1.55,2.09s.08,2.13,1,2.13,1.38-1.19,1.38-2.36Z"/><path d="M276.93,276.38a2.23,2.23,0,0,1-2.4,2.52,5.75,5.75,0,0,1-2.2-.5l.34-1a5.12,5.12,0,0,0,1.74.47c.89,0,1.27-.6,1.27-1.44a3.2,3.2,0,0,0-.24-1.19,2.23,2.23,0,0,1-2.06,1.18c-1.26,0-1.75-.79-1.75-2.06v-4H273v3.94c0,.66.22,1.08.8,1.08a1.72,1.72,0,0,0,1.43-1.77v-3.25h1.41l-.06,3.55C276.56,274.83,276.93,275.42,276.93,276.38Z"/><path d="M283.47,276.42c-1.84,0-2.63-1.15-2.63-3.05s.9-3.19,2.74-3.19,2.62,1.15,2.62,3.06S285.3,276.42,283.47,276.42Zm.12-1c.92,0,1.14-.9,1.14-2.05s-.24-2.17-1.27-2.17-1.14.9-1.14,2.06S282.56,275.41,283.59,275.41Z"/><path d="M290,268.69a.86.86,0,0,0-.92,1,2.85,2.85,0,0,0,.1.68h1.49l-.17,1h-1.25V276a3,3,0,0,1-2.06,3l-.55-.91a1.94,1.94,0,0,0,1.24-1.93V271.3H286.8v-1h1a3.25,3.25,0,0,1-.09-.74,2,2,0,0,1,2.14-1.95,1.63,1.63,0,0,1,1.26.5l-.59.78A1.18,1.18,0,0,0,290,268.69Z"/><path d="M298.42,274.63a1.91,1.91,0,0,1-2.09,1.79,5.38,5.38,0,0,1-2.13-.58l.44-1a3.91,3.91,0,0,0,1.57.58c.57,0,.83-.24.83-.61s-.3-.78-.89-1c-1.22-.45-1.72-1-1.72-1.94a1.86,1.86,0,0,1,2-1.68,4.64,4.64,0,0,1,1.86.47l-.41.93a4,4,0,0,0-1.41-.39c-.36,0-.67.18-.67.53s.31.8,1,1.06C297.82,273.17,298.42,273.61,298.42,274.63Z"/><path d="M301,271a2.24,2.24,0,0,1,1.85-.8,1.6,1.6,0,0,1,1.76,1.58,2,2,0,0,1-1.44,1.82l1.68,2.68H303.3l-1.72-3v-.12c.26-.06,1.65-.43,1.65-1.29a.67.67,0,0,0-.74-.71,1.49,1.49,0,0,0-1.48,1.26v3.85h-1.37v-8.46l1.37-.24Z"/><path d="M306.5,269.32a.77.77,0,0,1-.81-.81.78.78,0,0,1,.84-.85.76.76,0,0,1,.8.82A.78.78,0,0,1,306.5,269.32Zm-.67,1h1.36v4.54c0,.36.11.47.34.47a2.57,2.57,0,0,0,.31,0l.15.87a1.82,1.82,0,0,1-.86.17,1.24,1.24,0,0,1-1.3-1.36Z"/><path d="M308.89,267.84l1.36-.25v7.28c0,.36.15.49.42.49a2.61,2.61,0,0,0,.64-.09l.17.86a3.34,3.34,0,0,1-1.26.22,1.23,1.23,0,0,1-1.33-1.35Z"/><path d="M312.38,267.84l1.37-.25v7.28c0,.36.14.49.42.49a2.58,2.58,0,0,0,.63-.09l.17.86a3.34,3.34,0,0,1-1.26.22,1.23,1.23,0,0,1-1.33-1.35Z"/><path d="M319.14,272v1h-3.39v-1Z"/><path d="M70.52,283.72a.76.76,0,0,1-.8-.81.78.78,0,0,1,.84-.85.75.75,0,0,1,.79.82A.78.78,0,0,1,70.52,283.72Zm-.67,1h1.37v4.54c0,.36.1.47.33.47l.31,0,.15.86a1.8,1.8,0,0,1-.85.17,1.25,1.25,0,0,1-1.31-1.36Z"/><path d="M76.69,286.82c0-.67-.22-1.11-.79-1.11-.72,0-1.45.77-1.45,2v3H73.08v-3a4,4,0,0,0-.59-2.56l1.08-.43a2.37,2.37,0,0,1,.59,1.29,2.23,2.23,0,0,1,2.13-1.35c1.24,0,1.75.8,1.75,2.06v4H76.69Z"/><path d="M82.2,292.22c.88,0,1.27-.6,1.27-1.44a3.32,3.32,0,0,0-.27-1.26,1.71,1.71,0,0,1-1.8,1.25c-1.49,0-2.2-1.17-2.2-3a2.91,2.91,0,0,1,2.86-3.17,11.35,11.35,0,0,1,2.35.35l0,3.3c0,1,.35,1.54.35,2.5a2.23,2.23,0,0,1-2.39,2.52,5.81,5.81,0,0,1-2.2-.5l.34-1.05A5.06,5.06,0,0,0,82.2,292.22Zm.81-6.5a3.25,3.25,0,0,0-.79-.13c-1.2,0-1.55.87-1.55,2.09s.09,2.13,1,2.13S83,288.7,83,287.54Z"/><path d="M96.92,286c0,3.55-.73,4.83-2.94,4.83a1.58,1.58,0,0,1-1.6-1c-.28.66-.72,1-1.7,1-1.25,0-1.75-.76-1.75-2v-4H90.3v3.91c0,.67.21,1.16.79,1.16.74,0,1.15-.66,1.15-2.33v-2.74H93.6s0,3.14,0,3.91.24,1.16.82,1.16c1.11,0,1.15-1.88,1.15-3.71a7.84,7.84,0,0,0-.13-1.36H96.8A6.8,6.8,0,0,1,96.92,286Z"/><path d="M98.87,283.72a.77.77,0,0,1-.81-.81.78.78,0,0,1,.84-.85.75.75,0,0,1,.79.82A.78.78,0,0,1,98.87,283.72Zm-.68,1h1.37v4.54c0,.36.11.47.34.47l.31,0,.14.86a1.8,1.8,0,0,1-.85.17,1.25,1.25,0,0,1-1.31-1.36Z"/><path d="M101.69,284.73l.24-1.41,1.12-.25v1.66h1.48l-.17,1h-1.31v3.55c0,.4.27.49.54.49a3.27,3.27,0,0,0,.94-.17l.23.9a4.14,4.14,0,0,1-1.54.28c-.89,0-1.53-.36-1.53-1.35v-3.7h-1.08v-1Z"/><path d="M108.82,284.63c1.24,0,1.75.79,1.75,2.06v4h-1.36v-3.91c0-.67-.22-1.09-.79-1.09a1.72,1.72,0,0,0-1.45,1.83v3.17H105.6v-8.46L107,282v3.49A2.23,2.23,0,0,1,108.82,284.63Z"/><path d="M115.56,284.73l.24-1.41,1.12-.25v1.66h1.48l-.17,1h-1.31v3.55c0,.4.27.49.54.49a3.27,3.27,0,0,0,.94-.17l.23.9a4.14,4.14,0,0,1-1.54.28c-.88,0-1.53-.36-1.53-1.35v-3.7h-1.08v-1Z"/><path d="M122.7,284.63c1.23,0,1.75.79,1.75,2.06v4h-1.37v-3.91c0-.67-.22-1.09-.79-1.09a1.72,1.72,0,0,0-1.45,1.83v3.17h-1.37v-8.46l1.37-.24v3.49A2.24,2.24,0,0,1,122.7,284.63Z"/><path d="M130.48,286.28c0,1.16-1.33,2.14-3.44,2.16.09.75.38,1.36,1.33,1.36a5.71,5.71,0,0,0,1.71-.42l.36.85a5.47,5.47,0,0,1-2.26.55c-1.85,0-2.59-1.17-2.59-2.92,0-2.14,1.26-3.28,2.89-3.28C129.91,284.58,130.48,285.33,130.48,286.28Zm-1.36,0a.71.71,0,0,0-.75-.76c-1.05,0-1.34,1.08-1.36,2.06C128.53,287.52,129.12,286.85,129.12,286.28Z"/><path d="M137.91,284.63c1.24,0,1.75.79,1.75,2.06v4H138.3v-3.91c0-.67-.22-1.09-.8-1.09a1.72,1.72,0,0,0-1.45,1.83v3.17h-1.36v-8.46l1.36-.24v3.49A2.25,2.25,0,0,1,137.91,284.63Z"/><path d="M145.7,286.28c0,1.16-1.33,2.14-3.44,2.16.08.75.38,1.36,1.33,1.36a5.7,5.7,0,0,0,1.7-.42l.36.85a5.39,5.39,0,0,1-2.25.55c-1.85,0-2.59-1.17-2.59-2.92,0-2.14,1.26-3.28,2.89-3.28C145.12,284.58,145.7,285.33,145.7,286.28Zm-1.37,0a.71.71,0,0,0-.74-.76c-1.06,0-1.35,1.08-1.37,2.06C143.74,287.52,144.33,286.85,144.33,286.28Z"/><path d="M146.78,282.24l1.37-.25v7.28c0,.36.14.49.42.49a2.58,2.58,0,0,0,.63-.09l.17.86a3.34,3.34,0,0,1-1.26.22,1.23,1.23,0,0,1-1.33-1.35Z"/><path d="M150.44,287.68a4,4,0,0,0-.59-2.56l1.08-.43a2.51,2.51,0,0,1,.6,1.4,1.77,1.77,0,0,1,1.89-1.46c1.49,0,2.19,1.18,2.19,3a2.9,2.9,0,0,1-2.87,3.17c-.3,0-.62,0-.93-.07v2.41l-1.37.24Zm1.37,2a3.24,3.24,0,0,0,.78.13c1.21,0,1.56-.87,1.56-2.09s-.09-2.13-1-2.13-1.38,1.19-1.38,2.36Z"/><path d="M162.15,290.82c-1.83,0-2.62-1.15-2.62-3.05s.89-3.19,2.73-3.19,2.63,1.15,2.63,3.06S164,290.82,162.15,290.82Zm.12-1c.93,0,1.14-.9,1.14-2.05s-.24-2.17-1.27-2.17-1.14.9-1.14,2.06S161.24,289.81,162.27,289.81Z"/><path d="M168.67,283.09a.86.86,0,0,0-.91,1,2.76,2.76,0,0,0,.09.68h1.49l-.17,1h-1.25v4.7a3,3,0,0,1-2.06,3l-.55-.91a2,2,0,0,0,1.25-1.93V285.7h-1.08v-1h1a3.22,3.22,0,0,1-.08-.74,1.94,1.94,0,0,1,2.13-1.95,1.61,1.61,0,0,1,1.26.5l-.59.78A1.13,1.13,0,0,0,168.67,283.09Z"/><path d="M175.64,290.82c-1.84,0-2.63-1.15-2.63-3.05s.9-3.19,2.74-3.19,2.62,1.15,2.62,3.06S177.47,290.82,175.64,290.82Zm.12-1c.92,0,1.14-.9,1.14-2.05s-.24-2.17-1.27-2.17-1.14.9-1.14,2.06S174.73,289.81,175.76,289.81Z"/><path d="M184.49,284.73v3.08a4.06,4.06,0,0,0,.58,2.55l-1.07.43a2.27,2.27,0,0,1-.6-1.33,2.23,2.23,0,0,1-2.13,1.31c-1.26,0-1.75-.79-1.75-2.06v-4h1.36v3.95c0,.66.22,1.08.8,1.08s1.45-.84,1.45-2.11v-2.92Z"/><path d="M189.81,284.77l-.38,1.33a1.2,1.2,0,0,0-.59-.13,1.36,1.36,0,0,0-1.2,1.44v3.29h-1.37v-3a4,4,0,0,0-.59-2.56l1.08-.43a2.41,2.41,0,0,1,.58,1.26,1.74,1.74,0,0,1,1.73-1.31A2.48,2.48,0,0,1,189.81,284.77Z"/><path d="M198.19,286.28c0,1.16-1.34,2.14-3.45,2.16.09.75.39,1.36,1.33,1.36a5.71,5.71,0,0,0,1.71-.42l.36.85a5.47,5.47,0,0,1-2.26.55c-1.84,0-2.59-1.17-2.59-2.92,0-2.14,1.26-3.28,2.89-3.28C197.61,284.58,198.19,285.33,198.19,286.28Zm-1.37,0a.71.71,0,0,0-.75-.76c-1,0-1.34,1.08-1.36,2.06C196.23,287.52,196.82,286.85,196.82,286.28Z"/><path d="M204.31,290.7h-1.56l-.89-1.55-.47-.87-.47.88-.9,1.54h-1.53l2-3.17-1.75-2.8h1.58l.76,1.23c.09.16.28.54.43.88.19-.29.38-.59.53-.86a7.83,7.83,0,0,0,.54-1.25H204a9.85,9.85,0,0,1-.64,1.47,7.62,7.62,0,0,1-1,1.34Z"/><path d="M205.2,287.68a4,4,0,0,0-.59-2.56l1.08-.43a2.51,2.51,0,0,1,.6,1.4,1.76,1.76,0,0,1,1.88-1.46c1.5,0,2.19,1.18,2.19,3a2.9,2.9,0,0,1-2.86,3.17c-.3,0-.63,0-.94-.07v2.41l-1.36.24Zm1.36,2a3.33,3.33,0,0,0,.78.13c1.21,0,1.56-.87,1.56-2.09s-.08-2.13-1-2.13-1.38,1.19-1.38,2.36Z"/><path d="M216.11,286.28c0,1.16-1.33,2.14-3.44,2.16.09.75.38,1.36,1.33,1.36a5.71,5.71,0,0,0,1.71-.42l.36.85a5.47,5.47,0,0,1-2.26.55c-1.85,0-2.59-1.17-2.59-2.92,0-2.14,1.26-3.28,2.89-3.28C215.54,284.58,216.11,285.33,216.11,286.28Zm-1.36,0a.71.71,0,0,0-.75-.76c-1.05,0-1.34,1.08-1.37,2.06C214.16,287.52,214.75,286.85,214.75,286.28Z"/><path d="M220.9,284.77l-.38,1.33a1.16,1.16,0,0,0-.59-.13,1.36,1.36,0,0,0-1.2,1.44v3.29h-1.37v-3a4,4,0,0,0-.58-2.56l1.08-.43a2.45,2.45,0,0,1,.57,1.26,1.74,1.74,0,0,1,1.73-1.31A2.48,2.48,0,0,1,220.9,284.77Z"/><path d="M222.22,284.73l.24-1.41,1.13-.25v1.66h1.48l-.17,1h-1.31v3.55c0,.4.26.49.54.49a3.27,3.27,0,0,0,.94-.17l.22.9a4.05,4.05,0,0,1-1.53.28c-.89,0-1.54-.36-1.54-1.35v-3.7h-1.08v-1Z"/><path d="M236,286.79c0-.67-.18-1.09-.69-1.09a1.65,1.65,0,0,0-1.32,1.81v3.19h-1.36v-3.91c0-.67-.18-1.09-.69-1.09s-1.31.76-1.31,2v3H229.3v-3a4,4,0,0,0-.58-2.56l1.07-.43a2.45,2.45,0,0,1,.59,1.29,2.1,2.1,0,0,1,2-1.35,1.46,1.46,0,0,1,1.47,1.12,2.07,2.07,0,0,1,1.91-1.12c1.24,0,1.64.83,1.64,2.06v4H236Z"/><path d="M243.44,286.28c0,1.16-1.33,2.14-3.45,2.16.09.75.39,1.36,1.34,1.36a5.7,5.7,0,0,0,1.7-.42l.36.85a5.47,5.47,0,0,1-2.26.55c-1.84,0-2.59-1.17-2.59-2.92,0-2.14,1.26-3.28,2.89-3.28C242.86,284.58,243.44,285.33,243.44,286.28Zm-1.37,0a.71.71,0,0,0-.74-.76c-1.06,0-1.35,1.08-1.37,2.06C241.48,287.52,242.07,286.85,242.07,286.28Z"/><path d="M248.3,286.82c0-.67-.22-1.11-.79-1.11s-1.46.77-1.46,2v3h-1.36v-3a4,4,0,0,0-.59-2.56l1.08-.43a2.45,2.45,0,0,1,.59,1.29,2.23,2.23,0,0,1,2.13-1.35c1.24,0,1.75.8,1.75,2.06v4H248.3Z"/><path d="M251.59,284.73l.24-1.41,1.12-.25v1.66h1.48l-.17,1H253v3.55c0,.4.27.49.54.49a3.27,3.27,0,0,0,.94-.17l.23.9a4.14,4.14,0,0,1-1.54.28c-.89,0-1.53-.36-1.53-1.35v-3.7h-1.08v-1Z"/><path d="M257.59,290.82c-1.84,0-2.63-1.15-2.63-3.05s.9-3.19,2.73-3.19,2.63,1.15,2.63,3.06S259.42,290.82,257.59,290.82Zm.12-1c.92,0,1.13-.9,1.13-2.05s-.23-2.17-1.27-2.17-1.14.9-1.14,2.06S256.67,289.81,257.71,289.81Z"/><path d="M265.17,284.77l-.38,1.33a1.2,1.2,0,0,0-.59-.13,1.36,1.36,0,0,0-1.2,1.44v3.29h-1.37v-3a4,4,0,0,0-.59-2.56l1.08-.43a2.51,2.51,0,0,1,.58,1.26,1.74,1.74,0,0,1,1.73-1.31A2.48,2.48,0,0,1,265.17,284.77Z"/><path d="M269.68,289a1.91,1.91,0,0,1-2.09,1.79,5.38,5.38,0,0,1-2.13-.58l.44-1a3.91,3.91,0,0,0,1.57.58c.57,0,.83-.24.83-.61s-.3-.78-.89-1c-1.22-.45-1.72-1-1.72-1.94a1.86,1.86,0,0,1,2-1.68,4.64,4.64,0,0,1,1.86.47l-.41.93a4,4,0,0,0-1.41-.39c-.36,0-.67.18-.67.53s.31.8,1,1.06C269.08,287.57,269.68,288,269.68,289Z"/><text class="cls-10" transform="translate(123.19 252.85)">Experime<tspan class="cls-23" x="71.78" y="0">n</tspan><tspan class="cls-22" x="81.36" y="0">tal </tspan><tspan class="cls-24" x="107.08" y="0">P</tspan><tspan x="115.61" y="0">hase</tspan></text><text class="cls-14" transform="translate(377.85 375.77)">Register <tspan class="cls-25" x="44.45" y="0">f</tspan><tspan x="48.31" y="0">or various Webinars </tspan><tspan class="cls-26" x="154.03" y="0">a</tspan><tspan x="160.22" y="0">nd events </tspan><tspan class="cls-18" x="212.86" y="0">t</tspan><tspan x="217.02" y="0">o </tspan><tspan x="0" y="14.4">exp</tspan><tspan class="cls-18" x="17.93" y="14.4">l</tspan><tspan x="21.24" y="14.4">ore more about the industry</tspan></text><text class="cls-10" transform="translate(446.3 352.19)">Exp<tspan class="cls-27" x="27.81" y="0">l</tspan><tspan x="32.98" y="0">oring </tspan><tspan class="cls-13" x="78.32" y="0">P</tspan><tspan x="86.85" y="0">hase</tspan></text><text class="cls-14" transform="translate(69.12 462.31)">Be<tspan class="cls-11" x="12.46" y="0">c</tspan><tspan x="17.26" y="0">ome a pa</tspan><tspan class="cls-28" x="64.32" y="0">r</tspan><tspan x="68.87" y="0">t of yhe jaw d</tspan><tspan class="cls-25" x="139.52" y="0">r</tspan><tspan x="143.59" y="0">opping </tspan><tspan class="cls-11" x="181.87" y="0">c</tspan><tspan x="186.67" y="0">ommun</tspan><tspan class="cls-15" x="225.47" y="0">i</tspan><tspan x="228.49" y="0">ty of </tspan><tspan x="0" y="14.4">industry expe</tspan><tspan class="cls-28" x="69.5" y="14.4">r</tspan><tspan x="74.05" y="14.4">ts </tspan><tspan class="cls-26" x="86.39" y="14.4">a</tspan><tspan x="92.58" y="14.4">nd grab unlim</tspan><tspan class="cls-15" x="164.78" y="14.4">i</tspan><tspan x="167.81" y="14.4">ted internship </tspan><tspan x="0" y="28.8">oppo</tspan><tspan class="cls-28" x="25.39" y="28.8">r</tspan><tspan x="29.94" y="28.8">tun</tspan><tspan class="cls-29" x="47.45" y="28.8">i</tspan><tspan x="50.47" y="28.8">ties in your field of study.</tspan></text><text class="cls-10" transform="translate(113.13 439.95)">Impleme<tspan class="cls-12" x="66.38" y="0">n</tspan><tspan x="75.96" y="0">t</tspan><tspan class="cls-30" x="82.73" y="0">a</tspan><tspan class="cls-22" x="92.1" y="0">tion </tspan><tspan class="cls-24" x="127.19" y="0">P</tspan><tspan x="135.72" y="0">hase</tspan></text><line class="cls-31" x1="351.51" y1="106.24" x2="355.51" y2="106.24"/><line class="cls-32" x1="363.1" y1="106.24" x2="480.66" y2="106.24"/><line class="cls-31" x1="484.46" y1="106.24" x2="488.46" y2="106.24"/><line class="cls-33" x1="488.46" y1="106.24" x2="488.46" y2="109.74"/><line class="cls-34" x1="488.46" y1="118.29" x2="488.46" y2="131.12"/><line class="cls-33" x1="488.46" y1="135.39" x2="488.46" y2="138.89"/><polygon class="cls-4" points="480.28 132.26 481.74 130.9 488.45 138.12 495.17 130.9 496.63 132.26 488.45 141.06 480.28 132.26"/><line class="cls-33" x1="351.51" y1="300.92" x2="355.01" y2="300.92"/><line class="cls-35" x1="361.85" y1="300.92" x2="481.54" y2="300.92"/><line class="cls-33" x1="484.96" y1="300.92" x2="488.46" y2="300.92"/><line class="cls-33" x1="488.46" y1="300.92" x2="488.46" y2="304.42"/><line class="cls-34" x1="488.46" y1="312.97" x2="488.46" y2="325.8"/><line class="cls-33" x1="488.46" y1="330.07" x2="488.46" y2="333.57"/><polygon class="cls-4" points="480.28 326.95 481.74 325.58 488.45 332.81 495.17 325.58 496.63 326.95 488.45 335.74 480.28 326.95"/><line class="cls-33" x1="199.57" y1="378.53" x2="203.07" y2="378.53"/><line class="cls-36" x1="209.97" y1="378.53" x2="344.56" y2="378.53"/><line class="cls-33" x1="348.01" y1="378.53" x2="351.51" y2="378.53"/><line class="cls-33" x1="199.57" y1="378.53" x2="199.57" y2="382.03"/><line class="cls-34" x1="199.57" y1="390.58" x2="199.57" y2="403.41"/><line class="cls-33" x1="199.57" y1="407.68" x2="199.57" y2="411.18"/><polygon class="cls-4" points="191.39 404.56 192.85 403.19 199.57 410.42 206.28 403.19 207.75 404.56 199.57 413.35 191.39 404.56"/><line class="cls-33" x1="196.57" y1="188.49" x2="200.07" y2="188.49"/><line class="cls-37" x1="207.11" y1="188.49" x2="344.49" y2="188.49"/><line class="cls-33" x1="348.01" y1="188.49" x2="351.51" y2="188.49"/><line class="cls-33" x1="196.57" y1="188.49" x2="196.57" y2="191.99"/><line class="cls-34" x1="196.57" y1="200.54" x2="196.57" y2="213.36"/><line class="cls-33" x1="196.57" y1="217.64" x2="196.57" y2="221.14"/><polygon class="cls-4" points="188.39 214.51 189.85 213.15 196.57 220.37 203.28 213.15 204.75 214.51 196.57 223.31 188.39 214.51"/><text class="cls-5" transform="translate(208.24 555.77)">Dawn of <tspan class="cls-38" x="113.22" y="0">y</tspan><tspan x="129.27" y="0">our career</tspan></text><circle class="cls-39" cx="27.1" cy="26.86" r="1.7"/><circle class="cls-39" cx="34.95" cy="30.55" r="1.07"/><circle class="cls-39" cx="42.22" cy="33.78" r="0.77"/><circle class="cls-39" cx="78.31" cy="26.86" r="1.7"/><circle class="cls-39" cx="70.46" cy="30.55" r="1.07"/><circle class="cls-39" cx="63.19" cy="33.78" r="0.77"/><ellipse class="cls-39" cx="53.49" cy="84.64" rx="9.12" ry="1.04"/><polygon class="cls-39" points="85.92 78.88 24.3 78.46 24.92 36.23 86.55 37.14 85.92 78.88"/><line class="cls-40" x1="12.06" y1="91.22" x2="92.85" y2="91.22"/><line class="cls-40" x1="12.06" y1="24.4" x2="92.85" y2="24.4"/><polygon class="cls-41" points="92.85 24.53 62.6 36.75 62.6 78.44 92.85 91.24 92.85 24.53"/><line class="cls-42" x1="65.12" y1="69.52" x2="86.84" y2="74.57"/><line class="cls-42" x1="65.12" y1="66.23" x2="86.84" y2="69.52"/><line class="cls-42" x1="65.12" y1="62.74" x2="86.84" y2="65.06"/><polygon class="cls-43" points="84.13 50.9 84.13 55.94 66.67 54.78 66.67 50.9 84.13 50.9"/><polygon class="cls-44" points="84.13 50.9 84.13 55.94 66.67 54.78 66.67 54.58 83.74 55.55 83.74 50.9 84.13 50.9"/><polygon class="cls-41" points="12.05 24.53 42.3 36.75 42.3 78.44 12.05 91.24 12.05 24.53"/><line class="cls-42" x1="39.78" y1="69.52" x2="18.06" y2="74.57"/><line class="cls-42" x1="39.78" y1="66.23" x2="18.06" y2="69.52"/><line class="cls-42" x1="39.78" y1="62.74" x2="18.06" y2="65.06"/><polygon class="cls-43" points="20.78 50.9 20.78 55.94 38.23 54.78 38.23 50.9 20.78 50.9"/><polygon class="cls-44" points="20.78 50.9 20.78 55.94 38.23 54.78 38.23 54.58 21.16 55.55 21.16 50.9 20.78 50.9"/><line class="cls-40" x1="45.12" y1="40.13" x2="60.29" y2="40.31"/><polygon class="cls-45" points="45.73 40.9 45.86 40.77 45.19 40.13 45.88 39.51 45.75 39.37 44.92 40.12 45.73 40.9"/><polygon class="cls-45" points="59.66 41.07 59.53 40.93 60.22 40.31 59.55 39.67 59.68 39.54 60.5 40.32 59.66 41.07"/><circle class="cls-45" cx="52.71" cy="40.22" r="1.27"/><path class="cls-46" d="M51,80.55a7.66,7.66,0,0,0-.23,2.07,14.35,14.35,0,0,1,.11,1.85h.35V83.09a2.54,2.54,0,0,1,1.15,1.15c.23.69,2.66.46,2.77.23S54,83.78,54,83.78l-1-3.12Z"/><path class="cls-46" d="M50.2,66.93a17.28,17.28,0,0,1,.58,2.88c0,.81-.46,11.2,0,11.2s2.31.23,2.42-.23-.23-4.73,0-5.2,1.85-10.27,1.73-10.38S50.78,64.73,50.2,66.93Z"/><path class="cls-45" d="M50,65s-1,2.77-.12,2.77,1.5-.81,2.2-.58,2.77-2.66,2.77-2.66Z"/><circle class="cls-47" cx="54.3" cy="51.52" r="1.85"/><path class="cls-47" d="M55.22,52.1s-.81,2.65-.58,3S52.45,55,52.45,55a10.68,10.68,0,0,0,.69-2.65C53,51.87,55.22,52.1,55.22,52.1Z"/><path class="cls-43" d="M53.89,53.89s-1-.35-1.38,0-1.62,8.54-2.43,9.34-1.38,2-.69,2.08,6.35.81,6.58.46A20,20,0,0,0,56,61.21C55.91,60.41,55.05,54,53.89,53.89Z"/><polygon class="cls-47" points="52.97 65.31 53.43 66.47 54.47 65.66 54.35 64.85 52.97 65.31"/><path class="cls-48" d="M52.45,55.79s-.06-1.44-.75.4-2.19,4.27-.92,6.12,1.3,2.65,1.9,2.6,2.48.63,2.48.4S53,61.5,53,61.5a2.09,2.09,0,0,1,.58-1.84C54.35,58.85,54,56.14,52.45,55.79Z"/><path class="cls-43" d="M53.2,54.35s-1.27-.23-2,1.61-2.19,4.27-.92,6.12,1.91,3.69,2.51,3.63,1.87-.4,1.87-.63-2.19-3.81-2.19-3.81a2.09,2.09,0,0,1,.58-1.84C53.89,58.62,54.7,54.69,53.2,54.35Z"/><path class="cls-46" d="M53.72,48.76A2.59,2.59,0,0,0,51.31,50a6.72,6.72,0,0,0-.85,2.72,3,3,0,0,1-.2.84c-.22.52-.74.92-.83,1.49a3.26,3.26,0,0,0,.15,1.07A3.94,3.94,0,0,1,49,58.92a1.34,1.34,0,0,1-1,.75l.9.15a1.56,1.56,0,0,1-.74.76,4.57,4.57,0,0,0,4-4.36,1.88,1.88,0,0,1,.17-.95,2,2,0,0,1,.67-.52,3.19,3.19,0,0,0,1.65-2.28,9,9,0,0,0,0-1.27c0-.45.73-.75.83-1.18C55.61,49.37,54.32,48.84,53.72,48.76Z"/><path class="cls-49" d="M645.29,110.25c-2.52,5.19-7.64,8.67-12.94,11A49.18,49.18,0,0,1,609.61,125c-1.36-.09-2.71-.24-4.06-.43a51.41,51.41,0,0,1-13.58-4c-1.25-.56-2.47-1.17-3.67-1.84a47.81,47.81,0,0,1-5.73-3.75c-.45-.34-.9-.7-1.35-1.07l-.92-.76a11.59,11.59,0,0,0-2.08-1.42c-.23-.11-.46-.22-.69-.31a12.28,12.28,0,0,0-7.6.15c-1.88.53-3.72,1.27-5.6,1.79a18,18,0,0,1-2.55.54,13.55,13.55,0,0,1-5.73-.5l-.16,0-.79-.27-.15-.06c-.26-.1-.5-.21-.75-.32l-.15-.07-.75-.37-.26-.14a16,16,0,0,1-3.71-2.89l-.09-.1c-.15-.16-.3-.33-.44-.5a1.46,1.46,0,0,1-.16-.19c-.17-.2-.34-.42-.49-.63a.61.61,0,0,1-.07-.1,13.15,13.15,0,0,1-1.6-2.89l0-.09c-.12-.33-.24-.66-.34-1a3.31,3.31,0,0,1-.12-.42.5.5,0,0,1,0-.13,25.79,25.79,0,0,1-.58-6.33v-.74a71.31,71.31,0,0,1,.58-10.34.15.15,0,0,1,0-.07,32.49,32.49,0,0,1,.69-3.4,23.63,23.63,0,0,1,1.17-3.44,31.59,31.59,0,0,1,4.75-7.57c4.75-5.83,11-10.73,18.29-12.56a26.91,26.91,0,0,1,22.94,5c1.93,1.54,3.67,3.37,5.84,4.55a7.29,7.29,0,0,0,6.15.64,9.54,9.54,0,0,1,4.65-.9,39.1,39.1,0,0,1,11.41,2.39l.44.17a39.92,39.92,0,0,1,22,20.23l.33.75C647.17,97.5,648.09,104.46,645.29,110.25Z"/><ellipse class="cls-49" cx="549.82" cy="127.08" rx="8.37" ry="1.34"/><ellipse class="cls-49" cx="624.89" cy="134.28" rx="14.84" ry="1.44"/><rect class="cls-50" x="549.43" y="68.21" width="90.08" height="51.03" rx="1.18"/><rect class="cls-51" x="549.57" y="68.93" width="89.8" height="50.14" rx="1.18"/><rect class="cls-51" x="549.57" y="68.93" width="89.8" height="50.14" rx="1.18"/><rect class="cls-52" x="549.57" y="68.93" width="89.8" height="50.14" rx="1.18"/><path class="cls-53" d="M638.92,68.35H550a.46.46,0,0,0-.46.46v1.93h89.8V68.81A.46.46,0,0,0,638.92,68.35Z"/><g id="_6c975d28-8d47-4ade-9154-b3b78f637b65" data-name="6c975d28-8d47-4ade-9154-b3b78f637b65"><circle class="cls-51" cx="551.36" cy="69.55" r="0.62"/><circle class="cls-51" cx="553.02" cy="69.55" r="0.62"/><circle class="cls-51" cx="554.68" cy="69.55" r="0.62"/></g><rect class="cls-54" x="556.97" y="75.22" width="24.1" height="2.05"/><rect class="cls-55" x="556.97" y="83.42" width="75.01" height="31.47"/><path class="cls-48" d="M600.89,85.47H599.6V83a5.13,5.13,0,1,0-10.26-.11v2.6h-1.28a2.16,2.16,0,0,0-2.14,2.14V97.87a2.16,2.16,0,0,0,2.14,2.14h12.83A2.14,2.14,0,0,0,603,97.87V87.61A2.14,2.14,0,0,0,600.89,85.47Zm-5.67,6.67v3.68a.75.75,0,1,1-1.49.05V92.14a1.71,1.71,0,1,1,2.28-.79,1.68,1.68,0,0,1-.79.79Zm2.89-6.67h-7.27V82.91a3.64,3.64,0,0,1,7.27,0Z"/><path class="cls-43" d="M600.89,85.28H599.6V82.79a5.13,5.13,0,1,0-10.26-.11v2.6h-1.28a2.16,2.16,0,0,0-2.14,2.14V97.68a2.16,2.16,0,0,0,2.14,2.14h12.83A2.14,2.14,0,0,0,603,97.68V87.42A2.14,2.14,0,0,0,600.89,85.28ZM595.22,92v3.68a.77.77,0,0,1-.71.77.76.76,0,0,1-.78-.72V92a1.71,1.71,0,1,1,2.28-.79,1.68,1.68,0,0,1-.79.79Zm2.89-6.67h-7.27V82.72a3.64,3.64,0,0,1,7.27,0Z"/><rect class="cls-55" x="624.39" y="80.39" width="7.59" height="1.79"/><path class="cls-56" d="M634.56,134.71a2.68,2.68,0,0,0-.25-.72l-1.14-1.7h0a2.84,2.84,0,0,1,0-1.27c.18-.42-.64-1.45-.64-1.45a.61.61,0,0,1,.16-.58c.26-.32-.16-1.25-.16-1.25s-.2-1.95-.22-2.25-.18-1.94-.18-1.94l-.38-3.5-.67-9.27,0-.17.13-.07-.13-5.12.11-.11c1-.92,3.37-3,3.34-3.1s-.28-3.56-.31-4.44a5.46,5.46,0,0,0-.4-1.82,11.79,11.79,0,0,1-.3-1.21c0-.08,0-.14,0-.14a5.32,5.32,0,0,1-.63-1.91c.06-.6.18-1-1.29-1.25a5.59,5.59,0,0,1-2-.69,5.56,5.56,0,0,0-1.4-.7s-.42-.76-.7-.5a4.2,4.2,0,0,1-.27-.85v0a2.82,2.82,0,0,0,1.1-1.58l0-.11.09,0c.25,0,.4-.28.63-.37a.62.62,0,0,0,.29-.12.24.24,0,0,0,.06-.2v-.11h0c-.06-.35-.33-.65-.3-1s.32-.62.29-.94v-.08h0a.84.84,0,0,0-.19-.33,1.23,1.23,0,0,0-.39-.33,3.93,3.93,0,0,1-.41-.14c-.36-.2-.36-.71-.58-1.06a1,1,0,0,0-.88-.44c-.27,0-.51.17-.78.22a2.16,2.16,0,0,1-1.08-.19,2.84,2.84,0,0,0-1.06-.29.9.9,0,0,0-.88.54c-.06.19,0,.4-.08.59a1.27,1.27,0,0,1-.69.75c-.19.1-.41.23-.47.42h0a.09.09,0,0,0,0,0V84a1.15,1.15,0,0,0,.12.4,1,1,0,0,1,0,.76c-.07.18-.19.34-.25.52a.77.77,0,0,0-.07.26v.1a.79.79,0,0,0,.1.4.74.74,0,0,0,.42.36c.19,0,.31-.14.51-.09a.23.23,0,0,1,.11,0,.69.69,0,0,0,0,.13,2.77,2.77,0,0,0,1,1.62s0,0,0,.07h0a6.29,6.29,0,0,1,.08,1.15s-.3-.44-.71.4a8.55,8.55,0,0,1-1.44.69c-.37.07-1.67.52-1.67.52a1.13,1.13,0,0,1-.68.22c-.41,0-.75.9-.7,1.38s0,.85-.41.87-.17.79-.17.8l0,.17a11.3,11.3,0,0,1-.29,1.18,5.17,5.17,0,0,0-.4,1.82c0,.88-.29,4.38-.32,4.44s1.59,1.51,2.72,2.53l.17.15-.52,4.86a1.28,1.28,0,0,0,.53.95v.17a6.57,6.57,0,0,1-.16,1.44,9.67,9.67,0,0,0-.12,2,30.29,30.29,0,0,1-.36,3.85,2.62,2.62,0,0,0-.18,1.33c.06.16-.2,4.33-.2,4.33l-.2,1.87s.06,1.79-.12,1.83-.28,1.27-.28,1.27-.64.87-.36,1.19,0,.46-.07.54-.61.38-.19,1.49c0,0,0,0,0,0a11.79,11.79,0,0,0-1.56,2.57.77.77,0,0,0,.33.4,2,2,0,0,0,1.6,0c1.33-.43,1.23-.74,1.23-.74a.56.56,0,0,1,.56-.53,1.57,1.57,0,0,0,1-.55l-.07-.24-.08-.33c0-.1.07-.26.38-.35s.33-1,.33-1,0-.91.16-1,.12-1.63.12-1.63a11.24,11.24,0,0,1,.54-1.83,40.1,40.1,0,0,0,.7-5.1,20.34,20.34,0,0,1,.5-2.77,15.45,15.45,0,0,0,.46-2.34,20.44,20.44,0,0,0,1.5-3.5s.19-.59.38.06.72,2.23.72,2.23l.52,1.92.62,2.89.4,2.42a3.88,3.88,0,0,0,.09,1.23c.16.32.38,1,.26,1.19s.24.8.34.94,0,3.08,0,3.08.46,2.5,1.12,2.94a.61.61,0,0,0,.14.07,7.43,7.43,0,0,0,0,.82.27.27,0,0,0,0,.13,3.49,3.49,0,0,0,.88.62c.14,0,.63.34.65.51a5.57,5.57,0,0,0,1.67.91c.2,0,1.19.19,1.32-.08A.39.39,0,0,0,634.56,134.71ZM631,98.91l.1.08s.11.82.18,1.07a2,2,0,0,1,0,.72,1.5,1.5,0,0,0,.1.52c.09.18-.18.57-.18.57H631l-.07-3.07Zm-7.13-9.17v0Zm-3.68,11.82a.33.33,0,0,1,0-.26.58.58,0,0,0,0-.14,2.38,2.38,0,0,0,.06-.37h0a2,2,0,0,1,0-.72c.07-.23.18-1.06.18-1.06l.07-.06.16-.14a1.16,1.16,0,0,1,0-.13,11.68,11.68,0,0,1,0,1.55,2.34,2.34,0,0,0-.3.89,3.59,3.59,0,0,1-.07.73A2.44,2.44,0,0,1,620.22,101.56Z"/><path class="cls-57" d="M627.86,90.5v1.18l-2.42,1.21s-2.41-1.45-1.81-2c.38-.36.3-1.37.2-2.06h0c-.06-.4-.13-.69-.13-.69s4.32-1.24,3.66-.3a1.52,1.52,0,0,0-.16,1.12A5.11,5.11,0,0,0,627.86,90.5Z"/><path class="cls-45" d="M621.23,102l-.31,3.84-1.07-1c-1.13-1-2.72-2.49-2.7-2.53s.28-3.54.31-4.42a5.4,5.4,0,0,1,.4-1.81,10.41,10.41,0,0,0,.29-1.17l0-.18.53-.21s2.18,2.44,2.18,2.48-.15,1.91-.15,1.91l-.16.14-.06.06s-.11.81-.18,1.06a1.75,1.75,0,0,0,0,.71h0a1.58,1.58,0,0,1-.05.38.78.78,0,0,1,0,.14.36.36,0,0,0,0,.25,1.54,1.54,0,0,0,.17.31Z"/><path class="cls-45" d="M634.44,102.37s-2.3,2.17-3.31,3.09l-.46.41-.3-3.84h.8s.26-.39.17-.56a1.84,1.84,0,0,1-.1-.52,2.13,2.13,0,0,0,0-.72,10.07,10.07,0,0,1-.18-1.06l-.1-.09-.12-.1s-.15-1.87-.15-1.92,2.18-2.47,2.18-2.47l.52.2s0,.06,0,.15c.07.32.23,1.09.29,1.2a5.17,5.17,0,0,1,.4,1.81C634.16,98.83,634.41,102.31,634.44,102.37Z"/><path class="cls-45" d="M634.45,135c-.14.28-1.12.1-1.32.08a5.23,5.23,0,0,1-1.65-.9c0-.17-.51-.51-.65-.51A3.66,3.66,0,0,1,630,133a.59.59,0,0,1,0-.13c0-.32,0-1.16,0-1.16l2.87.16,1.39,2.09a2.68,2.68,0,0,1,.25.72A.46.46,0,0,1,634.45,135Z"/><path class="cls-48" d="M634.45,135c-.14.28-1.12.1-1.32.08a5.23,5.23,0,0,1-1.65-.9c0-.17-.51-.51-.65-.51A3.66,3.66,0,0,1,630,133a.59.59,0,0,1,0-.13c0-.32,0-1.16,0-1.16l2.87.16,1.39,2.09a2.68,2.68,0,0,1,.25.72A.46.46,0,0,1,634.45,135Z"/><path class="cls-48" d="M634.45,135c-.14.28-1.12.1-1.32.08a5.23,5.23,0,0,1-1.65-.9c0-.17-.51-.51-.65-.51A3.66,3.66,0,0,1,630,133a.59.59,0,0,1,0-.13l.93.59a4.12,4.12,0,0,1,.75.6,5,5,0,0,0,1.51.7,8.1,8.1,0,0,1,1.34-.08A.46.46,0,0,1,634.45,135Z"/><path class="cls-45" d="M620.9,133.24a1.57,1.57,0,0,1-.95.55.56.56,0,0,0-.56.53s.1.31-1.21.73a1.88,1.88,0,0,1-1.58,0,.67.67,0,0,1-.33-.39c-.09-.32,1.66-2.72,1.66-2.72l1.59-.1,1.14.52.18.65Z"/><path class="cls-48" d="M620.9,133.24a1.57,1.57,0,0,1-.95.55.56.56,0,0,0-.56.53s.1.31-1.21.73a1.88,1.88,0,0,1-1.58,0,.67.67,0,0,1-.33-.39c-.09-.32,1.66-2.72,1.66-2.72l1.59-.1,1.14.52.18.65Z"/><path class="cls-58" d="M620.9,133.24a1.57,1.57,0,0,1-.95.55.56.56,0,0,0-.56.53s.1.31-1.21.73a1.88,1.88,0,0,1-1.58,0,10,10,0,0,0,2.56-.71c.2-.2.44-.74.61-.75a6.25,6.25,0,0,0,1.07-.59Z"/><path class="cls-48" d="M620.9,133.24a1.57,1.57,0,0,1-.95.55.56.56,0,0,0-.56.53s.1.31-1.21.73a1.88,1.88,0,0,1-1.58,0,10,10,0,0,0,2.56-.71c.2-.2.44-.74.61-.75a6.25,6.25,0,0,0,1.07-.59Z"/><path class="cls-45" d="M633.11,131a2.8,2.8,0,0,0,0,1.26s-2.66.14-3.31-.29-1.1-2.93-1.1-2.93.09-2.93,0-3.06-.46-.79-.34-.93-.09-.87-.26-1.19a3.6,3.6,0,0,1-.09-1.23l-.4-2.41-.61-2.87-.52-1.91s-.53-1.57-.72-2.22-.37-.06-.37-.06a20.3,20.3,0,0,1-1.48,3.48,15.69,15.69,0,0,1-.46,2.34,21.07,21.07,0,0,0-.49,2.74,41.82,41.82,0,0,1-.69,5.09,11.6,11.6,0,0,0-.53,1.81s.08,1.51-.12,1.63-.16,1-.16,1,.11.86-.34,1-.38.44-.38.44-2.53.41-3-.69.16-1.41.19-1.49.35-.21.07-.53.36-1.19.36-1.19.1-1.22.28-1.26.12-1.82.12-1.82l.19-1.86s.26-4.15.2-4.31a2.62,2.62,0,0,1,.18-1.33,30,30,0,0,0,.35-3.84,9.49,9.49,0,0,1,.12-2A5.48,5.48,0,0,0,620,111c0-.43,0-.79,0-.79l2.22-.83,2.84-.91,2.39,1.15,3.5.67,0,.61.66,9.22.38,3.48s.16,1.64.18,1.94.22,2.23.22,2.23.41.93.16,1.25a.6.6,0,0,0-.16.57S633.28,130.62,633.11,131Z"/><path class="cls-48" d="M627.37,87.81a1.48,1.48,0,0,0-.17,1.12,2.78,2.78,0,0,1-3.37-.13h0c-.06-.4-.13-.7-.13-.7S628,86.87,627.37,87.81Z"/><path class="cls-57" d="M628.38,86.6a2.78,2.78,0,1,1-2.78-2.78h0a2.77,2.77,0,0,1,2.78,2.75Z"/><polygon class="cls-48" points="628.95 91.21 628.04 107.42 623.1 106.38 622.12 99.89 623.09 91.16 623.82 91.26 625.11 91.42 626.38 91.5 627.76 91.35 628.95 91.21"/><polygon class="cls-43" points="628.95 91.33 628.04 107.54 623.1 106.5 622.12 100 623.09 91.28 623.82 91.38 625.11 91.54 626.38 91.62 627.76 91.47 628.95 91.33"/><path class="cls-45" d="M624.89,91.77l1.78.06-.5.7a6.2,6.2,0,0,0,.27,1.82,64.5,64.5,0,0,1,.17,6.67l-.47.9-.81-1V92.64Z"/><path class="cls-48" d="M624.89,91.77l1.78.06-.5.7a6.2,6.2,0,0,0,.27,1.82,64.5,64.5,0,0,1,.17,6.67l-.47.9-.81-1V92.64Z"/><polygon class="cls-48" points="627.68 89.93 626.02 91.77 626.97 92.76 628.54 91.22 627.68 89.93"/><polygon class="cls-43" points="627.68 89.81 626.02 91.65 626.97 92.64 628.54 91.11 627.68 89.81"/><polygon class="cls-48" points="625.32 91.68 623.63 90 623.48 90.88 624.25 92.81 625.32 91.68"/><polygon class="cls-43" points="625.37 91.56 623.69 89.88 623.53 90.76 624.31 92.69 625.37 91.56"/><path class="cls-48" d="M631,110.9a8.38,8.38,0,0,1-2.56.74c-1.63.21-2.69-1.87-2.69-1.87l-.63.81c-.19.86-3.21,1.08-4.44.75a1.88,1.88,0,0,1-.7-.33c0-.43,0-.78,0-.78l2.22-.83,2.84-.91,2.39,1.14,3.5.68Z"/><path class="cls-48" d="M629,91.33,628,107.54l-4.94-1-1-6.5,1-8.72.73.1c0,.32-.06.63-.11,1a35.24,35.24,0,0,0,.61,4.49s1.39,4.41,2,3.77,1.52-4,1.52-4c.6-1.25,0-4.74,0-4.81a1.19,1.19,0,0,1-.05-.32Z"/><path class="cls-48" d="M631.09,103.87l0,1.59-.46.41-.3-3.84h.68Z"/><path class="cls-48" d="M620.35,100.94h0a1.58,1.58,0,0,1-.05.38s0,0,0-.06S620.3,101.11,620.35,100.94Z"/><path class="cls-48" d="M621.23,102l-.31,3.84-1.07-1,.07-.68s.25-1.68.35-2.5a1.3,1.3,0,0,0,.16.31Z"/><path class="cls-45" d="M623.91,89.94s-.3-.44-.7.4a8.57,8.57,0,0,1-1.42.69c-.37.06-1.66.52-1.66.52a1.17,1.17,0,0,1-.67.22c-.41,0-.75.89-.7,1.37s0,.84-.4.86-.17.8-.17.8l2.5,2.87s.16,2.64.08,2.72a2.48,2.48,0,0,0-.3.88c.07,0-.37,2.94-.37,2.94l-.61,5.67a1.43,1.43,0,0,0,1.23,1.27c1.23.33,4.24.12,4.44-.74l.62-.82s1.07,2.08,2.7,1.87a7.67,7.67,0,0,0,2.67-.8l-.18-6.79L630.85,99l2.55-4.19a5.29,5.29,0,0,1-.62-1.89c.06-.59.17-1-1.28-1.25a5.53,5.53,0,0,1-2-.68,5.67,5.67,0,0,0-1.39-.7s-.41-.76-.69-.5a9.93,9.93,0,0,1,.26,1.23,4,4,0,0,0,.09,1c0,.08.64,3.57,0,4.81,0,0-.88,3.36-1.51,4s-2-3.78-2-3.78a35.24,35.24,0,0,1-.61-4.49C623.82,92,623.91,89.94,623.91,89.94Z"/><circle class="cls-45" cx="626.03" cy="102.47" r="0.44"/><circle class="cls-45" cx="626.03" cy="104.52" r="0.44"/><circle class="cls-48" cx="626.03" cy="102.47" r="0.44"/><circle class="cls-48" cx="626.03" cy="104.52" r="0.44"/><path class="cls-59" d="M629.94,130.44a11.51,11.51,0,0,1,2,.28A11.51,11.51,0,0,1,629.94,130.44Z"/><path class="cls-59" d="M619.3,129s.38.48.22.69S619.3,129,619.3,129Z"/><path class="cls-59" d="M619.76,130.75s.69-.45,1-.15S619.76,130.75,619.76,130.75Z"/><path class="cls-48" d="M628.38,86.6a2.74,2.74,0,0,1-.09.7.32.32,0,0,1-.19-.31c0-.11.09-.21.07-.33s-.23-.24-.34-.37a.88.88,0,0,1-.09-.62c0-.22,0-.48-.25-.55a1.21,1.21,0,0,1-.18-.05c-.16-.06-.2-.26-.31-.39a.81.81,0,0,0-1-.14,3.79,3.79,0,0,1-.42.18.55.55,0,0,1-.45,0c-.06,0-.11-.09-.18-.13a.61.61,0,0,0-.68.17,2.46,2.46,0,0,1-.57.49c-.1,0-.23.07-.28.17a.29.29,0,0,0,0,.18,5.16,5.16,0,0,1,0,1.11c0,.23-.21.49-.44.46l-.09,0a2.78,2.78,0,0,1,5.46-1,2.94,2.94,0,0,1,0,.51Z"/><path class="cls-45" d="M622.75,87A1.29,1.29,0,0,0,623,87c.23,0,.4-.24.45-.47a5.86,5.86,0,0,0,0-1.11.25.25,0,0,1,0-.17c0-.1.18-.13.28-.18a2.39,2.39,0,0,0,.57-.49.61.61,0,0,1,.68-.17c.07,0,.12.1.18.14a.59.59,0,0,0,.45,0,3.79,3.79,0,0,0,.42-.18.82.82,0,0,1,1,.14c.1.13.15.33.31.39a1.21,1.21,0,0,0,.18,0c.2.08.25.34.25.55a.93.93,0,0,0,.09.62c.11.13.32.2.34.38s-.06.21-.07.33a.31.31,0,0,0,.29.33h0c.25,0,.4-.27.63-.36s.21,0,.28-.12a.3.3,0,0,0,.06-.26c0-.36-.34-.68-.3-1s.35-.65.28-1a.84.84,0,0,0-.19-.33,1,1,0,0,0-.39-.33c-.13-.06-.28-.07-.4-.14-.36-.2-.36-.71-.57-1.06a.94.94,0,0,0-.86-.43c-.27,0-.51.17-.78.22a2.12,2.12,0,0,1-1.07-.19,2.79,2.79,0,0,0-1.05-.29.91.91,0,0,0-.88.54,5.73,5.73,0,0,0-.07.58,1.28,1.28,0,0,1-.68.75c-.21.12-.46.25-.48.48a.85.85,0,0,0,.12.43,1.16,1.16,0,0,1,0,.76c-.07.18-.19.34-.26.52a.89.89,0,0,0,0,.75.7.7,0,0,0,.43.36C622.43,87.09,622.55,86.91,622.75,87Z"/><g class="cls-60"><path d="M623.41,86.34c0,.23-.22.5-.45.47s-.14,0-.22-.06-.31.14-.5.09a.69.69,0,0,1-.43-.35.91.91,0,0,1-.09-.31.81.81,0,0,0,.09.48.67.67,0,0,0,.43.36c.19,0,.31-.14.5-.09L623,87c.23,0,.4-.24.45-.47a3.18,3.18,0,0,0,0-.62A3.13,3.13,0,0,1,623.41,86.34Z"/><path d="M622.11,84.91a1,1,0,0,0-.07-.45c0-.1-.07-.2-.1-.3a.07.07,0,0,0,0,0,1,1,0,0,0,.11.43A.9.9,0,0,1,622.11,84.91Z"/><path d="M629.35,84.42c-.05.26-.26.52-.29.8v.15C629.11,85,629.4,84.74,629.35,84.42Z"/><path d="M629.36,86.42a.16.16,0,0,1-.05.1c-.07.08-.19.08-.28.12s-.38.37-.63.36a.31.31,0,0,1-.29-.22s0,0,0,.07a.31.31,0,0,0,.29.33h0c.24,0,.4-.28.63-.36s.21,0,.28-.12a.3.3,0,0,0,.06-.26Z"/><path d="M628.18,86.34c0-.18-.24-.25-.35-.38a.57.57,0,0,1-.1-.31.7.7,0,0,0,.1.49c.11.13.28.19.33.32A.25.25,0,0,0,628.18,86.34Z"/><path d="M627.74,85.34c0-.21,0-.47-.25-.54l-.18,0c-.16-.07-.21-.26-.31-.4a.82.82,0,0,0-1-.13c-.14,0-.28.13-.42.17a.54.54,0,0,1-.45,0c-.06,0-.11-.09-.18-.13a.62.62,0,0,0-.68.16,2.06,2.06,0,0,1-.57.49c-.1.05-.23.08-.29.18a.57.57,0,0,0,0,.18v.11a.2.2,0,0,1,0-.11c.06-.1.18-.13.29-.18a2.39,2.39,0,0,0,.57-.49.62.62,0,0,1,.68-.17c.06,0,.11.1.18.14a.56.56,0,0,0,.44,0,3.25,3.25,0,0,0,.43-.18.84.84,0,0,1,1,.14c.1.13.15.33.31.4a1.21,1.21,0,0,1,.18,0,.45.45,0,0,1,.24.42Z"/></g><g class="cls-60"><path d="M623.07,86.34a.72.72,0,0,1,.54-.68,2.23,2.23,0,0,1,1.28,0c.9.3-.11,1.37-.11,1.37s-.68.67-1.3.2a1,1,0,0,1-.37-.57A1.17,1.17,0,0,1,623.07,86.34Z"/><path d="M628,86.34a.71.71,0,0,0-.55-.68,2.2,2.2,0,0,0-1.27,0c-.9.3.11,1.37.11,1.37s.67.67,1.3.2a1,1,0,0,0,.37-.57A1.55,1.55,0,0,0,628,86.34Z"/><polygon points="624.72 85.63 624.72 85.67 626.37 85.67 626.37 85.62 624.72 85.63"/><path d="M625.25,86.1h0V86a.43.43,0,0,1,.44,0v.14h.1V86h-.05s0-.18-.29-.16c0,0-.25,0-.24.14h-.06Z"/></g><path class="cls-43" d="M623.07,86.28a.71.71,0,0,1,.54-.68,2.23,2.23,0,0,1,1.28.05c.9.3-.11,1.37-.11,1.37s-.68.67-1.3.2a1,1,0,0,1-.37-.57A1.17,1.17,0,0,1,623.07,86.28Z"/><path class="cls-43" d="M628,86.28a.71.71,0,0,0-.55-.68,2.2,2.2,0,0,0-1.27.05c-.9.3.11,1.37.11,1.37s.67.67,1.3.2a1,1,0,0,0,.37-.57A1.55,1.55,0,0,0,628,86.28Z"/><polygon class="cls-43" points="624.72 85.57 624.72 85.61 626.37 85.61 626.37 85.56 624.72 85.57"/><path class="cls-43" d="M625.25,86h0v-.15a.43.43,0,0,1,.44,0V86h.1v-.09h-.05s0-.18-.29-.16c0,0-.25,0-.24.14h-.06Z"/><rect class="cls-61" x="549.55" y="101.33" width="0.54" height="12.12"/><path class="cls-45" d="M553.48,113.42l0,.55-.05.77,0,.32,0,.77,0,.32,0,.77-.55,8.77a1.47,1.47,0,0,1-1.48,1.39h-2.82a1.49,1.49,0,0,1-1.48-1.39l-.55-8.77,0-.77,0-.32-.05-.77,0-.32,0-.77,0-.55a.78.78,0,0,1,.72-.82h5.82a.78.78,0,0,1,.77.77Z"/><polygon class="cls-62" points="553.44 113.97 553.39 114.74 546.25 114.74 546.2 113.97 553.44 113.97"/><polygon class="cls-62" points="553.37 115.06 553.33 115.83 546.32 115.83 546.27 115.06 553.37 115.06"/><polygon class="cls-62" points="553.3 116.15 553.26 116.92 546.39 116.92 546.34 116.15 553.3 116.15"/><path class="cls-43" d="M545.38,105.88a13.93,13.93,0,0,1,4.44,5.82,12.69,12.69,0,0,1-11.36-8.22A14,14,0,0,1,545.38,105.88Z"/><path class="cls-63" d="M538.47,103.48s3.92,2.18,5.18,4,6.17,4.24,6.17,4.24"/><path class="cls-43" d="M547.4,101.31a7.62,7.62,0,0,1,2.42,3.17,6.94,6.94,0,0,1-6.18-4.47A7.48,7.48,0,0,1,547.4,101.31Z"/><path class="cls-63" d="M543.64,100a11.07,11.07,0,0,1,2.82,2.17c.68,1,3.36,2.3,3.36,2.3"/><path class="cls-43" d="M552.3,104.38a10.47,10.47,0,0,0-2.37,5,9.59,9.59,0,0,0,7.1-7.81A10.51,10.51,0,0,0,552.3,104.38Z"/><path class="cls-63" d="M557,101.54s-2.56,2.21-3.21,3.73-3.89,4.08-3.89,4.08"/><path class="cls-64" d="M68.69,174.76,49.57,196.1a9.48,9.48,0,0,1-11.62,15,10.57,10.57,0,0,1-1-.9L10.33,239.91a43.85,43.85,0,0,0,58.36-65.15Z"/><circle class="cls-64" cx="44.09" cy="204.08" r="5.72"/><rect class="cls-45" x="9.68" y="214.7" width="62.5" height="39.38"/><path class="cls-46" d="M78.32,195.18a3.91,3.91,0,0,0-4.14,4c-.11,4.14,0,7.68,0,7.68h8.06v-7.46S82.07,195.45,78.32,195.18Z"/><path class="cls-47" d="M76.74,202.55s.24,2.71-.55,2.95.31,3.67.31,3.67l3.19.71,1.84-3.66-.8-1s-1.36-1.83-.72-3.11S76.74,202.55,76.74,202.55Z"/><path class="cls-48" d="M76.74,202.55s.24,2.71-.55,2.95.31,3.67.31,3.67l3.19.71,1.84-3.66-.8-1s-1.36-1.83-.72-3.11S76.74,202.55,76.74,202.55Z"/><circle class="cls-47" cx="77.86" cy="200.72" r="3.11"/><path class="cls-47" d="M65.74,211.4s-1.91,1.43-1.35,2.55,2.23,4.94,2.23,4.94.32,3,1.67,2.79,0-3.11,0-3.11L66.62,214l.56-.88Z"/><path class="cls-47" d="M91.57,211.88s2.15,1.67.88,2.31-6.7,3.67-6.7,3.67-3.27,2.47-3.67.55,2.16-1.83,2.16-1.83,5.1-3.11,5.34-3.75S91.57,211.88,91.57,211.88Z"/><path class="cls-65" d="M72.6,222.8s-1,5.66-.48,8.85a15.84,15.84,0,0,1-.16,6l3.11.31s2-11.79,3.11-11.71,3.51,11.87,3.51,11.87l3.34-.47s-1-5.27-.55-6.86.16-7.33-1-8S72.6,222.8,72.6,222.8Z"/><path class="cls-46" d="M75.39,237.63s-3.59-1.2-3.91-.32-.24,10.68-.16,11.32.32.31.08.63-.24-.39-.16.48a4.1,4.1,0,0,0,.16,1s-1.43,3.35,1.12,3.27,1.35-2.47,1.35-2.47.4-.72.16-1.12a1.2,1.2,0,0,1,0-1.36c.32-.31-.32-.95-.4-1.19s-.31-.16.32-1,.32-1.19.24-1.43a6.87,6.87,0,0,1,.56-1.68Z"/><path class="cls-46" d="M81.45,237.63s3.58-1.2,3.9-.32.24,10.68.16,11.32-.32.31-.08.63.24-.39.16.48a4.1,4.1,0,0,1-.16,1s1.44,3.35-1.11,3.27S83,251.58,83,251.58s-.4-.72-.16-1.12a1.2,1.2,0,0,0,0-1.36c-.32-.31.32-.95.4-1.19s.32-.16-.32-1-.32-1.19-.24-1.43a6.87,6.87,0,0,0-.56-1.68Z"/><path class="cls-43" d="M78,208.05a9.49,9.49,0,0,0-.88-2,3.15,3.15,0,0,1-.52-1.15s-1.79.67-2.27.83-2.07.16-2.07.4v5.1a15.62,15.62,0,0,0,.16,3.67c.32,2.63,1.27,4.22.16,5.34s-.16,3.82.4,4.3,11.4,2.95,11.48-2.87c0,0-2.63-4.62-1.52-6.14A20.2,20.2,0,0,0,85,211.48v-5.1s-1.75-.56-2.31-.64-1.91-1.6-2.07-1.52a.88.88,0,0,1-.47,0v1.12Z"/><path class="cls-43" d="M73.4,206.54l-1.12-.4s-1.36.71-1.36.87-.79.88-1.19,1.2-1.52.4-1.52.56-3.5,2.71-3.18,3.11,1.35,1.83,1.91,1.83,1.91-1.43,2.15-1.51,2.71-1.6,3.51-1.36S73.4,206.54,73.4,206.54Z"/><path class="cls-43" d="M83.52,206.69l1.51-.31s2.87,2.15,3,2.23,4.55,2.95,4.31,3.51-2.79,1.35-3.43,1.11-3.35-2.23-4.38-2S83.52,206.69,83.52,206.69Z"/><path class="cls-46" d="M81.17,199.72a4.33,4.33,0,0,0,.22-2l-4.84-1.2-1.69,1.63v1.69l.17.53a1.21,1.21,0,0,0,.43-1.29S80.9,200.86,81.17,199.72Z"/><path class="cls-46" d="M81.23,198.83l-.46.49c.72,0-.24,5.84.08,6.78l1.19,0v-7.76Z"/><ellipse class="cls-47" cx="74.87" cy="200.24" rx="0.24" ry="0.52"/><ellipse class="cls-47" cx="81.01" cy="200.24" rx="0.24" ry="0.52"/><polygon class="cls-46" points="37.74 245.11 37.6 244.97 43.75 238.81 38.3 233.37 38.45 233.22 44.04 238.81 37.74 245.11"/><circle class="cls-43" cx="43.54" cy="238.86" r="2.13"/><circle class="cls-43" cx="37.97" cy="245.04" r="2.13"/><polygon class="cls-46" points="38.14 233.37 38 233.22 44.16 227.07 38.71 221.62 38.85 221.48 44.44 227.07 38.14 233.37"/><circle class="cls-43" cx="38.78" cy="221.55" r="2.13"/><circle class="cls-43" cx="43.95" cy="227.12" r="2.13"/><circle class="cls-43" cx="38.38" cy="233.29" r="2.13"/><rect class="cls-66" x="12.45" y="217.19" width="10.53" height="1.92"/><rect class="cls-66" x="54.48" y="238.96" width="10.53" height="0.51"/><rect class="cls-66" x="54.48" y="240.48" width="10.53" height="0.51"/><rect class="cls-66" x="54.48" y="242" width="10.53" height="0.51"/><rect class="cls-66" x="54.48" y="243.52" width="10.53" height="0.51"/><rect class="cls-66" x="54.48" y="245.04" width="10.53" height="0.51"/><rect class="cls-66" x="54.48" y="246.56" width="10.53" height="0.51"/><path class="cls-45" d="M6.76,250a8.35,8.35,0,0,0,3.1,4.2,8.36,8.36,0,0,0,.56-5.19,8.36,8.36,0,0,0-3.1-4.19A8.34,8.34,0,0,0,6.76,250Z"/><path class="cls-43" d="M7.79,249.44a8.29,8.29,0,0,1,2.15,4.74,8.28,8.28,0,0,1-4.8-2A8.31,8.31,0,0,1,3,247.41,8.33,8.33,0,0,1,7.79,249.44Z"/><rect class="cls-45" y="253.95" width="104.9" height="0.2"/><path class="cls-45" d="M99.08,247.72a2.25,2.25,0,0,0-1.42-2.08,2.23,2.23,0,1,0-2.88-1.26A2.17,2.17,0,0,0,96,245.64a2.23,2.23,0,0,0,0,4.16,2.23,2.23,0,1,0,1.62,0A2.25,2.25,0,0,0,99.08,247.72Zm-4.25-4.15a2,2,0,1,1,2.48,2,2.37,2.37,0,0,0-.92,0A2,2,0,0,1,94.83,243.57Zm4,8.3a2,2,0,1,1-2.49-2,2.37,2.37,0,0,0,.92,0A2,2,0,0,1,98.88,251.87Zm-1.57-2.18a2.37,2.37,0,0,0-.92,0,2,2,0,0,1,0-3.94,2.37,2.37,0,0,0,.92,0,2,2,0,0,1,0,3.94Z"/><path class="cls-45" d="M10.78,210.86A2.23,2.23,0,1,1,13,208.64,2.21,2.21,0,0,1,10.78,210.86Zm0-4.25a2,2,0,1,0,2,2A2,2,0,0,0,10.78,206.61Z"/><path class="cls-45" d="M58.07,188.69a2.23,2.23,0,1,1,2.23-2.23h0A2.23,2.23,0,0,1,58.07,188.69Zm0-4.25a2,2,0,1,0,2,2A2,2,0,0,0,58.07,184.44Z"/><path class="cls-64" d="M638.36,281A34.58,34.58,0,0,0,606,254.75c-8.16-.22-16.74,2.48-23,11.95-11.17,16.92.68,28.62,9,34.17a51.73,51.73,0,0,1,10.69,9.61c5.59,6.63,16.33,14.86,29.13,2C641,303.09,640.89,290.91,638.36,281Z"/><path class="cls-45" d="M550.44,292.29a4.66,4.66,0,0,1-.3-.47l.15-.09.3.46Z"/><path class="cls-45" d="M549.59,290.84c-.17-.33-.33-.67-.47-1l.17-.07c.14.34.29.68.46,1Zm-.85-2.07a10.34,10.34,0,0,1-.3-1.09l.18,0c.08.36.18.72.29,1.07Zm-.5-2.19c0-.37-.09-.75-.11-1.12h.18c0,.37.06.74.11,1.1Zm0-2.24h-.18c0-.37,0-.75.07-1.12l.18,0C548.33,283.6,548.3,284,548.29,284.34Zm.24-2.2-.18,0c.07-.36.15-.73.25-1.09l.18.05a9.43,9.43,0,0,0-.25,1.08Zm.59-2.14-.17-.06c.13-.35.27-.7.43-1l.17.08c-.16.33-.3.68-.43,1Zm25-.56c-.14-.34-.3-.68-.47-1l.16-.08q.25.5.48,1ZM550.06,278l-.16-.09c.18-.32.38-.64.59-.95l.15.1C550.44,277.36,550.24,277.67,550.06,278Zm23.06-.52a10.59,10.59,0,0,0-.63-.91l.15-.11c.22.3.44.61.64.93Zm-21.81-1.3-.14-.12c.23-.29.48-.57.74-.84l.13.13C551.79,275.6,551.54,275.88,551.31,276.17Zm20.48-.46c-.25-.28-.5-.55-.77-.8l.12-.13c.27.25.54.53.79.8Zm-18.95-1.14-.12-.14c.28-.24.58-.48.88-.71l.11.15C553.41,274.09,553.12,274.33,552.84,274.57Zm17.34-.39c-.28-.23-.58-.45-.89-.66l.11-.15c.3.21.61.43.9.67Zm-15.56-.94-.1-.15c.32-.2.65-.39,1-.56l.08.17C555.26,272.86,554.93,273.05,554.62,273.24Zm13.73-.31c-.32-.18-.65-.35-1-.5l.08-.17c.34.16.68.33,1,.52Zm-11.76-.7-.07-.17c.34-.14.7-.27,1.05-.39l.06.18C557.28,272,556.93,272.09,556.59,272.23Zm9.75-.22c-.35-.13-.7-.24-1.06-.34l.05-.17c.36.1.72.21,1.07.34Zm-7.64-.46-.05-.18c.37-.08.74-.15,1.11-.2l0,.18c-.36,0-.73.12-1.08.2Zm5.5-.12c-.36-.07-.73-.12-1.1-.16l0-.18c.37,0,.75.09,1.11.16Zm-3.31-.2v-.18c.37,0,.75,0,1.12,0v.19C561.63,271.2,561.25,271.21,560.89,271.23Z"/><path class="cls-45" d="M574.7,281c-.05-.17-.1-.35-.16-.52l.18-.06c0,.18.11.35.16.53Z"/><path class="cls-45" d="M573.59,270.77h-.19c0-.18,0-.36,0-.55h.19C573.59,270.41,573.59,270.59,573.59,270.77Z"/><path class="cls-45" d="M573.67,269.13l-.18,0c0-.37.09-.74.16-1.1l.18,0C573.76,268.4,573.71,268.77,573.67,269.13Zm.39-2.17-.17,0c.09-.36.19-.72.31-1.07l.17.06C574.26,266.25,574.15,266.61,574.06,267ZM603.21,265c-.13-.33-.28-.67-.44-1l.16-.08q.24.49.45,1Zm-28.45-.16-.17-.07c.14-.34.3-.68.47-1l.16.08C575.05,264.2,574.9,264.54,574.76,264.87Zm27.49-1.81c-.19-.32-.39-.63-.59-.93l.15-.11c.21.31.41.63.59,1Zm-26.5-.15-.16-.1c.19-.31.4-.63.61-.93l.15.1q-.32.45-.6.93ZM601,261.24q-.35-.44-.72-.84l.14-.12c.25.27.49.56.72.85Zm-24-.14-.14-.11c.23-.29.48-.57.73-.84l.13.12C577.48,260.54,577.24,260.82,577,261.1Zm22.51-1.48c-.27-.26-.54-.5-.83-.73l.12-.14c.29.23.57.48.84.73Zm-21-.12-.13-.14c.27-.25.56-.49.85-.73l.11.15c-.29.23-.57.47-.83.72Zm19.3-1.28c-.3-.21-.61-.42-.92-.6l.09-.16c.32.19.63.4.93.61Zm-17.59-.1-.1-.15c.3-.21.62-.41.94-.6l.09.16c-.31.18-.63.38-.93.59Zm15.7-1c-.32-.17-.66-.32-1-.47l.07-.16c.34.14.68.3,1,.47Zm-13.8-.08-.08-.16c.33-.17.67-.32,1-.46l.07.17c-.34.14-.67.29-1,.45Zm11.78-.78c-.35-.12-.7-.22-1.06-.31l0-.18c.36.09.72.2,1.07.32Zm-9.75-.05,0-.18c.35-.11.71-.21,1.07-.3l0,.17c-.35.09-.71.19-1.06.31Zm7.62-.5c-.36-.07-.73-.13-1.09-.17l0-.18c.37,0,.74.1,1.1.17Zm-5.48,0,0-.18c.36-.07.73-.12,1.1-.16l0,.19a10.19,10.19,0,0,0-1.09.15Zm3.29-.22c-.37,0-.74,0-1.1,0v-.18c.37,0,.75,0,1.12,0Z"/><path class="cls-45" d="M603.75,266.6c0-.17-.1-.35-.16-.52l.18-.05.15.52Z"/><ellipse class="cls-43" cx="550.33" cy="294.33" rx="3.04" ry="0.23"/><ellipse class="cls-43" cx="574.61" cy="283.29" rx="3.04" ry="0.23"/><ellipse class="cls-43" cx="604.6" cy="271.8" rx="3.04" ry="0.23"/><rect class="cls-45" x="592.4" y="275.6" width="12.95" height="0.18" transform="translate(-19.54 504.22) rotate(-45)"/><rect class="cls-45" x="576.21" y="281.37" width="15.37" height="0.18"/><rect class="cls-45" x="563.09" y="286.89" width="12.16" height="0.18" transform="translate(-36.22 486.52) rotate(-45)"/><rect class="cls-45" x="551.93" y="292.41" width="10.28" height="0.18"/><rect class="cls-45" x="536.87" y="298.65" width="14.44" height="0.18" transform="translate(-51.88 472.23) rotate(-45)"/><path class="cls-45" d="M550.33,294.19A1.69,1.69,0,1,1,552,292.5h0A1.69,1.69,0,0,1,550.33,294.19Zm0-3.2a1.51,1.51,0,1,0,1.51,1.51h0A1.52,1.52,0,0,0,550.33,291Z"/><path class="cls-45" d="M563.8,294.19a1.69,1.69,0,1,1,1.69-1.69h0A1.69,1.69,0,0,1,563.8,294.19Zm0-3.2a1.51,1.51,0,1,0,1.51,1.51h0A1.52,1.52,0,0,0,563.8,291Z"/><path class="cls-45" d="M574.61,283.15a1.69,1.69,0,1,1,1.69-1.69A1.69,1.69,0,0,1,574.61,283.15Zm0-3.19a1.51,1.51,0,1,0,1.51,1.5,1.51,1.51,0,0,0-1.51-1.5Z"/><path class="cls-45" d="M593.18,283.15a1.69,1.69,0,1,1,1.69-1.69A1.69,1.69,0,0,1,593.18,283.15Zm0-3.19a1.51,1.51,0,1,0,1.51,1.5,1.51,1.51,0,0,0-1.51-1.5Z"/><path class="cls-45" d="M604.6,271.66a1.69,1.69,0,1,1,1.69-1.69A1.68,1.68,0,0,1,604.6,271.66Zm0-3.2a1.51,1.51,0,1,0,1.5,1.51,1.51,1.51,0,0,0-1.5-1.51Z"/><path class="cls-45" d="M537.85,306.67a1.69,1.69,0,1,1,1.69-1.69h0A1.69,1.69,0,0,1,537.85,306.67Zm0-3.19a1.51,1.51,0,1,0,1.5,1.5h0A1.5,1.5,0,0,0,537.85,303.48Z"/><path class="cls-43" d="M550.33,282.53a3,3,0,0,0-3.05,3h0c0,1.69,3.05,7.24,3.05,7.24s3-5.55,3-7.24a3,3,0,0,0-3-3Zm0,4.64a1.6,1.6,0,1,1,1.6-1.6,1.6,1.6,0,0,1-1.6,1.6Z"/><path class="cls-43" d="M574.61,271.11a3.06,3.06,0,0,0-3.05,3.05c0,1.68,3.05,7.23,3.05,7.23s3-5.55,3-7.23a3,3,0,0,0-3-3.05Zm0,4.65a1.6,1.6,0,1,1,1.6-1.6,1.6,1.6,0,0,1-1.6,1.6Z"/><rect class="cls-46" x="592.93" y="319.39" width="41.45" height="0.22"/><path class="cls-46" d="M627.13,261.36c-.64,1.91-1.63,3.65-3.64,3.65a3.72,3.72,0,0,1-3.65-3.65c-.15-2.57,1.59-3.66,3.65-3.65C625.92,257.73,627.9,259.1,627.13,261.36Z"/><rect class="cls-46" x="619.84" y="261.07" width="7.2" height="9.12"/><path class="cls-65" d="M627.25,267.86h.61a5.45,5.45,0,0,1,.82,4.49c-.68,2.59-.14,3.06-.14,3.06a14.66,14.66,0,0,1-.07,7c-1,4.22.89,5.36.89,5.36l-1.7-3.4-1-9Z"/><path class="cls-48" d="M627.25,268.09h.61a5.44,5.44,0,0,1,.82,4.49c-.68,2.58-.14,3.06-.14,3.06a14.62,14.62,0,0,1-.07,7c-1,4.22.89,5.37.89,5.37l-1.7-3.41-1-9Z"/><path class="cls-67" d="M625.1,264.57s-.54,2.17-.27,2.17,1.23,1.16,1.23,1.16l.61,2.24-.48,1.64-1.63-.35-2-2.24-.61-.61-.55-2s.68-.82.21-1.5S625.1,264.57,625.1,264.57Z"/><path class="cls-48" d="M625.1,264.57s-.54,2.17-.27,2.17,1.23,1.16,1.23,1.16l.61,2.24-.48,1.64-1.63-.35-2-2.24-.61-.61-.55-2s.68-.82.21-1.5S625.1,264.57,625.1,264.57Z"/><path class="cls-67" d="M608.65,270.62l-1.5-2.45s-1.62-3.57-2.77-2.28,1.75,3.91,1.75,3.91l1.5,2Z"/><path class="cls-67" d="M628.51,291.91l-1.09,7.95s.13.62-1.23,2.86-5,7.14-5,7.14l-1.09-2s1.29-6.46,3.54-7.82l-.27-9.79Z"/><path class="cls-48" d="M628.51,291.91l-1.09,7.95s.13.62-1.23,2.86-5,7.14-5,7.14l-1.09-2s1.29-6.46,3.54-7.82l-.27-9.79Z"/><path class="cls-46" d="M620.07,307l1.5,2.85s-1.23,3.47-.75,3.81,1.09,3.4-.2,3.06a4,4,0,0,1-2.32-1.9c0-.21.75-3.06.34-3.74a3.22,3.22,0,0,0-.68-.89l-1,1.7-.34-.2,1.7-2.86a1.82,1.82,0,0,1,1-.88Z"/><path class="cls-48" d="M620.07,307l1.5,2.85s-1.23,3.47-.75,3.81,1.09,3.4-.2,3.06a4,4,0,0,1-2.32-1.9c0-.21.75-3.06.34-3.74a3.22,3.22,0,0,0-.68-.89l-1,1.7-.34-.2,1.7-2.86a1.82,1.82,0,0,1,1-.88Z"/><path class="cls-67" d="M623.35,290.78s.53,7.52-.63,9.49v9.8l-1.56.2s-3.16-5.19-2-10.29a16.18,16.18,0,0,0-1.2-9.77Z"/><circle class="cls-67" cx="622.96" cy="263.38" r="2.86"/><path class="cls-65" d="M625.85,270.89l-2.85-3.6-1.64-1.09-.68.88-1.9.55a5.29,5.29,0,0,0-2.52,1.76,10.46,10.46,0,0,1-3.6,2.39l-1.91-.35s-2.24-1-2.24-1.29-2,1.84-1.5,2.66a15.27,15.27,0,0,0,2,2.38c.55.54.75,2.1,4.08,1.63s4.56-2.11,4.56-2.11.61,3.13,2.38,3.74,7.55,1,7.55,1l1.23-4.08s1.36-1.77-.48-4.35a18.16,18.16,0,0,0-.23-2.41,1.66,1.66,0,0,0-.31-.79,15.08,15.08,0,0,0-3-1.09s.41,1.36.61,1.43A5,5,0,0,1,625.85,270.89Z"/><path class="cls-46" d="M616.71,291.19a13.1,13.1,0,0,1,6.3.75,2.43,2.43,0,0,1,.47.28c.06.06.09.1.09.13a20,20,0,0,0,6.4.2c1.7-.41-1.16-9.18-1.91-9.93s-.34-3.48-.34-3.48a6.62,6.62,0,0,0-1.9-.19,7.73,7.73,0,0,1-3.27-.61c-.74-.41-1.7-.14-2.31-.27a.39.39,0,0,0-.48.17,1.22,1.22,0,0,1-.46.47c-1.45.83-2.61,6.58-3.48,9.76C614.87,291.94,616.71,291.19,616.71,291.19Z"/><path class="cls-46" d="M623,309.45l.27,1.5s1.43,2,1,3.74c0,0,.34,2.24,1.56,2.86s.21,2-1,2-2.24.07-2.38-.27-.95-3.68-.95-3.68l-.23,3.9-.68.07.23-4.51a3.24,3.24,0,0,1,.2-2.72l-.19-2.61S622.79,310.13,623,309.45Z"/><path class="cls-48" d="M623,291.94a2.43,2.43,0,0,1,.47.28c0-.64.24-4.52,0-4.46Z"/><path class="cls-46" d="M621.78,259.44s0-.17-1.27.29-2,3.89-1.36,5.9a1.84,1.84,0,0,1-.28,1.8,3,3,0,0,0,1,4.63l.16.06.77.47a3.56,3.56,0,0,1-.49-3,8.45,8.45,0,0,0,.15-4.35c0-.25-.12-.5-.19-.75-.62-2.17-.32-1.92,1.85-4.08a13.21,13.21,0,0,0,2.32,1.39c1.08.46,2,.93,1.23,2.47s-2.63,2.94-1.39,4.95,1.39,1.24,1.24,2h0l-.16.78.93-.93-.62,1.24s2,0,2.63-1.55l.31.31a3.34,3.34,0,0,0-1.08-4.18s-.77-.46.31-2,.25-4.87-1.14-5.49S621.78,259.44,621.78,259.44Z"/><circle class="cls-46" cx="623.49" cy="257.04" r="1.44"/><path class="cls-46" d="M621.76,256.28a1.45,1.45,0,0,1,1.29-1.44h-.14a1.44,1.44,0,1,0,0,2.87h.14A1.45,1.45,0,0,1,621.76,256.28Z"/><path class="cls-43" d="M604.6,260.15a3.06,3.06,0,0,0-3.05,3.05h0c0,1.68,3.05,7.23,3.05,7.23s3-5.55,3-7.23a3,3,0,0,0-3-3.05Zm0,4.65a1.6,1.6,0,1,1,1.6-1.6,1.6,1.6,0,0,1-1.6,1.6Z"/><circle class="cls-39" cx="580.05" cy="315.15" r="1.65"/><circle class="cls-39" cx="590.3" cy="308.19" r="1.65"/><circle class="cls-39" cx="577.63" cy="301.7" r="1.65"/><path class="cls-68" d="M98,435.19c0,2.91-18.35,3.18-18.7,0C79.3,432.27,97.68,432,98,435.19Z"/><polygon class="cls-69" points="83.65 425.06 82.28 425.81 83.15 428.66 84.52 428.79 85.26 427.17 83.65 425.06"/><polygon class="cls-69" points="87.87 430.77 87.87 432.14 89.98 432.01 89.95 430.89 87.87 430.77"/><polygon class="cls-46" points="83.15 408.67 83.9 417.98 86.26 431.64 89.98 431.15 88.74 420.34 89.24 410.41 83.15 408.67"/><path class="cls-46" d="M93.09,401.71l-8.94.13-1,6.83,6.09,2.86L90.73,417l-7.58,8.07,3,3.73a112.41,112.41,0,0,1,7.33-8.94c3.1-3.23,1.61-13,1.61-13Z"/><circle class="cls-69" cx="87.75" cy="381.35" r="2.73"/><path class="cls-69" d="M86.75,383.21v2.73l1.87,3s2.85-2.11,2.23-2.6-.74-4.35-.74-4.35Z"/><polygon class="cls-70" points="86.75 385.45 84.89 387.68 85.64 403.2 91.47 403.08 92.47 389.55 91.22 386.07 90.37 384.91 88.86 387.19 86.75 385.45"/><path class="cls-46" d="M83.77,393.52l-1.36,5.21L83.77,404l-2.23,3-2-9.44s1.49-7.7,1.61-8.57.38-1,.38-1l1,.12Z"/><polygon class="cls-46" points="93.71 395.51 94.58 397.12 94.83 399.85 94.33 402.96 96.07 405.81 97.81 397.99 95.94 387.93 95.2 387.93 93.71 395.51"/><path class="cls-46" d="M83.15,424.94s-1.74.49-2.36.62.37,2.48.37,2.48l.75,3.85c.12.62,1,2.73,2.11,3s.37-4.34.37-4.34a11.42,11.42,0,0,0,.5-2c0-.5-.74-.25-.74-.25C82.16,428,83.15,424.94,83.15,424.94Z"/><path class="cls-46" d="M87.25,434.5c.12.74-.12.74,1.86,1s1.49-1.36,1.49-1.36a10.8,10.8,0,0,0-.49-2.24c-.38-1-2.36.25-2.36.25A6.82,6.82,0,0,0,87.25,434.5Z"/><path class="cls-46" d="M90.11,382.06l.06,1.1a12.26,12.26,0,0,0,.93-3.67c.12-1.87-2-2.24-3.23-2.36s-3.35.74-3.35,1.74,2.23.74,3.1.49,1.24,1.86,1.24,1.86l.5.13Z"/><polygon class="cls-70" points="86.02 386.33 86.75 385.45 88.86 387.19 86.75 388.68 86.02 386.33"/><polygon class="cls-70" points="91.22 386.07 90.35 384.95 88.86 387.19 90.73 388.55 91.22 386.07"/><path class="cls-46" d="M83.4,395.26l.5,4.72-1,2.85-.62,2.73a2.68,2.68,0,0,0,2.49,2.74c2.48.12,4.59-7.83,4.59-7.83s.37,1.74.62,2.73,4.47,5,4.47,5,1-.12,1.86-2.11-1.73-3.85-1.73-3.85l-.75-2.61.25-3.23,1.74-8.44-5.16-2.67.56,7.14L89.36,398l-2.79-12.36-.93.69-4,1.61Z"/><path class="cls-70" d="M34.32,414h-.74v-.25h1.47V414Zm-2.22-.1c-.49-.05-1-.11-1.47-.19l0-.24c.48.07,1,.14,1.46.18Zm4.45,0,0-.24c.49-.05,1-.11,1.46-.19l0,.24c-.49.08-1,.15-1.47.19Zm-7.37-.46c-.48-.11-1-.24-1.44-.38l.07-.23c.47.14,1,.26,1.42.37Zm10.29,0,0-.24c.47-.11.95-.23,1.42-.37l.07.24c-.48.14-1,.26-1.44.37Zm-13.13-.83c-.47-.17-.93-.36-1.38-.56l.1-.22c.45.19.9.38,1.36.55Zm16,0-.08-.23c.45-.17.91-.35,1.35-.55l.1.22C43.23,412.26,42.77,412.45,42.31,412.62Zm-18.69-1.19c-.43-.23-.87-.47-1.29-.73l.13-.21c.42.25.85.49,1.28.72Zm21.4,0-.12-.22c.43-.22.86-.47,1.28-.72l.13.21C45.89,411,45.45,411.19,45,411.42Zm-23.93-1.53c-.41-.28-.81-.58-1.19-.89l.15-.19c.38.3.78.6,1.18.88Zm26.46,0-.14-.2c.4-.28.79-.57,1.17-.88l.15.19C48.35,409.3,48,409.6,47.55,409.88ZM18.77,408c-.37-.33-.72-.68-1.07-1l.18-.17q.51.53,1.05,1Zm31.09,0-.16-.18q.54-.5,1-1l.18.17C50.59,407.36,50.23,407.7,49.86,408Zm-33.15-2.12c-.32-.37-.63-.76-.93-1.15l.2-.15c.29.39.6.77.91,1.14Zm35.22,0-.19-.16c.31-.37.62-.75.91-1.14l.2.15c-.29.39-.61.78-.92,1.15Zm-37-2.36c-.27-.41-.53-.84-.77-1.26l.22-.12c.23.42.49.84.76,1.25Zm38.77,0-.21-.14c.27-.4.53-.83.77-1.25l.21.12c-.24.43-.5.86-.77,1.27ZM13.47,401c-.21-.45-.41-.9-.6-1.36l.23-.09c.18.45.38.9.6,1.34Zm41.69,0-.22-.11c.21-.44.41-.89.59-1.34l.23.09C55.57,400.05,55.37,400.5,55.16,401Zm-42.8-2.73c-.16-.47-.3-.94-.42-1.42l.23-.06c.13.47.27.94.42,1.4Zm43.91,0-.23-.08c.15-.46.29-.94.42-1.41l.23.06C56.57,397.25,56.43,397.73,56.27,398.2Zm-44.66-2.84q-.15-.74-.24-1.47l.24,0c.07.48.14,1,.24,1.45Zm45.41,0-.24-.05c.09-.48.17-1,.23-1.45l.25,0c-.07.49-.14,1-.24,1.47Zm-45.79-2.91c0-.49-.05-1-.05-1.49h.24c0,.49,0,1,.05,1.47Zm46.17,0-.25,0c0-.48.05-1,.05-1.46v-.06h.24v.06c0,.49,0,1,0,1.48Zm-45.93-2.92-.25,0c0-.49.08-1,.14-1.47l.25,0C11.55,388.49,11.5,389,11.47,389.47Zm45.68-.08c0-.49-.08-1-.14-1.46l.24,0c.06.48.11,1,.14,1.47Zm-45.31-2.83-.24-.05c.09-.48.2-1,.32-1.44l.24.06C12,385.6,11.93,386.08,11.84,386.56Zm44.93-.08c-.09-.48-.2-1-.33-1.43l.24-.06c.12.47.24,1,.33,1.44Zm-44.19-2.76-.24-.07c.16-.47.33-.94.51-1.4l.23.09C12.9,382.8,12.73,383.26,12.58,383.72ZM56,383.65q-.23-.7-.51-1.38l.23-.09c.19.45.36.92.52,1.39ZM13.67,381l-.22-.11c.22-.44.45-.88.69-1.31l.21.12C14.11,380.12,13.89,380.56,13.67,381Zm41.25-.07c-.22-.43-.45-.87-.69-1.29l.22-.13q.36.64.69,1.32Zm-39.81-2.49-.2-.13c.27-.41.55-.82.85-1.22l.19.15Q15.52,377.83,15.11,378.44Zm38.36-.06c-.27-.4-.55-.81-.84-1.2l.2-.14c.29.39.58.8.85,1.21Zm-36.6-2.29-.19-.16c.32-.37.65-.74,1-1.1l.17.17C17.51,375.35,17.18,375.72,16.87,376.09Zm34.84,0c-.31-.37-.65-.73-1-1.08l.18-.17c.34.35.68.72,1,1.09ZM18.91,374l-.17-.18c.36-.33.74-.65,1.13-1L20,373C19.64,373.33,19.27,373.65,18.91,374Zm30.76,0c-.36-.33-.74-.65-1.12-.95l.15-.19c.39.3.77.63,1.13,1Zm-28.48-1.79-.14-.2c.41-.28.82-.56,1.24-.81l.13.21C22,371.6,21.59,371.87,21.19,372.15Zm26.18,0c-.4-.28-.81-.55-1.23-.8l.13-.21c.42.26.84.53,1.24.81ZM23.7,370.63l-.12-.22c.44-.23.89-.45,1.33-.65l.1.23C24.57,370.19,24.13,370.4,23.7,370.63Zm21.16,0c-.43-.22-.88-.44-1.32-.63l.1-.23c.45.2.9.42,1.34.64Zm-18.49-1.15-.08-.23c.46-.18.93-.33,1.4-.47l.07.23C27.3,369.11,26.83,369.27,26.37,369.44Zm15.81,0c-.46-.17-.93-.32-1.4-.46l.07-.24c.47.14.95.3,1.41.47Zm-13-.81-.05-.24c.47-.11,1-.21,1.45-.29l0,.25C30.14,368.4,29.65,368.49,29.18,368.6Zm10.18,0c-.47-.11-1-.2-1.44-.28l0-.24c.49.08,1,.17,1.46.28Zm-7.29-.45,0-.25c.49,0,1-.08,1.48-.09V368c-.49,0-1,.05-1.47.1Zm4.4,0L35,368v-.24c.49,0,1,0,1.48.09Z"/><circle class="cls-43" cx="33.45" cy="368.39" r="5.78"/><circle class="cls-43" cx="55.84" cy="384.14" r="5.78"/><circle class="cls-43" cx="48.83" cy="408.26" r="5.78"/><circle class="cls-43" cx="21.02" cy="409.24" r="5.78"/><circle class="cls-43" cx="12.66" cy="384.14" r="5.78"/><path class="cls-51" d="M35.93,367.93h-2a.69.69,0,0,1-.69-.69v-2a.06.06,0,0,0-.06-.06H31.84a.93.93,0,0,0-.93.92v4.62a.93.93,0,0,0,.93.92h3.22a.93.93,0,0,0,.93-.92h0V368a.06.06,0,0,0-.06-.06Zm-1.33,2.3H32.3a.23.23,0,0,1-.23-.23.23.23,0,0,1,.23-.23h2.3a.23.23,0,0,1,.23.23A.23.23,0,0,1,34.6,370.23Zm0-1.15H32.3a.23.23,0,0,1,0-.46h2.3a.23.23,0,1,1,0,.46Z"/><path class="cls-51" d="M35.8,367.42l-2.07-2.07a0,0,0,0,0,0,0s0,0,0,0v1.87a.23.23,0,0,0,.23.23h1.87a0,0,0,0,0,0,0s0,0,0,0Z"/><path class="cls-51" d="M49.67,407.12a.31.31,0,1,0,0,.61.3.3,0,0,0,.3-.31.31.31,0,0,0-.3-.3Z"/><path class="cls-51" d="M51.37,405.89h0a.21.21,0,0,0-.17-.17,2.63,2.63,0,0,0-1.48.24,4.7,4.7,0,0,0-1.54,1,3.17,3.17,0,0,0-.34.39,1.52,1.52,0,0,0-.67.1,1.76,1.76,0,0,0-.91,1.35.29.29,0,0,0,.24.33h.08l.73-.08v0a.44.44,0,0,0,.11.24l.36.36a.44.44,0,0,0,.24.11h0l-.08.74h0a.3.3,0,0,0,.26.32h.07a1.75,1.75,0,0,0,1.35-.91,1.53,1.53,0,0,0,.11-.67,2.5,2.5,0,0,0,.39-.34,4.83,4.83,0,0,0,1-1.53A2.72,2.72,0,0,0,51.37,405.89Zm-1.23,2a.67.67,0,0,1-1-.95.66.66,0,0,1,1,0h0a.66.66,0,0,1,0,.94h0Z"/><path class="cls-51" d="M47.75,409.75a.22.22,0,0,0-.13,0,1.64,1.64,0,0,1-.22.14.16.16,0,0,1-.23-.05.17.17,0,0,1,0-.18l.14-.24a.17.17,0,0,0,0-.25.13.13,0,0,0-.12,0,.69.69,0,0,0-.41.2s-.17.17-.24.65c0,.14,0,.29,0,.43a.19.19,0,0,0,.18.19h0l.42,0c.49-.07.62-.2.66-.24a.72.72,0,0,0,.2-.41A.2.2,0,0,0,47.75,409.75Z"/><path class="cls-51" d="M19,412.38h-.42a.31.31,0,0,1-.31-.31h0v-1.89a.31.31,0,0,1,.31-.31H19a.31.31,0,0,1,.32.31h0v1.89a.31.31,0,0,1-.32.31Z"/><path class="cls-51" d="M22,412.38h-.42a.31.31,0,0,1-.32-.31h0v-3.14a.32.32,0,0,1,.32-.32H22a.31.31,0,0,1,.31.32h0v3.14a.31.31,0,0,1-.31.31Z"/><path class="cls-51" d="M23.43,412.38H23a.31.31,0,0,1-.31-.31h0v-4.61a.31.31,0,0,1,.31-.31h.42a.31.31,0,0,1,.32.31v4.61a.31.31,0,0,1-.32.31Z"/><path class="cls-51" d="M20.5,412.38h-.42a.31.31,0,0,1-.31-.31h0v-5.66a.31.31,0,0,1,.31-.31h.42a.31.31,0,0,1,.31.31v5.66a.31.31,0,0,1-.31.31Z"/><path class="cls-51" d="M56.12,384l-.3-.3a.37.37,0,0,0-.52,0l-2.08,1.92a.43.43,0,0,0-.13.26.41.41,0,0,0,.11.28l.45.45h0a.36.36,0,0,0,.26.11h0a.41.41,0,0,0,.27-.13l1.93-2.07a.37.37,0,0,0,0-.52Z"/><path class="cls-51" d="M58.53,383.38h0l-.39-.39a.23.23,0,0,0-.17-.07.25.25,0,0,0-.15.05v0a.43.43,0,0,0-.06-.29l-.28-.33h0a3.29,3.29,0,0,0-1-.64,1.58,1.58,0,0,0-.61-.12,1.17,1.17,0,0,0-.74.26A1.46,1.46,0,0,0,55,382a.18.18,0,0,0,0,.25.17.17,0,0,0,.17,0,.19.19,0,0,1,.1,0,.75.75,0,0,1,.21,0,1,1,0,0,1,.41.15.58.58,0,0,1,.21.47,1.23,1.23,0,0,1-.23.4.17.17,0,0,0,0,.24l.39.4a.18.18,0,0,0,.25,0c.12-.1.29-.25.34-.28a.41.41,0,0,1,.17-.07.15.15,0,0,1,.13,0h0l0,0h0a.26.26,0,0,0,0,.35h0l.39.39a.22.22,0,0,0,.17.07.24.24,0,0,0,.18-.07l.63-.63h0A.25.25,0,0,0,58.53,383.38Z"/><path class="cls-51" d="M13.57,383.8a.24.24,0,0,1-.23-.23.28.28,0,0,1,.07-.17l.53-.52-.53-.53a.22.22,0,0,1,0-.32.24.24,0,0,1,.33,0l.68.69a.22.22,0,0,1,0,.32h0l-.68.69A.28.28,0,0,1,13.57,383.8Z"/><path class="cls-51" d="M9.9,384.48a.23.23,0,0,1-.23-.23h0V384a1.38,1.38,0,0,1,1.38-1.38h3a.23.23,0,0,1,.23.23.23.23,0,0,1-.23.23h-3a.92.92,0,0,0-.92.92v.22a.23.23,0,0,1-.23.23Z"/><path class="cls-51" d="M11.74,386.32a.23.23,0,0,1-.17-.07l-.68-.69a.22.22,0,0,1,0-.32h0l.68-.69a.23.23,0,0,1,.33.33l-.53.52.53.53a.22.22,0,0,1,0,.32.2.2,0,0,1-.16.07Z"/><path class="cls-51" d="M11.28,385.63a.23.23,0,0,1-.23-.23.23.23,0,0,1,.23-.23h3a.92.92,0,0,0,.92-.92V384a.23.23,0,0,1,.46,0v.22a1.38,1.38,0,0,1-1.38,1.38Z"/></g></g></svg>