<svg xmlns="http://www.w3.org/2000/svg" width="67.267" height="72.521" viewBox="0 0 67.267 72.521">
  <g id="Grad_Hat" data-name="Grad Hat" transform="translate(0 -0.73)">
    <g id="Hat" transform="translate(0 0)">
      <path id="Path_9" data-name="Path 9" d="M0,0H50.393V13.054L24.725,23.3,0,13.054Z" transform="translate(9.359 36.466)"/>
      <path id="Path_13" data-name="Path 13" d="M0,16.356l24.725,10.4,25.668-10.4v1.531L24.725,28.134,0,17.887Z" transform="translate(9.359 30.928)" fill="#fc0"/>
      <path id="Path_14" data-name="Path 14" d="M0,16.356l24.725,10.4,25.668-10.4v1.531L24.725,28.134,0,17.887Z" transform="translate(9.359 28.814)" fill="#fc0"/>
      <g id="Width">
        <path id="Path_11" data-name="Path 11" d="M0,0,32.52,15.822,47.042,48.088,14.691,33.651Z" transform="translate(0 34.698) rotate(-45)" fill="#fff"/>
        <path id="Path_12" data-name="Path 12" d="M0,0,32.52,15.822,47.042,48.088,14.691,33.651Z" transform="translate(0 34.698) rotate(-45)" fill="#fff"/>
        <path id="Path_8" data-name="Path 8" d="M0,0,32.52,15.822,47.042,48.088,14.691,33.651Z" transform="translate(0 33.994) rotate(-45)" fill="#81919c"/>
        <path id="Path_15" data-name="Path 15" d="M0,0,32.52,15.822,47.042,48.088,14.691,33.651Z" transform="translate(0 33.994) rotate(-45)"/>
      </g>
    </g>
    <g id="Tasell" transform="translate(32.446 32.607)">
      <line id="Line_3" data-name="Line 3" x2="13.678" y2="8.071" transform="translate(1.749 1.437)" fill="none" stroke="#fc0" stroke-linecap="round" stroke-width="1"/>
      <line id="Line_4" data-name="Line 4" y2="24.706" transform="translate(15.427 9.508)" fill="none" stroke="#fc0" stroke-linecap="round" stroke-width="1"/>
      <g id="Ellipse_1" data-name="Ellipse 1" transform="translate(0 0)" fill="#fc0" stroke="#fc0" stroke-width="1">
        <ellipse cx="1.583" cy="0.41" rx="1.583" ry="0.41" stroke="none"/>
        <ellipse cx="1.583" cy="0.41" rx="1.083" ry="0.09" fill="none"/>
      </g>
      <g id="Group_1" data-name="Group 1" transform="translate(12.789 33.504)">
        <g id="Path_10" data-name="Path 10" transform="translate(2.044 0.064) rotate(17)" fill="#fc0" stroke-linejoin="round">
          <path d="M.218.6C.245-.2.369-.2.4.6L.637,5.942A3.085,3.085,0,0,1,.551,7.131l-.411,0a3.1,3.1,0,0,1-.1-1.19Z" stroke="none"/>
          <path d="M 0.3077351748943329 0.001863479614257813 C 0.3464324772357941 0.001863479614257813 0.3861894905567169 0.2015962600708008 0.4036551415920258 0.6010499000549316 L 0.6371351480484009 5.942180156707764 C 0.6625473499298096 6.523402690887451 0.6184002161026001 7.131070137023926 0.5507752299308777 7.131070137023926 C 0.5507545471191406 7.131070137023926 0.5507357716560364 7.131070137023926 0.5507151484489441 7.131070137023926 L 0.140105128288269 7.128870010375977 C 0.07245510816574097 7.128499984741211 0.02185511589050293 6.520150184631348 0.04113513231277466 5.938980102539063 L 0.2182651460170746 0.600059986114502 C 0.2314920723438263 0.201258659362793 0.2690850794315338 0.001863479614257813 0.3077351748943329 0.001863479614257813 Z" stroke="none" fill="#fc0"/>
        </g>
        <g id="Path_19" data-name="Path 19" transform="translate(5.506 6.893) rotate(163)" fill="#fc0" stroke-linejoin="round">
          <path d="M.176,6.528c.026.8.15.8.185,0L.595,1.186A3.085,3.085,0,0,0,.508,0L.1,0A3.1,3.1,0,0,0,0,1.189Z" stroke="none"/>
          <path d="M 0.2653160393238068 7.126410961151123 C 0.2266659438610077 7.126375198364258 0.18907330930233 6.927017688751221 0.1758463829755783 6.528215885162354 L -0.001283611170947552 1.189296007156372 C -0.02056361176073551 0.6081260442733765 0.03003638796508312 -0.0002239673631265759 0.09768638759851456 -0.000593967386521399 L 0.5082963705062866 -0.002793967258185148 C 0.5083170533180237 -0.002794077154248953 0.5083358287811279 -0.002794123720377684 0.5083564519882202 -0.002794123720377684 C 0.5759814977645874 -0.002794123720377684 0.6201286315917969 0.6048734784126282 0.5947163701057434 1.18609607219696 L 0.3612363934516907 6.527215957641602 C 0.3437707424163818 6.926674842834473 0.3040133416652679 7.126447200775146 0.2653160393238068 7.126410961151123 Z" stroke="none" fill="#fc0"/>
        </g>
        <g id="Path_16" data-name="Path 16" transform="translate(2.041 -2.027)" fill="#fc0" stroke-linejoin="round">
          <path d="M.619,2.627c.031-.8.154-.8.185,0l.2,5.349A3.109,3.109,0,0,1,.917,9.167H.507A3.109,3.109,0,0,1,.414,7.975Z" stroke="none"/>
          <path d="M 0.7117558121681213 2.027084350585938 C 0.7503657937049866 2.027084350585938 0.7889758348464966 2.226972579956055 0.8042958378791809 2.626747131347656 L 1.009265780448914 7.975387573242188 C 1.031575798988342 8.557607650756836 0.9842658042907715 9.16669750213623 0.9167258143424988 9.16669750213623 L 0.5067858099937439 9.16669750213623 C 0.4392458200454712 9.16669750213623 0.3919358253479004 8.557607650756836 0.4142458438873291 7.975387573242188 L 0.6192157864570618 2.626747131347656 C 0.6345357894897461 2.226972579956055 0.6731458306312561 2.027084350585938 0.7117558121681213 2.027084350585938 Z" stroke="none" fill="#fc0"/>
        </g>
        <g id="Path_17" data-name="Path 17" transform="matrix(0.985, -0.174, 0.174, 0.985, 2.569, 0.108)" fill="#fc0" stroke-linejoin="round">
          <path d="M.206.6C.239-.2.363-.2.391.6L.579,5.943a3.11,3.11,0,0,1-.1,1.191H.073a3.1,3.1,0,0,1-.089-1.19Z" stroke="none"/>
          <path d="M 0.3007465302944183 -0.001115798950195313 C 0.3393705487251282 -0.001115798950195313 0.3773367404937744 0.1984992027282715 0.391373336315155 0.5978970527648926 L 0.5792233347892761 5.942826747894287 C 0.599673330783844 6.524636745452881 0.550363302230835 7.133536815643311 0.482783317565918 7.133756637573242 L 0.07261332869529724 7.135107040405273 C 0.07260507345199585 7.135107040405273 0.07258495688438416 7.135107040405273 0.07257673144340515 7.135107040405273 C 0.005010366439819336 7.135107040405273 -0.04034370183944702 6.526675701141357 -0.01614665985107422 5.944777011871338 L 0.2061833143234253 0.5985069274902344 C 0.2228023707866669 0.1988143920898438 0.2621036469936371 -0.001115798950195313 0.3007465302944183 -0.001115798950195313 Z" stroke="none" fill="#fc0"/>
        </g>
        <g id="Path_18" data-name="Path 18" transform="matrix(0.985, 0.174, -0.174, 0.985, 2.34, 0)" fill="#fc0" stroke-linejoin="round">
          <path d="M.215.6C.243-.2.367-.2.4.6L.623,5.947a3.1,3.1,0,0,1-.089,1.19H.124a3.11,3.11,0,0,1-.1-1.191Z" stroke="none"/>
          <path d="M 0.3058009147644043 0.001134872436523438 C 0.3444483280181885 0.001134872436523438 0.3837430775165558 0.2010159492492676 0.4003641605377197 0.6007571220397949 L 0.6226941347122192 5.947027206420898 C 0.6468897461891174 6.528890609741211 0.6015303134918213 7.137357234954834 0.5339707732200623 7.137357234954834 C 0.5339584350585938 7.137357234954834 0.5339465141296387 7.137357234954834 0.5339341759681702 7.137357234954834 L 0.1237541437149048 7.136007308959961 C 0.05618417263031006 7.135787487030029 0.006874144077301025 6.5268874168396 0.0273241400718689 5.945077419281006 L 0.21517413854599 0.6001472473144531 C 0.2292090058326721 0.200798511505127 0.267181783914566 0.001134872436523438 0.3058009147644043 0.001134872436523438 Z" stroke="none" fill="#fc0"/>
        </g>
      </g>
      <g id="Ellipse_2" data-name="Ellipse 2" transform="translate(13.453 32.238)" fill="#fc0" stroke="#fc0" stroke-width="1">
        <ellipse cx="1.978" cy="2.05" rx="1.978" ry="2.05" stroke="none"/>
        <ellipse cx="1.978" cy="2.05" rx="1.478" ry="1.55" fill="none"/>
      </g>
    </g>
  </g>
</svg>
