<?xml version="1.0" encoding="utf-8"?>
<!-- Generator: Adobe Illustrator 24.1.0, SVG Export Plug-In . SVG Version: 6.00 Build 0)  -->
<svg version="1.1" id="Layer_1" xmlns="http://www.w3.org/2000/svg" xmlns:xlink="http://www.w3.org/1999/xlink" x="0px" y="0px"
	 viewBox="0 0 792 612" style="enable-background:new 0 0 792 612;" xml:space="preserve">
<style type="text/css">
	.st0{fill:#FFFFFF;stroke:#231F20;stroke-miterlimit:10;}
	.st1{fill:none;stroke:#231F20;stroke-width:4;stroke-miterlimit:10;}
	.st2{fill:none;stroke:#231F20;stroke-width:4;stroke-linecap:round;stroke-miterlimit:10;}
	.st3{fill:none;stroke:#F7941D;stroke-miterlimit:10;}
	.st4{fill:none;stroke:#231F20;stroke-linecap:round;stroke-miterlimit:10;}
	.st5{fill:none;stroke:#39B54A;stroke-width:3;stroke-linecap:round;stroke-miterlimit:10;}
</style>
<circle class="st0" cx="393.47" cy="349.01" r="211.3"/>
<g>
	<path class="st1" d="M364.03,314.33c3.81-2.46,7.61-4.92,11.42-7.37c1.56,0.2,8.45,0.89,14.89-3.76
		c7.35-5.31,8.39-13.44,8.53-14.75c5.54,5.34,11.98,13.42,12.87,23.86c0.82,9.63-3.54,16.13-8.24,27.33c0,0-5.04,12.02-10.7,40.05
		c-2.11,10.47-3.54,37.61,37.73,84.58c-4.8-12.23-10.56-31.26-11.13-55.08c-0.46-19.06,2.56-34.96,5.64-46.27"/>
	<path class="st2" d="M364.03,313.76c0.26-1.69,1.03-5.27,3.76-8.82c2.77-3.59,6.09-5.26,7.66-5.93c-0.13-2.92,0.05-9.05,4.05-14.31
		c6.8-8.94,20.95-10.54,29.49-5.93c14.22,7.69,13.86,33.16,10.84,46.7c-1.71,7.67-3.74,9.14-6.07,19.52
		c-2.72,12.1-2.76,22.51-2.31,29.64c3.37-8.93,9.43-21.72,20.67-34.12c4.31-4.75,7.68-7.57,9.54-9.25
		c9.35-8.46,20.6-24.45,27.76-57.69c8.77,19.1,7.65,32.17,5.49,40.05c-1.51,5.51-5.84,21.34-13.88,31.81
		c-1.2,1.56-5.01,6.3-6.07,13.3c-0.47,3.12-0.26,5.77,0,7.52c1.9-5.65,4.62-9.12,6.8-11.28c4.42-4.37,8-4.63,11.06-9.4
		c3.15-4.91,4.84-9.25,4.84-9.25s5.55,19.24-3.11,30.72c-3.64,4.82-7.01,4.34-12.72,10.55c-5.2,5.65-7.79,11.84-9.18,16.34
		c2.48-0.44,6.95-1.57,11.49-4.84c5.53-3.99,8.13-8.98,9.18-11.35c0.78,2.26,2.38,7.86,0.51,14.46c-1.69,5.96-5.93,8.51-14.02,15.69
		c-10.22,9.06-15.33,13.59-17.78,18.07c-3.14,5.74-5.11,15.22,0.94,31.37"/>
	<path class="st2" d="M383.21,364.65c-2.69-7.89-7.85-19.07-18.43-27.98c-7.32-6.16-11.96-6.79-17.35-12.14
		c-5.84-5.8-12.02-16.6-11.06-38.6c-15.42,19.4-16.24,31.7-13.88,39.47c1.93,6.34,5.79,9.04,12.14,18
		c8.65,12.21,13.27,23.83,15.83,31.88c-5.13-8.76-10.73-12.85-14.96-14.96c-3.97-1.98-8.04-2.87-11.28-6.94
		c-2.64-3.32-6.92-8.48-7.18-11.13c-2.03,15.63,5.21,25.52,9.13,30.43c7.16,8.96,16.87,8.41,26.67,19.08
		c6.12,6.66,8.96,14.08,10.41,19.3c-6.15-6.29-11.51-8.29-15.4-8.89c-2.39-0.37-5.52-0.42-8.67-2.6c-2.66-1.84-7.71-4.96-8.55-6.87
		c0.38,2.76,6.03,16.37,17.88,25.73c8.42,6.66,16.86,3.1,30.14,7.81c11.41,4.04,19.32,11.02,24.07,16.05"/>
	<path class="st3" d="M390.65,269.45c-3.61,1.93-7.95,4.65-12.45,8.45c-4.77,4.03-8.33,8.1-10.9,11.49
		c-0.67-0.55-1.35-1.1-2.03-1.66c0.01-0.01,0.02-0.03,0.02-0.04c2.15-3.45,5.44-7.93,10.24-12.36c4.64-4.27,9.2-7.11,12.73-8.96
		c0.01-0.01,0.03-0.01,0.04-0.02C389.08,267.38,389.86,268.42,390.65,269.45z"/>
	<path class="st3" d="M388.26,266.37c-3.53,1.85-8.09,4.69-12.73,8.96c-4.8,4.43-8.09,8.91-10.24,12.36
		c-4.65-3.99-9.3-7.98-13.95-11.97c1.47,0.19,3.72,0.68,6.16,2c2.95,1.59,4.78,3.66,5.73,4.92c0.21-0.12,1.67-0.95,2-2.71
		c0.25-1.28-0.26-2.29-0.43-2.59c0.39,0.08,2.26,0.45,4.11-0.7c1.62-1.01,2.18-2.54,2.33-2.98c-0.22-0.96-0.81-3.05-2.6-4.97
		c-2.18-2.35-4.79-3-5.73-3.19c-0.7-1.33-1.11-3.19-1.81-4.52c1.68,0.4,3.05,1.31,4.73,1.71c1.01,1.54,2.35,3.33,4.11,5.13
		c1.31,1.35,2.6,2.46,3.78,3.36c0.29-0.02,1.7-0.15,2.76-1.36c1.2-1.35,1.01-3,0.97-3.24c0.61,0.23,2.12,0.72,3.95,0.27
		c1.1-0.27,1.9-0.77,2.38-1.13c-0.94-1.07-2.4-3.02-3.25-5.84c-0.63-2.1-0.7-3.94-0.65-5.19
		C382.68,258.58,385.48,262.48,388.26,266.37z"/>
	<path class="st3" d="M388.31,266.44c-0.02-0.02-0.03-0.05-0.05-0.07"/>
	<path class="st4" d="M365.36,287.75c-0.02-0.02-0.05-0.04-0.07-0.06"/>
	<path class="st3" d="M349.26,272.22c0,0.81-0.65,1.47-1.46,1.47s-1.46-0.66-1.46-1.47s0.65-1.46,1.46-1.46
		S349.26,271.41,349.26,272.22z"/>
	<path class="st3" d="M362.69,275.3c0,0.49-0.4,0.9-0.9,0.9s-0.91-0.41-0.91-0.9c0-0.5,0.41-0.91,0.91-0.91
		S362.69,274.8,362.69,275.3z"/>
	<path class="st3" d="M359.44,258.14c0,0.81-0.66,1.47-1.47,1.47c-0.8,0-1.46-0.66-1.46-1.47c0-0.8,0.66-1.46,1.46-1.46
		C358.78,256.68,359.44,257.34,359.44,258.14z"/>
	<path class="st3" d="M377.84,250.92c0,0.8-0.66,1.46-1.47,1.46s-1.46-0.66-1.46-1.46c0-0.81,0.65-1.47,1.46-1.47
		S377.84,250.11,377.84,250.92z"/>
	<path class="st3" d="M376.05,263.68c0,0.49-0.41,0.9-0.91,0.9s-0.9-0.41-0.9-0.9c0-0.5,0.4-0.91,0.9-0.91
		S376.05,263.18,376.05,263.68z"/>
	<path class="st5" d="M278.27,447.11c-8.05-12.19-31.12-50.58-26.02-102.07c3.02-30.51,14.71-53.28,22.55-65.93"/>
	<path class="st5" d="M276.52,274.54c-0.41-0.49,1.27-2.83,3.2-4.39c2.33-1.88,4.88-2.49,6.51-2.71c-0.85,1.19-2.21,2.84-4.23,4.39
		C279.99,273.37,276.97,275.07,276.52,274.54z"/>
	<path class="st5" d="M264.05,287.66c-0.61,0.19-2.11-2.27-2.8-4.66c-0.82-2.88-0.39-5.46,0.04-7.05c0.76,1.24,1.76,3.14,2.39,5.61
		C264.32,284.01,264.72,287.45,264.05,287.66z"/>
	<path class="st5" d="M270.83,297.96c-0.25-0.59,2.06-2.33,4.37-3.23c2.78-1.09,5.4-0.91,7.02-0.64c-1.16,0.88-2.95,2.05-5.35,2.93
		C274.49,297.88,271.1,298.6,270.83,297.96z"/>
	<path class="st5" d="M256.87,303.59c-0.55,0.32-2.57-1.74-3.77-3.91c-1.45-2.62-1.6-5.24-1.54-6.88c1.02,1.04,2.42,2.66,3.59,4.93
		C256.31,299.97,257.47,303.24,256.87,303.59z"/>
	<path class="st5" d="M265.42,310.8c-0.27-0.58,1.98-2.39,4.26-3.38c2.75-1.19,5.37-1.09,6.99-0.87c-1.13,0.92-2.89,2.15-5.25,3.1
		C269.08,310.6,265.71,311.44,265.42,310.8z"/>
	<path class="st5" d="M251.66,318.68c-0.57,0.28-2.43-1.93-3.46-4.19c-1.24-2.72-1.2-5.34-1.02-6.97c0.94,1.11,2.21,2.84,3.21,5.18
		C251.38,315.03,252.29,318.37,251.66,318.68z"/>
	<path class="st5" d="M259.28,325.42c-0.19-0.6,2.25-2.14,4.63-2.84c2.87-0.85,5.46-0.44,7.05-0.02c-1.23,0.77-3.12,1.78-5.58,2.45
		C262.94,325.66,259.5,326.09,259.28,325.42z"/>
	<path class="st5" d="M248.49,336.5c-0.53,0.35-2.67-1.58-4-3.67c-1.6-2.52-1.92-5.13-1.96-6.77c1.08,0.97,2.57,2.51,3.89,4.7
		C247.72,332.92,249.07,336.11,248.49,336.5z"/>
	<path class="st5" d="M256.96,342.14c-0.27-0.57,1.94-2.42,4.2-3.44c2.73-1.23,5.35-1.18,6.98-0.99c-1.12,0.94-2.85,2.19-5.2,3.19
		C260.61,341.88,257.26,342.77,256.96,342.14z"/>
	<path class="st5" d="M247.12,355.1c-0.49,0.41-2.83-1.27-4.39-3.21c-1.87-2.33-2.48-4.88-2.7-6.51c1.18,0.85,2.84,2.21,4.38,4.24
		C245.96,351.63,247.66,354.65,247.12,355.1z"/>
	<path class="st5" d="M256.17,359.77c-0.34-0.54,1.66-2.62,3.79-3.89c2.57-1.53,5.18-1.76,6.83-1.75c-1.01,1.05-2.59,2.5-4.81,3.74
		C259.77,359.1,256.54,360.36,256.17,359.77z"/>
	<path class="st5" d="M248.32,373.72c-0.46,0.44-2.91-1.09-4.58-2.92c-2.02-2.21-2.79-4.71-3.12-6.32c1.24,0.77,2.97,2.02,4.65,3.94
		C246.93,370.33,248.83,373.23,248.32,373.72z"/>
	<path class="st5" d="M257.64,377.79c-0.37-0.52,1.49-2.73,3.53-4.13c2.47-1.69,5.06-2.1,6.7-2.19c-0.94,1.12-2.42,2.66-4.56,4.05
		C261.2,376.89,258.05,378.36,257.64,377.79z"/>
	<path class="st5" d="M250.38,393.68c-0.37,0.52-3.06-0.51-5.06-1.98c-2.4-1.78-3.64-4.09-4.27-5.61c1.36,0.52,3.31,1.42,5.32,2.98
		C248.37,390.63,250.79,393.11,250.38,393.68z"/>
	<path class="st5" d="M260.32,395.9c-0.46-0.44,0.94-2.96,2.68-4.73c2.1-2.13,4.56-3.03,6.16-3.43c-0.71,1.27-1.87,3.07-3.7,4.84
		C263.63,394.34,260.83,396.38,260.32,395.9z"/>
	<path class="st5" d="M255.03,413.25c-0.24,0.59-3.1,0.19-5.37-0.8c-2.74-1.19-4.46-3.17-5.42-4.51c1.44,0.2,3.54,0.64,5.85,1.71
		C252.38,410.72,255.29,412.6,255.03,413.25z"/>
	<path class="st5" d="M265.2,413.17c-0.55-0.32,0.25-3.09,1.55-5.21c1.57-2.55,3.77-3.97,5.23-4.73c-0.4,1.4-1.13,3.41-2.52,5.55
		C268.08,410.91,265.81,413.53,265.2,413.17z"/>
	<path class="st5" d="M262.2,429.83c-0.22,0.6-3.09,0.32-5.4-0.58c-2.79-1.08-4.59-2.99-5.6-4.29c1.45,0.14,3.56,0.49,5.92,1.47
		C259.46,427.41,262.44,429.17,262.2,429.83z"/>
	<path class="st5" d="M272.37,429.35c-0.56-0.3,0.12-3.1,1.34-5.27c1.46-2.61,3.6-4.12,5.03-4.93c-0.34,1.42-0.99,3.46-2.29,5.65
		C275.15,426.97,272.99,429.67,272.37,429.35z"/>
	<path class="st5" d="M508.67,443.64c8.05-12.19,31.12-50.58,26.02-102.07c-3.02-30.51-14.71-53.28-22.55-65.93"/>
	<path class="st5" d="M510.42,271.07c0.41-0.49-1.27-2.83-3.2-4.39c-2.33-1.88-4.88-2.49-6.51-2.71c0.85,1.19,2.21,2.84,4.23,4.39
		C506.95,269.9,509.97,271.6,510.42,271.07z"/>
	<path class="st5" d="M522.89,284.19c0.61,0.19,2.11-2.27,2.8-4.66c0.82-2.88,0.39-5.46-0.04-7.05c-0.76,1.24-1.76,3.14-2.39,5.61
		C522.62,280.54,522.22,283.98,522.89,284.19z"/>
	<path class="st5" d="M516.11,294.49c0.25-0.59-2.06-2.33-4.37-3.23c-2.78-1.09-5.4-0.91-7.02-0.64c1.16,0.88,2.95,2.05,5.35,2.93
		C512.45,294.41,515.84,295.13,516.11,294.49z"/>
	<path class="st5" d="M530.07,300.12c0.55,0.32,2.57-1.74,3.77-3.91c1.45-2.62,1.6-5.24,1.54-6.88c-1.02,1.04-2.42,2.66-3.59,4.93
		C530.63,296.5,529.47,299.77,530.07,300.12z"/>
	<path class="st5" d="M521.52,307.33c0.27-0.58-1.98-2.39-4.26-3.38c-2.75-1.19-5.37-1.09-6.99-0.87c1.13,0.92,2.89,2.15,5.25,3.1
		C517.87,307.13,521.23,307.97,521.52,307.33z"/>
	<path class="st5" d="M535.28,315.21c0.57,0.28,2.43-1.93,3.46-4.19c1.24-2.72,1.2-5.34,1.02-6.97c-0.94,1.11-2.21,2.84-3.21,5.18
		C535.56,311.56,534.65,314.9,535.28,315.21z"/>
	<path class="st5" d="M527.66,321.95c0.19-0.6-2.25-2.14-4.63-2.84c-2.87-0.85-5.46-0.44-7.05-0.02c1.23,0.77,3.12,1.78,5.58,2.45
		C524.01,322.19,527.45,322.62,527.66,321.95z"/>
	<path class="st5" d="M538.45,333.03c0.53,0.35,2.67-1.58,4-3.67c1.6-2.52,1.92-5.13,1.96-6.77c-1.08,0.97-2.57,2.51-3.89,4.7
		C539.23,329.45,537.87,332.64,538.45,333.03z"/>
	<path class="st5" d="M529.98,338.67c0.27-0.57-1.94-2.42-4.2-3.44c-2.73-1.23-5.35-1.18-6.98-0.99c1.12,0.94,2.85,2.19,5.2,3.19
		C526.33,338.41,529.68,339.3,529.98,338.67z"/>
	<path class="st5" d="M539.82,351.63c0.49,0.41,2.83-1.27,4.39-3.21c1.87-2.33,2.48-4.88,2.7-6.51c-1.18,0.85-2.84,2.21-4.38,4.24
		C540.98,348.16,539.28,351.18,539.82,351.63z"/>
	<path class="st5" d="M530.78,356.3c0.34-0.54-1.66-2.62-3.79-3.89c-2.57-1.53-5.18-1.76-6.83-1.75c1.01,1.05,2.59,2.5,4.81,3.74
		C527.17,355.63,530.4,356.89,530.78,356.3z"/>
	<path class="st5" d="M538.62,370.25c0.46,0.44,2.91-1.09,4.58-2.92c2.02-2.21,2.79-4.71,3.12-6.32c-1.24,0.77-2.97,2.02-4.65,3.94
		C540.01,366.86,538.12,369.76,538.62,370.25z"/>
	<path class="st5" d="M529.3,374.32c0.37-0.52-1.49-2.73-3.53-4.13c-2.47-1.69-5.06-2.1-6.7-2.19c0.94,1.12,2.42,2.66,4.56,4.05
		C525.75,373.42,528.89,374.89,529.3,374.32z"/>
	<path class="st5" d="M536.56,390.22c0.37,0.52,3.06-0.51,5.06-1.98c2.4-1.78,3.64-4.09,4.27-5.61c-1.36,0.52-3.31,1.42-5.32,2.98
		C538.57,387.16,536.15,389.64,536.56,390.22z"/>
	<path class="st5" d="M526.63,392.43c0.46-0.44-0.94-2.96-2.68-4.73c-2.1-2.13-4.56-3.03-6.16-3.43c0.71,1.27,1.87,3.07,3.7,4.84
		C523.31,390.87,526.12,392.91,526.63,392.43z"/>
	<path class="st5" d="M531.91,409.78c0.24,0.59,3.1,0.19,5.37-0.8c2.74-1.19,4.46-3.17,5.42-4.51c-1.44,0.2-3.54,0.64-5.85,1.71
		C534.56,407.25,531.65,409.13,531.91,409.78z"/>
	<path class="st5" d="M521.74,409.7c0.55-0.32-0.25-3.09-1.55-5.21c-1.57-2.55-3.77-3.97-5.23-4.73c0.4,1.4,1.13,3.41,2.52,5.55
		C518.86,407.44,521.13,410.06,521.74,409.7z"/>
	<path class="st5" d="M524.74,426.36c0.22,0.6,3.09,0.32,5.4-0.58c2.79-1.08,4.59-2.99,5.6-4.29c-1.45,0.14-3.56,0.49-5.92,1.47
		C527.49,423.94,524.5,425.7,524.74,426.36z"/>
	<path class="st5" d="M514.57,425.88c0.56-0.3-0.12-3.1-1.34-5.27c-1.46-2.61-3.6-4.12-5.03-4.93c0.34,1.42,0.99,3.46,2.29,5.65
		C511.79,423.5,513.96,426.2,514.57,425.88z"/>
	<g>
		<g>
			<path d="M291.67,215.48c1.66-2.3,2.62-3.58,2.83-3.86c1.13,3.22,2.26,6.45,3.38,9.67c-0.16,0.01-0.33,0.02-0.49,0.02
				c-1.43-2.4-3.56-4.1-6.44-5.01c-2.87-0.92-5.76-0.81-8.6,0.33c-1.97,0.79-3.52,1.85-4.65,3.14c-1.41,1.58-1.74,3.19-1.04,4.79
				c0.68,1.55,2.16,2.4,4.43,2.59c1.92,0.18,4.72-0.13,8.42-0.84c4.81-0.86,8.05-1.05,9.71-0.74c2.72,0.54,4.58,2.4,5.63,5.51
				c0.98,2.94,0.61,5.58-1.04,7.95c-1.39,2.01-3.37,3.5-5.99,4.5c-2.01,0.77-3.9,1.2-5.7,1.29c-1.8,0.09-3.55-0.24-5.25-1.02
				c-1.07,3.15-1.58,4.79-1.65,4.92c-1.76-3.95-3.51-7.9-5.27-11.86c0.13-0.08,0.27-0.15,0.4-0.23c1.76,2.17,3.37,3.83,4.84,4.96
				c1.23,0.97,2.49,1.68,3.76,2.13c2.5,0.89,5.43,0.65,8.87-0.66c1.6-0.61,2.9-1.61,3.91-3c1.17-1.62,1.49-3.22,0.93-4.81
				c-0.68-1.95-2.29-3.11-4.87-3.44c-1.77-0.22-4.67-0.06-8.72,0.6c-4.04,0.66-6.98,0.94-8.81,0.71c-2.7-0.36-4.62-1.74-5.73-4.2
				c-0.99-2.2-0.85-4.52,0.52-6.95c1.36-2.43,3.48-4.25,6.33-5.4c2.43-0.98,4.54-1.48,6.32-1.52
				C288.24,215.05,289.57,215.17,291.67,215.48z"/>
			<path d="M322.5,220.86c0.88,3.43,1.75,6.85,2.63,10.28c0.23,0.88,0.44,1.43,0.64,1.64c0.1,0.1,0.38,0.17,0.84,0.2
				c0.46,0.03,1.31-0.06,2.56-0.27c1.25-0.21,2.95-0.56,5.1-1.03c0.03,0.15,0.07,0.31,0.1,0.46c-7.61,1.68-15.16,3.7-22.63,6.07
				c-0.05-0.15-0.09-0.3-0.14-0.45c1.77-0.56,3.22-1.05,4.36-1.49c1.14-0.44,1.9-0.78,2.28-1.04c0.38-0.26,0.59-0.45,0.62-0.6
				c0.07-0.28-0.02-0.86-0.27-1.74c-2.2-7.77-4.41-15.54-6.61-23.32c-0.23-0.82-0.46-1.32-0.68-1.52c-0.11-0.1-0.38-0.15-0.8-0.16
				c-1.3,0.02-3.91,0.58-7.8,1.82c-0.04-0.13-0.09-0.27-0.13-0.4c7.49-2.38,15.06-4.45,22.68-6.2c4.68-1.07,8.57-0.97,11.59,0.21
				c2.85,1.12,4.47,3.01,4.92,5.6c0.31,1.76-0.37,3.53-1.98,5.32c-2,2.22-4.94,3.72-8.87,4.59
				C328.11,219.47,325.3,220.15,322.5,220.86z M322.39,220.45c1.87-0.48,3.75-0.94,5.63-1.38c3.09-0.72,5.11-1.83,6.08-3.42
				c0.82-1.36,0.98-3.28,0.48-5.78c-0.53-2.62-1.65-4.46-3.38-5.51c-1.73-1.05-4.14-1.24-7.17-0.53c-0.94,0.22-1.89,0.45-2.83,0.68
				c-0.83,0.2-1.42,0.4-1.79,0.59c-0.37,0.19-0.57,0.44-0.59,0.76c-0.02,0.31,0.08,0.91,0.3,1.8
				C320.21,211.93,321.3,216.19,322.39,220.45z"/>
			<path d="M366.69,216.52c-3.59,0.31-7.17,0.7-10.74,1.15c-0.4,1.45-0.78,2.89-1.16,4.34c-0.3,1.09-0.39,2.01-0.29,2.75
				c0.16,1.15,0.77,1.91,1.84,2.28c1.07,0.37,2.51,0.44,4.33,0.23c0.02,0.16,0.04,0.31,0.05,0.47c-4.53,0.52-9.05,1.15-13.56,1.91
				c-0.03-0.15-0.05-0.31-0.08-0.46c2.45-0.41,4.23-1.5,5.36-3.32c0.63-1.01,1.33-3.01,2.17-6.01c2.13-7.73,4.53-15.43,7.18-23.1
				c0.4-0.04,0.8-0.08,1.2-0.12c5.18,8.75,9.95,17.63,14.32,26.63c0.61,1.26,1.18,2,1.73,2.21c0.55,0.21,2.17,0.26,4.86,0.19
				c0,0.16,0.01,0.31,0.01,0.47c-6.62,0.16-13.23,0.57-19.82,1.23c-0.02-0.16-0.03-0.31-0.05-0.47c2.68-0.27,4.52-0.5,5.51-0.76
				c0.99-0.25,1.47-0.64,1.43-1.18c-0.05-0.15-0.1-0.31-0.14-0.46C369.5,221.84,368.11,219.18,366.69,216.52z M366.36,216.03
				c-2.05-3.82-4.18-7.62-6.39-11.4c-1.35,4.16-2.63,8.32-3.82,12.5C359.55,216.69,362.96,216.33,366.36,216.03z"/>
			<path d="M417.04,218.13c0.44-4.34,0.88-8.69,1.32-13.03c0.29-2.84-0.12-4.86-1.25-6.04c-1.13-1.18-3.32-1.92-6.55-2.15
				c0.01-0.14,0.02-0.28,0.03-0.42c5.68,0.4,11.35,0.98,17,1.71c-0.02,0.14-0.04,0.28-0.05,0.42c-2.82-0.37-4.86-0.06-6.08,0.88
				c-1.23,0.94-1.98,2.83-2.27,5.67c-0.78,7.49-1.56,14.98-2.34,22.47c-0.43-0.04-0.86-0.09-1.29-0.13
				c-6.27-8.93-13.25-17.64-20.91-26.04c-0.21-0.21-0.42-0.41-0.64-0.62c-0.12,0-0.18,0.28-0.19,0.84
				c-0.07,5.12-0.14,10.23-0.2,15.35c-0.04,3.45,0.47,5.75,1.53,6.9c1.06,1.15,3.04,1.76,5.97,1.88c-0.01,0.16-0.01,0.31-0.02,0.47
				c-5.22-0.22-10.45-0.29-15.67-0.19c0-0.16-0.01-0.31-0.01-0.47c2.8-0.05,4.72-0.55,5.77-1.55c1.05-1,1.6-2.97,1.63-5.93
				c0.05-5.34,0.11-10.69,0.16-16.03c0.02-1.76-0.56-3.15-1.75-4.16c-1.43-1.2-3.55-1.8-6.35-1.75c0-0.14-0.01-0.28-0.01-0.42
				c4.15-0.07,8.29-0.06,12.44,0.04c6.74,7.22,12.96,14.68,18.66,22.31c0.43,0.58,0.69,0.87,0.8,0.88
				C416.89,219.06,416.98,218.75,417.04,218.13z"/>
			<path d="M446.75,221.53c-3.53-0.76-7.08-1.45-10.64-2.07c-0.81,1.27-1.6,2.54-2.39,3.81c-0.6,0.95-0.96,1.8-1.09,2.55
				c-0.19,1.15,0.18,2.05,1.09,2.72c0.91,0.67,2.27,1.16,4.08,1.5c-0.03,0.15-0.06,0.31-0.09,0.46c-4.5-0.84-9.01-1.56-13.53-2.16
				c0.02-0.16,0.04-0.31,0.06-0.47c2.46,0.33,4.48-0.19,6.1-1.59c0.9-0.78,2.16-2.49,3.84-5.1c4.31-6.76,8.88-13.41,13.69-19.96
				c0.39,0.08,0.79,0.16,1.18,0.24c2.39,9.89,4.36,19.79,5.91,29.68c0.21,1.38,0.55,2.26,1.01,2.62c0.47,0.37,2.01,0.89,4.63,1.63
				c-0.04,0.15-0.09,0.3-0.13,0.45c-6.43-1.82-12.9-3.38-19.42-4.69c0.03-0.15,0.06-0.31,0.09-0.46c2.65,0.53,4.49,0.85,5.52,0.91
				c1.03,0.05,1.6-0.18,1.72-0.7c0-0.16,0-0.32,0-0.48C447.88,227.45,447.33,224.49,446.75,221.53z M446.58,220.97
				c-0.85-4.26-1.77-8.52-2.77-12.78c-2.52,3.57-4.97,7.18-7.34,10.81C439.85,219.59,443.22,220.25,446.58,220.97z"/>
			<path d="M478.82,242.22c-0.47-9.99-1.35-20.05-2.64-30.13c-0.16-1.37-0.53-2.27-1.11-2.71c-0.58-0.44-2.36-1.13-5.35-1.99
				c0.04-0.14,0.08-0.27,0.12-0.41c7.08,2.03,14.09,4.34,21.03,6.92c-0.05,0.13-0.1,0.26-0.15,0.4c-2.63-0.98-4.47-1.51-5.51-1.66
				c-1.04-0.15-1.67,0.08-1.87,0.67c-0.08,0.24-0.1,0.61-0.07,1.12c0.82,7.29,1.43,14.56,1.81,21.8c3.62-3.91,7.35-7.76,11.16-11.54
				c1.25-1.29,2.06-2.38,2.44-3.28c0.95-2.29-0.51-4.26-4.42-5.77c0.05-0.13,0.1-0.26,0.15-0.39c4.92,1.9,9.8,3.95,14.64,6.13
				c-0.06,0.13-0.12,0.26-0.17,0.39c-3.21-1.45-6.05-1.32-8.44,0.33c-0.75,0.54-1.98,1.61-3.66,3.22
				c-5.72,5.67-11.23,11.49-16.51,17.44C479.78,242.57,479.3,242.39,478.82,242.22z"/>
		</g>
	</g>
	<g>
		<g>
			<path d="M311.93,477.17c-0.16,0.93-0.33,1.86-0.49,2.79c0.58-0.71,1.16-1.42,1.73-2.13c3.04-3.46,6.01-6.97,8.91-10.52
				c0.46,0.18,0.91,0.36,1.37,0.53c-0.29,4.57-0.5,9.15-0.63,13.75c-0.07,0.92-0.13,1.84-0.19,2.76c0.53-0.8,1.05-1.59,1.58-2.39
				c2.61-3.66,5.16-7.35,7.65-11.07c0.52,0.18,1.05,0.35,1.57,0.53c-3.42,5.11-6.96,10.15-10.62,15.14
				c-0.53-0.19-1.06-0.38-1.58-0.57c0.11-4.89,0.32-9.77,0.61-14.62c0.06-0.61,0.11-1.21,0.17-1.82c-0.36,0.49-0.73,0.97-1.09,1.46
				c-3.11,3.76-6.3,7.47-9.57,11.13c-0.52-0.22-1.04-0.44-1.56-0.66c0.68-6.15,1.49-12.26,2.42-18.34c0.51,0.23,1.02,0.46,1.53,0.68
				C313.08,468.25,312.47,472.7,311.93,477.17z"/>
			<path d="M335.73,472.95c0.08-0.26,0.25-0.45,0.49-0.58c0.24-0.12,0.52-0.13,0.84-0.03c0.32,0.1,0.54,0.27,0.67,0.51
				c0.13,0.24,0.16,0.49,0.08,0.75c-0.08,0.26-0.24,0.45-0.49,0.57c-0.24,0.12-0.53,0.13-0.85,0.03c-0.32-0.1-0.55-0.27-0.67-0.5
				C335.67,473.46,335.65,473.21,335.73,472.95z M332.48,489.77c-0.54-0.17-1.09-0.34-1.63-0.51c1.33-4.2,2.66-8.39,3.99-12.59
				c0.51,0.16,1.02,0.32,1.54,0.48C335.08,481.36,333.78,485.57,332.48,489.77z"/>
			<path d="M342.03,478.82c-0.19,0.73-0.37,1.46-0.56,2.19c0.75-0.64,1.57-1.05,2.47-1.25c0.9-0.2,1.82-0.18,2.77,0.07
				c1.5,0.39,2.52,1.05,3.08,2c0.55,0.95,0.66,2.21,0.3,3.76c-0.66,2.81-1.33,5.62-1.99,8.44c-0.55-0.13-1.09-0.26-1.64-0.39
				c0.68-2.81,1.37-5.62,2.05-8.43c0.27-1.15,0.21-2.07-0.18-2.76c-0.39-0.69-1.16-1.18-2.31-1.48c-0.96-0.25-1.89-0.2-2.78,0.14
				c-0.89,0.34-1.65,0.92-2.26,1.75c-0.81,2.9-1.63,5.81-2.44,8.71c-0.54-0.15-1.08-0.31-1.62-0.46c1.22-4.23,2.44-8.46,3.66-12.69
				C341.05,478.54,341.54,478.68,342.03,478.82z"/>
			<path d="M353.13,488.27c0.44-2.02,1.3-3.51,2.53-4.48c1.24-0.97,2.68-1.29,4.37-0.96c1.93,0.37,3.26,1.34,4.03,2.92
				c0.13-0.62,0.27-1.24,0.4-1.86c0.49,0.08,0.98,0.17,1.47,0.25c-0.71,4.26-1.41,8.51-2.12,12.77c-0.28,1.68-1.04,2.92-2.31,3.71
				c-1.27,0.79-2.86,1.01-4.75,0.65c-1.07-0.21-2.05-0.61-2.93-1.21c-0.88-0.6-1.52-1.3-1.93-2.08c0.37-0.22,0.75-0.44,1.12-0.66
				c0.92,1.49,2.21,2.41,3.86,2.72c1.41,0.27,2.58,0.12,3.49-0.45c0.91-0.57,1.49-1.48,1.74-2.74c0.09-0.55,0.19-1.09,0.28-1.64
				c-1.28,1.1-2.95,1.46-4.99,1.07c-1.74-0.34-3.02-1.23-3.8-2.64c-0.79-1.42-0.95-3.14-0.5-5.17
				C353.1,488.4,353.12,488.33,353.13,488.27z M354.7,488.87c-0.35,1.65-0.25,3.03,0.31,4.14c0.56,1.11,1.54,1.81,2.93,2.07
				c2.03,0.39,3.63-0.15,4.74-1.59c0.35-2.02,0.7-4.03,1.05-6.05c-0.23-0.9-0.65-1.63-1.27-2.19c-0.62-0.56-1.41-0.93-2.38-1.12
				c-1.32-0.25-2.45,0.01-3.38,0.8C355.76,485.72,355.09,487.03,354.7,488.87z"/>
			<path d="M377.54,495.66c0.08-0.72-0.19-1.33-0.79-1.84c-0.6-0.51-1.54-0.96-2.82-1.37c-1.28-0.41-2.25-0.83-2.92-1.25
				c-0.67-0.42-1.15-0.88-1.43-1.39c-0.28-0.51-0.37-1.09-0.27-1.74c0.15-1.03,0.75-1.81,1.79-2.35c1.04-0.54,2.28-0.71,3.75-0.53
				c1.59,0.2,2.83,0.7,3.72,1.53c0.89,0.83,1.28,1.82,1.17,2.99c-0.54-0.05-1.08-0.11-1.61-0.17c0.08-0.77-0.2-1.45-0.85-2.03
				c-0.65-0.59-1.5-0.95-2.57-1.08c-1.04-0.13-1.91-0.03-2.6,0.31c-0.69,0.34-1.09,0.84-1.18,1.52c-0.09,0.65,0.1,1.2,0.59,1.63
				c0.48,0.43,1.42,0.89,2.8,1.37c1.38,0.47,2.42,0.91,3.09,1.33c0.67,0.42,1.16,0.88,1.46,1.39c0.3,0.51,0.41,1.11,0.35,1.79
				c-0.11,1.11-0.71,1.95-1.81,2.5c-1.1,0.55-2.49,0.73-4.15,0.53c-1.76-0.22-3.14-0.79-4.13-1.68c-0.98-0.89-1.38-1.91-1.21-3.03
				c0.55,0.08,1.1,0.16,1.65,0.24c-0.06,0.86,0.25,1.57,0.94,2.15c0.69,0.58,1.66,0.95,2.9,1.1c1.16,0.14,2.13,0.03,2.89-0.33
				C377.05,496.87,377.46,496.34,377.54,495.66z"/>
			<path d="M392.95,483.57c-0.05,1.13-0.1,2.25-0.15,3.38c0.99,0.04,1.98,0.08,2.97,0.11c-0.01,0.4-0.02,0.8-0.04,1.2
				c-1-0.03-1.99-0.07-2.99-0.11c-0.13,2.93-0.26,5.87-0.39,8.8c-0.03,0.73,0.09,1.28,0.38,1.66c0.29,0.37,0.79,0.57,1.5,0.6
				c0.28,0.01,0.73-0.02,1.36-0.08c0.01,0.4,0.02,0.79,0.04,1.19c-0.44,0.12-1.05,0.17-1.81,0.15c-1.15-0.04-1.98-0.37-2.48-0.98
				c-0.5-0.61-0.71-1.48-0.65-2.6c0.15-2.93,0.3-5.87,0.45-8.8c-0.88-0.05-1.77-0.1-2.65-0.15c0.03-0.4,0.05-0.8,0.07-1.19
				c0.88,0.06,1.76,0.11,2.64,0.15c0.06-1.13,0.11-2.25,0.17-3.38C391.91,483.52,392.43,483.54,392.95,483.57z"/>
			<path d="M398.06,493.52c0.03-1.27,0.32-2.41,0.88-3.42c0.56-1.01,1.33-1.79,2.32-2.35c0.98-0.56,2.09-0.84,3.33-0.85
				c1.91-0.02,3.46,0.56,4.7,1.76c1.23,1.2,1.9,2.8,1.97,4.84c0,0.1,0.01,0.2,0.01,0.3c0.05,1.28-0.19,2.44-0.71,3.48
				c-0.53,1.04-1.3,1.85-2.31,2.43c-1.01,0.58-2.19,0.88-3.51,0.89c-2.02,0.02-3.66-0.61-4.9-1.86c-1.24-1.25-1.82-2.9-1.78-4.93
				C398.06,493.72,398.06,493.62,398.06,493.52z M399.7,493.95c-0.02,1.58,0.42,2.88,1.35,3.9c0.93,1.02,2.16,1.53,3.68,1.52
				c1.51-0.01,2.73-0.55,3.64-1.58c0.91-1.04,1.33-2.39,1.28-4.05c0-0.09-0.01-0.19-0.01-0.28c-0.03-1.01-0.27-1.93-0.7-2.75
				c-0.44-0.83-1.03-1.46-1.78-1.91c-0.75-0.44-1.6-0.66-2.55-0.65c-1.42,0.01-2.58,0.52-3.49,1.54c-0.91,1.02-1.39,2.34-1.41,4
				C399.7,493.77,399.7,493.86,399.7,493.95z"/>
			<path d="M435.98,492.41c0.04,1.88-0.51,3.41-1.67,4.57c-1.16,1.16-2.83,1.88-5,2.12c-1.51,0.17-2.89-0.02-4.11-0.56
				c-1.22-0.55-2.2-1.4-2.92-2.55c-0.73-1.15-1.15-2.5-1.28-4.05c-0.06-0.77-0.12-1.53-0.18-2.3c-0.13-1.57,0.07-2.99,0.56-4.26
				c0.5-1.27,1.26-2.28,2.31-3.04c1.04-0.77,2.27-1.23,3.7-1.39c2.02-0.23,3.67,0.07,4.98,0.93c1.31,0.86,2.2,2.16,2.66,3.93
				c-0.55,0.08-1.09,0.16-1.64,0.23c-0.83-2.94-2.77-4.18-5.85-3.83c-1.72,0.19-3.02,0.93-3.94,2.23c-0.91,1.3-1.29,3-1.11,5.12
				c0.06,0.72,0.13,1.44,0.19,2.17c0.18,2.04,0.84,3.63,2.01,4.75c1.17,1.12,2.68,1.58,4.49,1.38c1.79-0.2,3.1-0.75,3.9-1.61
				c0.81-0.86,1.21-2.06,1.21-3.58C434.86,492.58,435.42,492.5,435.98,492.41z"/>
			<path d="M450.04,495.59c-0.25-0.37-0.48-0.95-0.68-1.74c-0.44,0.77-1.08,1.42-1.91,1.95c-0.83,0.53-1.76,0.89-2.77,1.07
				c-1.45,0.26-2.68,0.11-3.69-0.44c-1.01-0.55-1.59-1.37-1.76-2.44c-0.2-1.27,0.24-2.37,1.3-3.3c1.06-0.94,2.64-1.59,4.74-1.98
				c0.97-0.18,1.94-0.37,2.91-0.57c-0.1-0.49-0.2-0.98-0.3-1.47c-0.19-0.93-0.65-1.59-1.38-1.99c-0.73-0.41-1.7-0.49-2.9-0.27
				c-1.1,0.2-1.96,0.62-2.59,1.26c-0.63,0.64-0.9,1.31-0.78,2.04c-0.53,0.09-1.07,0.17-1.61,0.25c-0.17-1.04,0.22-2.02,1.15-2.95
				c0.93-0.93,2.15-1.54,3.68-1.82c1.58-0.29,2.89-0.18,3.95,0.36c1.06,0.54,1.75,1.44,2.04,2.73c0.43,2.04,0.86,4.08,1.28,6.12
				c0.26,1.25,0.61,2.16,1.04,2.71c0.01,0.05,0.02,0.1,0.03,0.14C451.22,495.34,450.63,495.47,450.04,495.59z M444.64,495.56
				c1.11-0.2,2.05-0.62,2.83-1.25c0.78-0.63,1.28-1.38,1.52-2.23c-0.19-0.95-0.38-1.9-0.58-2.85c-0.96,0.19-1.92,0.38-2.88,0.56
				c-1.61,0.32-2.82,0.8-3.65,1.47c-0.83,0.67-1.17,1.44-1.02,2.33c0.12,0.73,0.53,1.29,1.23,1.66
				C442.79,495.63,443.64,495.74,444.64,495.56z"/>
			<path d="M459.61,481.09c-0.34,0.03-0.7,0.09-1.08,0.19c-0.97,0.25-1.73,0.7-2.29,1.36c-0.55,0.66-0.87,1.49-0.94,2.5
				c0.7,2.94,1.39,5.88,2.09,8.83c-0.55,0.13-1.09,0.26-1.64,0.38c-0.99-4.29-1.97-8.58-2.96-12.87c0.51-0.12,1.02-0.23,1.52-0.36
				c0.17,0.68,0.34,1.36,0.51,2.04c0.47-1.72,1.6-2.79,3.41-3.26c0.43-0.11,0.79-0.15,1.06-0.11
				C459.41,480.22,459.51,480.66,459.61,481.09z"/>
			<path d="M471.01,490.57c-1.25,0.38-2.47,0.44-3.63,0.2c-1.16-0.25-2.15-0.77-2.97-1.57c-0.82-0.8-1.38-1.8-1.7-2.98
				c-0.05-0.17-0.09-0.34-0.14-0.51c-0.33-1.23-0.36-2.4-0.1-3.53c0.26-1.13,0.78-2.1,1.55-2.92c0.77-0.82,1.69-1.39,2.77-1.72
				c1.69-0.5,3.18-0.4,4.5,0.33c1.32,0.73,2.29,1.98,2.88,3.78c0.08,0.26,0.17,0.52,0.25,0.78c-3.39,1.11-6.79,2.13-10.21,3.08
				c0.02,0.09,0.05,0.18,0.07,0.27c0.4,1.44,1.2,2.52,2.42,3.21c1.22,0.69,2.56,0.82,4.01,0.39c0.87-0.26,1.59-0.63,2.17-1.11
				c0.58-0.48,1.04-1.1,1.38-1.87c0.41,0.11,0.81,0.23,1.22,0.34C474.79,488.58,473.29,489.88,471.01,490.57z M467.14,478.73
				c-1.16,0.35-2.03,1.02-2.61,2.02c-0.58,1-0.78,2.18-0.6,3.54c2.86-0.79,5.71-1.64,8.54-2.55c-0.02-0.05-0.03-0.1-0.05-0.15
				c-0.43-1.2-1.13-2.06-2.09-2.59C469.37,478.46,468.31,478.38,467.14,478.73z"/>
			<path d="M485.3,485.77c-1.23,0.46-2.45,0.6-3.63,0.43c-1.18-0.17-2.21-0.63-3.08-1.38c-0.87-0.75-1.5-1.71-1.89-2.87
				c-0.06-0.17-0.11-0.33-0.17-0.5c-0.41-1.2-0.51-2.37-0.32-3.52c0.19-1.14,0.65-2.14,1.37-3.02c0.72-0.87,1.61-1.5,2.67-1.89
				c1.66-0.61,3.16-0.61,4.54,0.03c1.37,0.64,2.42,1.83,3.12,3.59c0.1,0.25,0.2,0.51,0.3,0.76c-3.33,1.33-6.68,2.57-10.05,3.74
				c0.03,0.09,0.06,0.18,0.09,0.26c0.49,1.41,1.36,2.44,2.63,3.04c1.27,0.61,2.62,0.65,4.04,0.13c0.85-0.32,1.56-0.74,2.1-1.25
				c0.55-0.52,0.97-1.17,1.27-1.96c0.41,0.09,0.83,0.17,1.24,0.26C488.97,483.54,487.54,484.94,485.3,485.77z M480.69,474.2
				c-1.14,0.42-1.97,1.15-2.49,2.19c-0.52,1.04-0.65,2.23-0.38,3.57c2.82-0.98,5.62-2.01,8.41-3.1c-0.02-0.05-0.04-0.1-0.06-0.15
				c-0.5-1.17-1.26-1.98-2.26-2.45C482.91,473.8,481.84,473.78,480.69,474.2z"/>
			<path d="M495.39,468.44c-0.34,0.09-0.69,0.21-1.04,0.37c-0.93,0.41-1.62,0.99-2.06,1.74c-0.45,0.75-0.62,1.62-0.52,2.63
				c1.18,2.78,2.36,5.57,3.54,8.35c-0.52,0.22-1.05,0.44-1.57,0.66c-1.69-4.07-3.38-8.13-5.07-12.2c0.49-0.2,0.97-0.41,1.46-0.61
				c0.28,0.64,0.56,1.28,0.84,1.92c0.19-1.78,1.14-3.03,2.87-3.8c0.41-0.18,0.76-0.28,1.04-0.29
				C495.05,467.62,495.22,468.03,495.39,468.44z"/>
		</g>
	</g>
</g>
</svg>
